<?xml version="1.0" encoding="UTF-8"?>
<svg xmlns="http://www.w3.org/2000/svg" xmlns:xlink="http://www.w3.org/1999/xlink" width="600" height="660">
<defs>
  <radialGradient id="rg" gradientUnits="userSpaceOnUse" cx="220" cy="220" r="405">
    <stop style="stop-color:#fff;stop-opacity:.3" offset="0"/>
    <stop style="stop-color:#fff;stop-opacity:.2" offset=".2"/>
    <stop style="stop-color:#666;stop-opacity:.1" offset=".6"/>
    <stop style="stop-color:#000;stop-opacity:.13" offset="1"/>
  </radialGradient>
  <radialGradient id="grad3" cx="33%" cy="33%" r="100%">
    <stop offset="0%" style="stop-color:#000;" />
    <stop offset="50%" style="stop-color:#000;" />
    <stop offset="50%" style="stop-color:#111;" />
    <stop offset="100%" style="stop-color:#111;" />
  </radialGradient>
  <clipPath id="clip-shield">
    <path id="shield" d="m2,2v257c0,286 298,398 298,398c0,0 298-112 298-398V2z"/>
  </clipPath>
  <circle id="stud" style="fill:url(#grad3)" cx="300" cy="120" r="20"/>
</defs>
<use id="background" xlink:href="#shield" style="fill:#cd7f32"/>
<g id="studs">
  <use xlink:href="#stud" transform="translate(-180,0)"/>
  <use xlink:href="#stud" transform="translate(-90,0)"/>
  <use xlink:href="#stud" transform="translate(0,0)"/>
  <use xlink:href="#stud" transform="translate(90,0)"/>
  <use xlink:href="#stud" transform="translate(180,0)"/>
  
  <use xlink:href="#stud" transform="translate(-180,90)"/>
  <use xlink:href="#stud" transform="translate(-90,90)"/>
  <use xlink:href="#stud" transform="translate(0,90)"/>
  <use xlink:href="#stud" transform="translate(90,90)"/>
  <use xlink:href="#stud" transform="translate(180,90)"/>
  
  <use xlink:href="#stud" transform="translate(-178,172)"/>
  <use xlink:href="#stud" transform="translate(-86,172)"/>
  <use xlink:href="#stud" transform="translate(0,180)"/>
  <use xlink:href="#stud" transform="translate(86,172)"/>
  <use xlink:href="#stud" transform="translate(178,172)"/>
  
  <use xlink:href="#stud" transform="translate(-158,247)"/>
  <use xlink:href="#stud" transform="translate(-58,246)"/>
  <use xlink:href="#stud" transform="translate(58,246)"/>
  <use xlink:href="#stud" transform="translate(158,247)"/>
  
  <use xlink:href="#stud" transform="translate(-116,312)"/>
  <use xlink:href="#stud" transform="translate(0,300)"/>
  <use xlink:href="#stud" transform="translate(116,312)"/>
  
  <use xlink:href="#stud" transform="translate(-60,367)"/>
  <use xlink:href="#stud" transform="translate(60,367)"/>
  
  <use xlink:href="#stud" transform="translate(0,407)"/>
</g>
<path id="runes" style="fill:#482d12;" d="m 558.1,85.88 c -7.4,-3.37 -1.3,-20.11 -3.3,-28.89 0,-14.53 0,-29.05 0,-43.58 9.3,-0.74 13.9,24.07 21.3,8.4 8.8,-15.577 12.6,-3.31 10.4,8.6 0,18.49 0,36.98 0,55.47 -7.4,-3.37 -1.3,-20.11 -3.3,-28.89 2.8,-9.22 -8.4,-20.35 -13.7,-22.19 -7.6,7.66 -14.2,15.71 -11.4,27.18 0,7.96 0,15.93 0,23.9 z m 0,-42.7 c 10.4,-7.98 11.6,-15.97 0.5,-23.96 -1.1,5.01 -0.2,16.74 -0.5,23.96 z m 14.7,-12.28 c 8.6,12.89 12.6,13.32 10.4,-3.02 1.7,-19.942 -3.3,-1.99 -10.4,3.02 z m -26.8,13.66 c -4.1,7.96 -21.5,15.9 -9.4,23.88 11,8.9 10,18.24 -0.6,4.32 -6.8,-15.48 -13.6,0.37 -20.4,7.18 -10.5,1.92 8.5,-12.74 11.1,-17.97 -4.2,-8.14 -21.8,-16.32 -9.8,-24.43 6.8,-10.08 13.6,-17.71 20.4,-3.14 2.9,3.39 5.8,6.77 8.7,10.16 z m -17.5,-15.45 c -6.9,7.97 -18.3,15.92 -5.1,23.92 4.1,13.77 19.3,-6.05 16.1,-11.05 -3.7,-4.29 -7.3,-8.58 -11,-12.87 z m -49.1,56.77 c -7.4,-3.37 -1.3,-20.11 -3.3,-28.89 0,-14.53 0,-29.05 0,-43.58 9.5,2.58 14.3,15.39 21.9,22.11 6.1,10.82 -16.9,16.02 -8.4,26.68 1.2,6.07 13.4,26.37 5.2,22.1 -3.9,-9.67 -7.7,-19.33 -11.6,-29 5.2,-7.97 20,-15.94 7,-23.9 -8.5,-12.61 -13.1,-14.41 -10.8,2.51 0,17.32 0,34.65 0,51.97 z m -22.3,-56.61 c -6.6,9.82 -20.6,16.85 -17.4,30.29 -2.1,7.82 4.3,24.12 -3.4,26.32 0,-24.16 0,-48.31 0,-72.47 8.4,0.69 -1.7,26.71 10,8.64 11.3,-14.67 3.2,5.49 -4,9.88 -8.4,15.02 2.5,10.09 8.5,-0.71 3.3,-2 7.8,-13.59 6.3,-1.95 z m -71.1,56.61 c -7.4,-3.37 -1.3,-20.11 -3.3,-28.89 0,-14.53 0,-29.05 0,-43.58 9.3,-0.74 13.9,24.07 21.3,8.4 8.8,-15.577 12.6,-3.31 10.4,8.6 0,18.49 0,36.98 0,55.47 -7.4,-3.37 -1.3,-20.11 -3.3,-28.89 0,-12.79 0,-25.59 0,-38.38 -6.8,8.03 -13.5,21.31 -20.2,5.78 -8.9,-13.93 -3.4,11.8 -4.9,18.01 0,14.5 0,28.99 0,43.48 z m -44.7,-53.19 c 4.7,-3.12 16.3,-25.055 15.7,-13.51 -8.6,7.98 -14.8,15.96 -2.5,23.91 3.6,8.16 21.7,16.31 11.8,24.49 -5.3,9.65 -17.9,17.38 -6.9,2.99 13,-7.96 -0.7,-15.89 -6.3,-23.82 -3.9,-4.69 -7.9,-9.37 -11.8,-14.06 z m -20.6,53.19 c -8,-2.24 -1.1,-19.26 -3.4,-27.19 0,-15.09 0,-30.19 0,-45.28 8,2.24 1.1,19.26 3.4,27.19 0,15.09 0,30.19 0,45.28 z m -21.4,-41.32 c -4.1,7.96 -21.5,15.9 -9.4,23.88 11,8.9 10,18.24 -0.6,4.32 -6.8,-15.48 -13.6,0.37 -20.4,7.18 -10.5,1.92 8.5,-12.74 11.1,-17.97 -4.2,-8.14 -21.8,-16.32 -9.8,-24.43 6.8,-10.08 13.6,-17.71 20.4,-3.14 2.9,3.39 5.8,6.77 8.7,10.16 z m -17.5,-15.45 c -6.9,7.97 -18.3,15.92 -5.1,23.92 4.1,13.77 19.3,-6.05 16.1,-11.05 -3.7,-4.29 -7.3,-8.58 -11,-12.87 z m -49.1,56.77 c -7.4,-3.37 -1.3,-20.11 -3.3,-28.89 0,-14.53 0,-29.05 0,-43.58 9.5,2.58 14.3,15.39 21.9,22.11 6.1,10.82 -16.9,16.02 -8.4,26.68 1.2,6.07 13.4,26.37 5.2,22.1 -3.9,-9.67 -7.7,-19.33 -11.6,-29 5.2,-7.97 20,-15.94 7,-23.9 -8.5,-12.61 -13.1,-14.41 -10.8,2.51 0,17.32 0,34.65 0,51.97 z m -52.1,0 c -8,-2.24 -1.1,-19.26 -3.4,-27.19 0,-15.09 0,-30.19 0,-45.28 9.2,-1.85 13.2,23.14 20.3,9.67 6.8,-12.82 15,-10.74 11.5,3.93 0,19.62 0,39.25 0,58.87 -8,-2.24 -1.1,-19.26 -3.4,-27.19 0,-13.36 0,-26.72 0,-40.08 -6.7,8.06 -13.4,21.31 -20.1,5.78 -8.9,-13.93 -3.4,11.8 -4.9,18.01 0,14.5 0,28.99 0,43.48 z m -44.7,-53.19 c 4.7,-3.12 16.3,-25.055 15.7,-13.51 -8.6,7.98 -14.8,15.96 -2.6,23.93 3.6,8.15 21.7,16.31 11.8,24.47 -5.3,9.65 -17.9,17.38 -6.9,2.99 13,-7.95 -0.7,-15.9 -6.3,-23.85 -3.9,-4.68 -7.8,-9.35 -11.7,-14.03 z m -11.3,53.19 c -9.1,-4.26 0.9,-25.87 -5.4,-35.38 -3.5,-17.71 -27.58,-45.456 -21.49,-13.36 0,16.25 0,32.49 0,48.74 -7.36,-3.37 -1.35,-20.11 -3.3,-28.89 0,-14.53 0,-29.05 0,-43.58 19.59,8.48 31.99,33.57 30.19,55.29 0,5.73 0,11.45 0,17.18 z m -40.02,-41.32 c -4.15,7.95 -21.55,15.89 -9.44,23.87 11,8.88 10.06,18.26 -0.61,4.34 -6.8,-15.47 -13.59,0.34 -20.39,7.2 -10.42,1.81 8.58,-12.76 11.17,-18 -4.23,-8.14 -21.86,-16.31 -9.83,-24.42 6.84,-10.06 13.67,-17.73 20.44,-3.14 2.89,3.38 5.77,6.77 8.66,10.15 z m -17.48,-15.45 c -6.86,7.96 -18.35,15.91 -5.13,23.93 4.06,13.76 19.28,-6.08 16.09,-11.07 -3.65,-4.28 -7.31,-8.57 -10.96,-12.86 z m -30.89,56.77 c -8.74,-2.69 2.49,-21.19 -8.8,-26.44 -8.5,-12.68 -12.98,-14.33 -10.72,2.53 -0.59,5.61 2.13,30.93 -3.34,20.51 0,-23.02 0,-46.05 0,-69.07 7.42,3.05 1.39,19.55 3.34,28.06 5.22,3.66 17.71,27.21 16.18,12.39 0,-13.48 0,-26.97 0,-40.45 7.44,3.31 1.37,20.11 3.34,28.89 0,14.53 0,29.05 0,43.58 z m 49.67,60.02 c -3.37,7.4 -20.11,1.3 -28.89,3.3 -14.53,0 -29.05,0 -43.58,0 0.38,-6.7 16.84,-18.7 18.79,-14.8 -10.46,7.7 -18.15,14.3 0,11.5 17.89,0 35.78,0 53.67,0 z m -53.19,-22.5 c -3.12,-4.7 -25.055,-16.3 -13.51,-15.7 7.98,8.6 15.96,14.8 23.92,2.5 8.16,-3.6 16.3,-21.64 24.48,-11.8 9.66,5.3 17.38,17.9 2.98,7 -7.97,-13.06 -15.89,0.7 -23.82,6.2 -4.69,4 -9.37,7.9 -14.05,11.8 z m 11.87,42.1 c 7.96,4.1 15.9,21.5 23.88,9.4 8.9,-11 18.24,-10 4.32,0.6 -15.48,6.8 0.37,13.6 7.18,20.4 1.91,10.5 -12.74,-8.6 -17.97,-11.2 -8.14,4.2 -16.3,21.9 -24.41,9.8 -10.05,-6.8 -17.75,-13.6 -3.13,-20.4 3.37,-2.9 6.75,-5.7 10.13,-8.6 z m -15.45,17.4 c 7.96,6.9 15.9,18.4 23.92,5.2 13.76,-4.1 -6.04,-19.3 -11.06,-16.1 -4.29,3.6 -8.57,7.3 -12.86,10.9 z m 19.44,32.8 c -8.08,6.7 -22.22,15.6 -3.07,12.5 13.46,0 26.93,0 40.4,0 -3.37,7.4 -20.11,1.3 -28.89,3.3 -14.53,0 -29.05,0 -43.58,0 0.37,-6.7 16.87,-18.6 18.79,-14.7 -10.68,6.2 -17.34,16.8 -1.14,9.2 5.79,-3.4 9.9,-12 17.49,-10.3 z m 37.68,60 c -3.14,7.4 -20.07,1.9 -28.78,4.1 -14.52,0.3 -29.04,0.7 -43.56,1.1 -2.11,-9.1 22.79,-13.8 9.14,-20.5 -14.562,-7.4 -8.83,-14.2 5.31,-11.6 19.05,-0.5 38.1,-1 57.15,-1.5 -3.14,7.5 -20.07,1.9 -28.78,4.1 -12.79,0.3 -25.57,0.7 -38.36,1 8.24,6.5 21.64,12.9 6.3,20 -13.69,9.2 11.88,3 18.14,4.4 14.48,-0.4 28.96,-0.7 43.44,-1.1 z m 3.39,32.1 c -2.26,7.8 -19.73,4.2 -28.15,7.3 -14.38,2.1 -28.77,4.1 -43.15,6.1 1.19,-9.8 13.2,-16.4 18.78,-24.9 11.14,2.7 20.89,18.5 34.12,14 6.13,-0.8 12.27,-1.7 18.4,-2.5 z m -32.06,4.5 c -8.48,-2.9 -18.81,-18.9 -25.01,-5.8 -13.51,11.3 -6.39,11.6 7.29,8.3 5.9,-0.8 11.81,-1.7 17.72,-2.5 z m 42.74,40.4 c -1.2,8 -18.99,6.8 -26.9,11 -14,4 -27.99,7.9 -41.98,11.9 -3.28,-8.8 19.41,-20 2.29,-22.8 -17.4,-4.2 -6.52,-11.2 5.48,-12.3 17.79,-5 35.59,-10.1 53.39,-15.1 -1.18,8 -18.98,6.8 -26.89,11.1 -12.32,3.4 -24.63,6.9 -36.95,10.4 9.58,4.3 24.15,7.2 11.04,17.8 -11,12.4 12.23,0 18.65,-0.2 13.95,-3.9 27.91,-7.9 41.87,-11.8 z m -27.45,32.9 c -4.7,9.4 -14.12,23.3 2.19,12.7 12.35,-5.3 24.71,-10.7 37.06,-16.1 -0.1,8.2 -17.91,9.3 -25.19,14.6 -13.32,5.8 -26.63,11.6 -39.94,17.4 -2.34,-6.2 7.99,-23.9 11.33,-21 -7.32,10 -9.15,22.4 2.64,8.9 3.92,-5.5 4.31,-15 11.91,-16.5 z m 6.28,46.7 c -1.21,8.5 -10.95,28.5 3.41,15.9 8.97,-5.4 24.66,-11.8 5.53,-13.4 -2.98,-0.8 -5.96,-1.7 -8.94,-2.5 z m 24.77,-20.5 c 9.5,3.8 22.7,2.5 29.6,9.7 -20.7,12.4 -41.39,24.9 -62.08,37.3 -3.03,-9.5 4.23,-20.6 5.38,-30.7 8.51,0.3 24.5,13.3 23.8,-2 1.1,-4.8 2.2,-9.5 3.3,-14.3 z m -2,24.8 c 6.9,-5.1 22.3,-11.6 24,-15.9 -10.2,-2.4 -23.4,-9.5 -22,6.8 -0.7,3 -1.3,6.1 -2,9.1 z m 18.9,28.9 c -0.8,-9.6 10.4,-25.1 4.9,-6.9 -0.4,7.4 14.8,-10.4 20.7,-13 11.5,-3.4 -9.4,11.5 -13.8,15 -12.3,3.5 -7.2,17.9 -15.8,23.6 5.1,-14.3 1.2,-14.4 -9.2,-4.2 -7.1,8.7 -22.8,13 -7.5,1.5 6.9,-5.3 13.8,-10.7 20.7,-16 z m 13.6,25.1 c 8.6,-2.5 26.4,4.5 23.7,-9.8 -1.2,-14 6.3,-19.9 3.6,-2.5 -6.4,15.6 9.7,9.5 19.4,9.6 8.4,6.2 -15.2,2.7 -20.8,4.5 -2.9,8.7 3.4,27 -10.8,24 -12,2.1 -22.2,2.4 -16.4,-12.5 0.4,-4.5 0.9,-8.9 1.3,-13.3 z m 1,23.3 c 10.5,-0.6 24.3,2.2 20.8,-12.9 7,-12.5 -17.8,-9.7 -19.1,-3.9 -0.6,5.6 -1.1,11.2 -1.7,16.8 z m 59.8,-20.2 c -2.9,13.7 1.5,18.9 15,13.6 7.6,4.5 -10.6,15.5 -13.9,22.5 -9.8,11.5 -19.7,22.9 -29.5,34.4 -5.6,-7.9 2.5,-24.8 -14.2,-16.8 -11.4,0.2 17.1,-11 15.1,-2.4 -3.1,18.7 4.6,8.7 12.1,-1 9.4,-11 18.9,-22 28.3,-33 -13.1,4.6 -19.7,1.8 -16.2,-12.8 0,-1.8 2.5,-3 3.3,-4.5 z m 26.6,71.9 c -2.6,-5.6 0.2,-31 2.2,-15 2.3,11.4 2.7,21.5 -11.9,20.9 -17.6,6.5 -4.7,-5.1 5.8,-4.9 1.3,-0.3 2.6,-0.7 3.9,-1 z m -10.8,-24.8 c 2.5,5.5 -0.2,31.1 -2.2,15 -2.3,-11.5 -2.9,-21.6 11.8,-20.9 17.7,-6.4 4.8,5.1 -5.8,4.9 -1.3,0.4 -2.5,0.7 -3.8,1 z m 32.5,35 c 1.6,10.4 1.9,27.1 9.2,9.1 6.9,-11.5 13.9,-23.1 20.9,-34.6 4.5,6.7 -9.2,17.9 -12.1,26.4 -7.5,12.5 -15,24.9 -22.5,37.4 -5.4,-5.3 -7.4,-18.6 -3.2,-25.4 0.9,9.9 3.4,27.4 7.8,9.1 0.1,-7.2 -5.6,-15.9 -0.1,-22 z m 69.1,-10.1 c 8,2.2 1.2,19.3 3.5,27.2 0,15.1 0.1,30.2 0.1,45.3 -9.2,1.9 -13.2,-23.2 -20.3,-9.7 -7.7,14.4 -14.4,8.7 -11.5,-5.5 0,-19.1 -0.1,-38.1 -0.2,-57.2 8,2.2 1.2,19.3 3.5,27.2 0,13.4 0.1,26.7 0.1,40.1 6.7,-8.1 13.4,-21.4 20.1,-5.9 8.9,14 3.3,-11.8 4.8,-18 0,-14.5 -0.1,-29 -0.1,-43.5 z m 59.1,19.4 c -2.4,5.2 -1.1,30 -6.5,19.7 3.2,-11.3 4.4,-21.3 -10.2,-21.8 -7.3,-5.1 -27,-2.7 -22.8,-14.8 -0.5,-11 6.4,-24.1 4.5,-6.2 -7.1,13.6 8.7,13.3 17.6,17.2 5.8,2 11.6,3.9 17.4,5.9 z m -5.4,-61 c 8,-1.5 12.8,15.6 19.6,21.6 8.4,11.7 16.9,23.5 25.4,35.3 -5.6,3.8 -24.9,-2.8 -23,-6.6 12.4,4 22.2,6.3 9.4,-6.7 -10.5,-14.6 -20.9,-29.1 -31.4,-43.6 z m 38.5,-31 c 7.7,-2.4 14.1,14.4 21.3,19.7 9.5,11 18.9,22.1 28.4,33.1 -6.5,6.8 -26.3,-9.1 -21.6,7.6 3.5,17.5 -7.4,10.6 -13.5,0.2 -12.1,-14 -24.1,-28.1 -36.2,-42.1 7.5,-3.4 13.4,13.9 20.3,18.4 8.7,10.2 17.4,20.3 26.1,30.5 -0.1,-10.5 -3.7,-25 11.5,-17.6 15.9,4.7 -5.1,-11.1 -8,-16.9 -9.4,-10.9 -18.9,-21.9 -28.3,-32.9 z m 58.6,-4.4 c -5.8,1.7 -30.7,-4.6 -14.6,-4.4 11.7,-0.6 21.8,0.3 19,14.7 3.9,18.4 -5.7,4.1 -4,-6.3 -0.1,-1.3 -0.3,-2.7 -0.4,-4 z m -26.1,7.1 c 5.8,-1.7 30.7,4.6 14.5,4.4 -11.7,0.6 -21.7,-0.4 -18.9,-14.7 -3.9,-18.5 5.7,-4 4,6.4 0.1,1.3 0.3,2.6 0.4,3.9 z m 14.2,-53.5 c 7.2,-3.7 16.7,11.3 24.8,15.1 11.5,8.9 23,17.9 34.5,26.8 -4.5,5 -24.8,4.4 -23.9,0.1 13,0.4 23,-0.1 7,-9 -14.2,-11 -28.3,-22 -42.4,-33 z m 48.8,-4.6 c 10.4,-1.7 27.1,-2.1 9.1,-9.2 -11.6,-6.9 -23.1,-13.9 -34.7,-20.8 6.1,-5.6 17.1,8.9 25.1,11.1 12.9,7.8 25.9,15.5 38.8,23.3 -3.7,5.6 -24.1,7.4 -23.7,3 12.2,0.2 23.5,-5.5 5.7,-7.3 -6.7,0 -14.6,5.1 -20.3,-0.1 z m -8.1,-65.4 c 5.3,-6.4 18.1,6.6 26.3,7.8 13.9,6 27.7,12 41.5,18 -6,7.8 -19.8,7.1 -29,11.4 -8,-8.2 -8.1,-26.7 -21.7,-29.8 -5.7,-2.5 -11.4,-4.9 -17.1,-7.4 z m 29.7,12.9 c 5.7,6.9 6.2,25.8 18.3,18 17.6,-2.6 11.3,-6.5 -1.9,-10.9 -5.5,-2.3 -10.9,-4.7 -16.4,-7.1 z m 17.4,-38.2 c -4.4,4.4 -29.2,10.4 -14.9,3 10,-6 19.4,-9.9 23.8,4 12,14.5 -3.3,6.1 -6.7,-3.7 -0.7,-1.1 -1.5,-2.2 -2.2,-3.3 z m 26.7,-52.7 c 2.4,5.1 22.4,19.6 11.2,17.5 -6.7,-9.6 -13.7,-16.9 -23.3,-5.9 -8.6,2.5 -19.2,19.2 -25.9,8.3 -8.8,-6.5 -14.7,-20.1 -2.1,-7.2 6.1,14 15.8,1.5 24.5,-2.9 5.2,-3.3 10.4,-6.5 15.6,-9.8 z m -14.8,-17.5 c 8.3,-6.5 22.6,-15.1 3.4,-12.4 -13.5,-0.3 -26.9,-0.7 -40.4,-1 2.5,-7.9 19.3,-0.6 27.3,-2.7 15.1,0.4 30.2,0.8 45.3,1.2 -0.6,6.7 -17.3,18.1 -19.2,14.2 10.9,-5.9 17.7,-16.4 1.3,-9.2 -5.8,3.3 -10.2,11.9 -17.7,9.9 z m -37.1,-141.1 c 2.2,-8 19.3,-1.1 27.2,-3.4 15.1,0 30.2,0 45.3,0 -1.7,9.4 -14.7,13.6 -20.8,21 -7.9,0.5 -16,-12.4 -23.9,-17.1 -8.9,-1.2 -18.6,-0.1 -27.8,-0.5 z m 32.4,0 c 8,4.1 16,21.2 24,9.2 15,-9.3 7.8,-10.5 -6.1,-9.2 -6,0 -11.9,0 -17.9,0 z m -32.4,36.3 c 2.2,-8 19.3,-1.1 27.2,-3.4 15.1,0 30.2,0 45.3,0 1.8,9.2 -23.2,13.1 -9.7,20.3 12.8,6.8 10.8,15 -3.9,11.5 -19.6,0 -39.3,0 -58.9,0 2.2,-8 19.3,-1.1 27.2,-3.4 13.4,0 26.7,0 40.1,0 -8.1,-6.7 -21.3,-13.4 -5.8,-20.1 14,-8.9 -11.8,-3.4 -18,-4.9 -14.5,0 -29,0 -43.5,0 z m 0,68.2 c 2.7,-8.7 21.2,2.5 26.4,-8.8 12.7,-8.5 14.4,-13 -2.5,-10.7 -5.8,-1.3 -27.5,3.1 -22.2,-3.4 23.6,0 47.2,0 70.8,0 -2.2,8 -19.3,1.1 -27.2,3.4 -4.1,3.7 -25.6,16.7 -15,16.2 14.1,0 28.1,0 42.2,0 -3.4,7.4 -20.1,1.3 -28.9,3.3 -14.5,0 -29.1,0 -43.6,0 z m 67.3,-132.6 c -22.4,0 -44.9,0 -67.3,0 3.4,-7.4 20.1,-1.3 28.9,-3.3 12.8,0 25.6,0 38.4,0 -7.3,-4.39 -21,-19.04 -5.8,-9.27 12.1,5.87 13.3,15.37 0.6,21.27 -15.5,10.5 -3.4,-3.5 4.6,-8.2 z"/>
<use id="shine" xlink:href="#shield" style="fill:url(#rg);stroke:#000000;stroke-width:3;"/>
</svg>
