<?xml version="1.0" encoding="utf-8"?>
<!-- Generator: Adobe Illustrator 25.3.0, SVG Export Plug-In . SVG Version: 6.00 Build 0)  -->
<svg version="1.1" id="Layer_1" xmlns="http://www.w3.org/2000/svg" xmlns:xlink="http://www.w3.org/1999/xlink" x="0px" y="0px"
	 viewBox="0 0 600 660" style="enable-background:new 0 0 600 660;" xml:space="preserve">
<style type="text/css">
	.st0{fill:#FF7777;}
	.st1{fill:#CC0000;}
	.st2{fill:#0000CC;}
	.st3{fill:#FFFFFF;}
	.st4{fill:#E0E0E0;}
	.st5{fill:#FFFF00;}
	.st6{fill:#E5E500;}
	.st7{fill:#FFFF00;stroke:#E5E500;stroke-width:0.5;stroke-linecap:round;stroke-linejoin:round;stroke-miterlimit:2;}
	.st8{fill:#FFCC00;stroke:#CC0000;}
	.st9{fill:#FF9900;stroke:#CC0000;}
	.st10{fill:#552200;stroke:#CC0000;}
	.st11{fill:#FF5555;stroke:#CC0000;}
	.st12{fill:#FFFFFF;stroke:#CC0000;}
	.st13{fill:#552200;}
	.st14{fill:#FF9900;}
	.st15{fill:url(#shield_3_);stroke:#000000;stroke-width:3;}
</style>
<g id="bg">
	<path id="shield" class="st0" d="M2,2v257c0,286,298,398,298,398s298-112,298-398V2H2z"/>
</g>
<path id="top-right" class="st1" d="M300,2v298h295.9c1.4-13.3,2.1-26.9,2.1-41V2H300z"/>
<path id="bottom-left" class="st1" d="M4.1,300C30.6,555.8,300,657,300,657V300H4.1z"/>
<rect x="151.8" y="2" class="st2" width="148.2" height="148.2"/>
<g id="bg_1_">
	<path id="shield_2_" class="st2" d="M150.2,300l1.6-149.8H2V259c-0.3,11.4,0.7,25.7,2.1,41H150.2"/>
</g>
<g transform="translate(300)">
	<g id="moon">
		<path class="st3" d="M223.3,17.1c16.1,8.3,26.2,24.9,26.2,43c0,26.8-21.7,48.4-48.4,48.4c-7.3,0-14.4-1.7-20.9-4.8l12.6,10.7
			l28.2,7.5l38.4-17.2l13.2-46.2L246.9,24l-15.7-5.9L223.3,17.1z"/>
		<path class="st4" d="M222.6,124.7c29.7,0,53.8-24.1,53.8-53.8c0-29.5-23.7-53.4-53.2-53.8c22.8,4.3,39.7,24.6,39.7,48.4
			c0,28.2-22.9,51.1-51.1,51.1c-11.9,0-23.4-4.7-31.7-12.9C190.3,116.9,206,124.7,222.6,124.7z"/>
	</g>
</g>
<g>
	<g id="sun" transform="scale(0.5)">
		<g id="wavy-rays" transform="rotate(22.5,300,300)">
			<g id="wavy-ray">
				<path class="st5" d="M95.6,97.5c-1.2,3.1-3.5,9-4.8,15.4c-1.3,6.9-1.4,14.4-0.7,22.8v0c0.5,6.8,1.2,13.9,0.1,19.3
					c-0.8,5-3.3,10.2-6.1,15.9c-3.4,6.3-7,14-8.5,24.6c-0.6,8.5,0.7,15.8,2.7,21.7l19.5,0l9.4-62.6l-9.4-31.2l-1.4-15.6l1.4-15.6
					C97.8,92.1,97,94,95.6,97.5L95.6,97.5z"/>
				<path class="st6" d="M117.3,217.1c-1-3.1-2.3-5.8-3.6-8.1c0,0,0,0,0,0h0l0,0c-1.9-4.4-4.6-9.1-4.6-11.8c-0.8-3.6,0.8-9,2.3-17.1
					c1.8-7.8,2.8-16.7,1.6-25.8c-1.5-9.1-4.8-16.4-7.5-22.4v0c-3.2-7.2-5.4-12.8-6.5-18.8c-1-5.5-1.1-11.8-1.2-15.1
					c-0.1-3.7-0.1-5.8-0.1-5.8C96.5,99,95.1,106,95,112.9c-0.1,6.9,1.2,13.9,2.9,20.8c1.7,6.9,3.6,13.9,3.8,20.8
					c0.2,6.9-1.5,13.9-3.8,20.8c-2.4,6.9-5.1,13.9-5.4,20.8c-0.4,6.9,1.9,13.9,5.4,20.8"/>
			</g>
			<g transform="rotate(45,300,300)">
				<g id="wavy-ray_1_">
					<path class="st5" d="M180.9,131c-3.1,1.3-8.8,3.8-14.3,7.5c-5.8,3.9-11.2,9.2-16.6,15.7h0c-4.5,5.2-9,10.7-13.5,13.7
						c-4.1,3-9.5,4.8-15.5,6.9c-6.8,2.1-14.8,4.9-23.4,11.4c-6.4,5.6-10.7,11.6-13.5,17.3l13.8,13.8l50.9-37.6l15.5-28.7l10-12
						l12-10C186.3,128.7,184.3,129.5,180.9,131L180.9,131z"/>
					<path class="st6" d="M111.6,230.9c1.4-2.9,2.5-5.7,3.2-8.3c0,0,0,0,0,0l0,0l0,0c1.8-4.4,3.2-9.6,5.1-11.6
						c1.9-3.1,6.9-5.8,13.7-10.4c6.8-4.2,13.8-9.8,19.4-17.1c5.4-7.5,8.2-15,10.5-21.2v0c2.8-7.3,5.3-12.9,8.8-17.9
						c3.2-4.6,7.6-9.1,9.8-11.5c2.6-2.7,4.1-4.2,4.1-4.2c-5.9,4-11.8,7.9-16.8,12.7c-5,4.8-9,10.6-12.7,16.8s-7.3,12.4-12,17.4
						c-4.8,5.1-10.9,8.8-17.4,12c-6.6,3.2-13.4,6.2-18.6,10.9c-5.2,4.7-8.5,11.2-10.9,18.6"/>
				</g>
			</g>
			<g transform="rotate(90,300,300)">
				<g id="wavy-ray_2_">
					<path class="st5" d="M217.5,214.9c-3.1-1.2-9-3.5-15.4-4.8c-6.9-1.3-14.4-1.4-22.8-0.7h0c-6.8,0.5-13.9,1.2-19.3,0.1
						c-5-0.8-10.2-3.3-15.9-6.1c-6.3-3.4-14-7-24.6-8.5c-8.5-0.6-15.8,0.7-21.7,2.7l0,19.5l62.5,9.4l31.2-9.4l15.6-1.4l15.6,1.4
						C222.9,217.1,221,216.3,217.5,214.9L217.5,214.9z"/>
					<path class="st6" d="M97.8,236.6c3.1-1,5.8-2.3,8.1-3.6c0,0,0,0,0,0v0l0,0c4.4-1.9,9.1-4.6,11.8-4.6c3.6-0.8,9,0.8,17.1,2.3
						c7.8,1.8,16.7,2.8,25.8,1.6c9.1-1.5,16.4-4.8,22.4-7.5h0c7.2-3.2,12.8-5.4,18.8-6.5c5.5-1,11.8-1.1,15.1-1.2
						c3.7-0.1,5.8-0.1,5.8-0.1c-6.9-1.3-13.9-2.8-20.8-2.9c-6.9-0.1-13.9,1.2-20.8,2.9s-13.9,3.6-20.8,3.8s-13.9-1.5-20.8-3.8
						c-6.9-2.4-13.9-5.1-20.8-5.4c-6.9-0.4-13.9,1.9-20.8,5.4"/>
				</g>
			</g>
			<g transform="rotate(135,300,300)">
				<g id="wavy-ray_3_">
					<path class="st5" d="M184,300.2c-1.3-3.1-3.8-8.8-7.5-14.3c-3.9-5.8-9.2-11.2-15.7-16.6l0,0c-5.2-4.5-10.7-9-13.7-13.5
						c-3-4.1-4.8-9.5-6.9-15.5c-2.1-6.8-4.9-14.8-11.4-23.4c-5.6-6.4-11.6-10.7-17.3-13.5l-13.8,13.8l37.6,50.9l28.7,15.5l12,10
						l10,12C186.3,305.6,185.5,303.6,184,300.2L184,300.2z"/>
					<path class="st6" d="M84.1,230.9c2.9,1.4,5.7,2.5,8.3,3.2c0,0,0,0,0,0l0,0l0,0c4.4,1.8,9.6,3.2,11.6,5.1
						c3.1,1.9,5.8,6.9,10.4,13.7c4.2,6.8,9.8,13.8,17.1,19.4c7.5,5.4,15,8.2,21.2,10.5l0,0c7.3,2.8,12.9,5.3,17.9,8.8
						c4.6,3.2,9.1,7.6,11.5,9.8c2.7,2.6,4.2,4.1,4.2,4.1c-4-5.9-7.9-11.8-12.7-16.8c-4.8-5-10.6-9-16.8-12.7
						c-6.1-3.7-12.4-7.3-17.4-12c-5.1-4.8-8.8-10.9-12-17.4s-6.2-13.4-10.9-18.6c-4.7-5.2-11.2-8.5-18.6-10.9"/>
				</g>
			</g>
			<g transform="rotate(180,300,300)">
				<g id="wavy-ray_4_">
					<path class="st5" d="M100.1,336.8c1.2-3.1,3.5-9,4.8-15.4c1.3-6.9,1.4-14.4,0.7-22.8l0,0c-0.5-6.8-1.2-13.9-0.1-19.3
						c0.8-5,3.3-10.2,6.1-15.9c3.4-6.3,7-14,8.5-24.6c0.6-8.5-0.7-15.8-2.7-21.7H97.9l-9.4,62.5l9.4,31.2l1.4,15.6l-1.4,15.6
						C97.8,342.2,98.7,340.3,100.1,336.8L100.1,336.8z"/>
					<path class="st6" d="M78.4,217.1c1,3.1,2.3,5.8,3.6,8.1c0,0,0,0,0,0h0l0,0c1.9,4.4,4.6,9.1,4.6,11.8c0.8,3.6-0.8,9-2.3,17.1
						c-1.8,7.8-2.8,16.7-1.6,25.8c1.5,9.1,4.8,16.4,7.5,22.4l0,0c3.2,7.2,5.4,12.8,6.5,18.8c1,5.5,1.1,11.8,1.2,15.1
						c0.1,3.7,0.1,5.8,0.1,5.8c1.3-6.9,2.8-13.9,2.9-20.8c0.1-6.9-1.2-13.9-2.9-20.8c-1.7-6.9-3.6-13.9-3.8-20.8
						c-0.2-6.9,1.5-13.9,3.8-20.8c2.4-6.9,5.1-13.9,5.4-20.8c0.4-6.9-1.9-13.9-5.4-20.8"/>
				</g>
			</g>
			<g transform="rotate(225,300,300)">
				<g id="wavy-ray_5_">
					<path class="st5" d="M14.8,303.3c3.1-1.3,8.8-3.8,14.3-7.5c5.8-3.9,11.2-9.2,16.6-15.7h0c4.5-5.2,9-10.7,13.5-13.7
						c4.1-3,9.5-4.8,15.5-6.9c6.8-2.1,14.8-4.9,23.4-11.4c6.4-5.6,10.7-11.6,13.5-17.3l-13.8-13.8L47,254.7l-15.5,28.7l-10,12
						l-12,10C9.4,305.6,11.4,304.8,14.8,303.3L14.8,303.3z"/>
					<path class="st6" d="M84.1,203.4c-1.4,2.9-2.5,5.7-3.2,8.3c0,0,0,0,0,0l0,0l0,0c-1.8,4.4-3.2,9.6-5.1,11.6
						c-1.9,3.1-6.9,5.8-13.7,10.4c-6.8,4.2-13.8,9.8-19.4,17.1c-5.4,7.5-8.2,15-10.5,21.2h0c-2.8,7.3-5.3,12.9-8.8,17.9
						c-3.2,4.6-7.6,9.1-9.8,11.5c-2.6,2.7-4.1,4.2-4.1,4.2c5.9-4,11.8-7.9,16.8-12.7c5-4.8,9-10.6,12.7-16.8
						c3.7-6.1,7.3-12.4,12-17.4c4.8-5.1,10.9-8.8,17.4-12s13.4-6.2,18.6-10.9c5.2-4.7,8.5-11.2,10.9-18.6"/>
				</g>
			</g>
			<g transform="rotate(270,300,300)">
				<g id="wavy-ray_6_">
					<path class="st5" d="M-21.8,219.4c3.1,1.2,9,3.5,15.4,4.8c6.9,1.3,14.4,1.4,22.8,0.7h0c6.8-0.5,13.9-1.2,19.3-0.1
						c5,0.8,10.2,3.3,15.9,6.1c6.3,3.4,14,7,24.6,8.5c8.5,0.6,15.8-0.7,21.7-2.7l0-19.5l-62.5-9.4L4,217.1l-15.6,1.4l-15.6-1.4
						C-27.2,217.1-25.3,218-21.8,219.4L-21.8,219.4z"/>
					<path class="st6" d="M97.8,197.7c-3.1,1-5.8,2.3-8.1,3.6c0,0,0,0,0,0v0l0,0c-4.4,1.9-9.1,4.6-11.8,4.6c-3.6,0.8-9-0.8-17.1-2.3
						c-7.8-1.8-16.7-2.8-25.8-1.6c-9.1,1.5-16.4,4.8-22.4,7.5h0c-7.2,3.2-12.8,5.4-18.8,6.5c-5.5,1-11.8,1.1-15.1,1.2
						c-3.7,0.1-5.8,0.1-5.8,0.1c6.9,1.3,13.9,2.8,20.8,2.9c6.9,0.1,13.9-1.2,20.8-2.9c6.9-1.7,13.9-3.6,20.8-3.8
						c6.9-0.2,13.9,1.5,20.8,3.8s13.9,5.1,20.8,5.4c6.9,0.4,13.9-1.9,20.8-5.4"/>
				</g>
			</g>
			<g transform="rotate(315,300,300)">
				<g id="wavy-ray_7_">
					<path class="st5" d="M11.7,134.1c1.3,3.1,3.8,8.8,7.5,14.3c3.9,5.8,9.2,11.2,15.7,16.6h0c5.2,4.5,10.7,9,13.7,13.5
						c3,4.1,4.8,9.5,6.9,15.5c2.1,6.8,4.9,14.8,11.4,23.4c5.6,6.4,11.6,10.7,17.3,13.5l13.8-13.8l-37.6-50.9l-28.7-15.5l-12-10
						l-10-12C9.4,128.7,10.2,130.7,11.7,134.1L11.7,134.1z"/>
					<path class="st6" d="M111.6,203.4c-2.9-1.4-5.7-2.5-8.3-3.2c0,0,0,0,0,0l0,0l0,0c-4.4-1.8-9.6-3.2-11.6-5.1
						c-3.1-1.9-5.8-6.9-10.4-13.7c-4.2-6.8-9.8-13.8-17.1-19.4c-7.5-5.4-15-8.2-21.2-10.5h0c-7.3-2.8-12.9-5.3-17.9-8.8
						c-4.6-3.2-9.1-7.6-11.5-9.8c-2.7-2.6-4.2-4.1-4.2-4.1c4,5.9,7.9,11.8,12.7,16.8c4.8,5,10.6,9,16.8,12.7s12.4,7.3,17.4,12
						c5.1,4.8,8.8,10.9,12,17.4c3.2,6.6,6.2,13.4,10.9,18.6c4.7,5.2,11.2,8.5,18.6,10.9"/>
				</g>
			</g>
		</g>
		<g id="straight-rays">
			<g id="straight-ray">
				<path class="st5" d="M144.9,21l-16,86.5l16,38.5l7.8-38.5L144.9,21z"/>
				<path class="st6" d="M144.9,146.1V21l16,86.5L144.9,146.1z"/>
			</g>
			<g transform="rotate(45,300,300)">
				<g id="straight-ray_1_">
					<path class="st5" d="M233.4,57.7l-72.5,49.9l-16,38.5l32.8-21.7L233.4,57.7z"/>
					<path class="st6" d="M144.9,146.1l88.4-88.4l-49.9,72.5L144.9,146.1z"/>
				</g>
			</g>
			<g transform="rotate(90,300,300)">
				<g id="straight-ray_2_">
					<path class="st5" d="M270,146.1l-86.5-16l-38.5,16l38.5,7.8L270,146.1z"/>
					<path class="st6" d="M144.9,146.1h125l-86.5,16L144.9,146.1z"/>
				</g>
			</g>
			<g transform="rotate(135,300,300)">
				<g id="straight-ray_3_">
					<path class="st5" d="M233.4,234.5L183.5,162l-38.5-16l21.7,32.8L233.4,234.5z"/>
					<path class="st6" d="M144.9,146.1l88.4,88.4l-72.5-49.9L144.9,146.1z"/>
				</g>
			</g>
			<g transform="rotate(180,300,300)">
				<g id="straight-ray_4_">
					<path class="st5" d="M144.9,271.1l16-86.5l-16-38.5l-7.8,38.5L144.9,271.1z"/>
					<path class="st6" d="M144.9,146.1v125l-16-86.5L144.9,146.1z"/>
				</g>
			</g>
			<g transform="rotate(225,300,300)">
				<g id="straight-ray_5_">
					<path class="st5" d="M56.5,234.5l72.5-49.9l16-38.5l-32.8,21.7L56.5,234.5z"/>
					<path class="st6" d="M144.9,146.1l-88.4,88.4l49.9-72.5L144.9,146.1z"/>
				</g>
			</g>
			<g transform="rotate(270,300,300)">
				<g id="straight-ray_6_">
					<path class="st5" d="M19.9,146.1l86.5,16l38.5-16l-38.5-7.8L19.9,146.1z"/>
					<path class="st6" d="M144.9,146.1h-125l86.5-16L144.9,146.1z"/>
				</g>
			</g>
			<g transform="rotate(315,300,300)">
				<g id="straight-ray_7_">
					<path class="st5" d="M56.5,57.7l49.9,72.5l38.5,16l-21.7-32.8L56.5,57.7z"/>
					<path class="st6" d="M144.9,146.1L56.5,57.7l72.5,49.9L144.9,146.1z"/>
				</g>
			</g>
		</g>
		<circle id="disk" class="st7" cx="144.9" cy="146.1" r="41.7"/>
	</g>
</g>
<rect x="151.8" y="150.2" class="st0" width="148.2" height="148.2"/>
<g>
	<g id="sun_2_" transform="scale(0.5)">
		<g id="wavy-rays_2_" transform="rotate(22.5,300,300)">
			<g id="wavy-ray_23_">
				<path class="st5" d="M501.8,258.4c-1.2,3.1-3.5,9-4.8,15.4c-1.3,6.9-1.4,14.4-0.7,22.8l0,0c0.5,6.8,1.2,13.9,0.1,19.3
					c-0.8,5-3.3,10.2-6.1,15.9c-3.4,6.3-7,14-8.5,24.6c-0.6,8.5,0.7,15.8,2.7,21.7l19.5,0l9.4-62.5l-9.4-31.2l-1.4-15.6l1.4-15.6
					C504.1,253,503.2,254.9,501.8,258.4L501.8,258.4z"/>
				<path class="st6" d="M523.5,378.1c-1-3.1-2.3-5.8-3.6-8.1c0,0,0,0,0,0h0l0,0c-1.9-4.4-4.6-9.1-4.6-11.8c-0.8-3.6,0.8-9,2.3-17.1
					c1.8-7.8,2.8-16.7,1.6-25.8c-1.5-9.1-4.8-16.4-7.5-22.4l0,0c-3.2-7.2-5.4-12.8-6.5-18.8c-1-5.5-1.1-11.8-1.2-15.1
					c-0.1-3.7-0.1-5.8-0.1-5.8c-1.3,6.9-2.8,13.9-2.9,20.8c-0.1,6.9,1.2,13.9,2.9,20.8c1.7,6.9,3.6,13.9,3.8,20.8
					c0.2,6.9-1.5,13.9-3.8,20.8c-2.4,6.9-5.1,13.9-5.4,20.8c-0.4,6.9,1.9,13.9,5.4,20.8"/>
			</g>
			<g transform="rotate(45,300,300)">
				<g id="wavy-ray_22_">
					<path class="st5" d="M587.1,291.9c-3.1,1.3-8.8,3.8-14.3,7.5c-5.8,3.9-11.2,9.2-16.6,15.7l0,0c-4.5,5.2-9,10.7-13.5,13.7
						c-4.1,3-9.5,4.8-15.5,6.9c-6.8,2.1-14.8,4.9-23.4,11.4c-6.4,5.6-10.7,11.6-13.5,17.3l13.8,13.8l50.9-37.6l15.5-28.7l10-12
						l12-10C592.5,289.7,590.6,290.4,587.1,291.9L587.1,291.9z"/>
					<path class="st6" d="M517.8,391.9c1.4-2.9,2.5-5.7,3.2-8.3c0,0,0,0,0,0h0l0,0c1.8-4.4,3.2-9.6,5.1-11.6
						c1.9-3.1,6.9-5.8,13.7-10.4c6.8-4.2,13.8-9.8,19.4-17.1c5.4-7.5,8.2-15,10.5-21.2l0,0c2.8-7.3,5.3-12.9,8.8-17.9
						c3.2-4.6,7.6-9.1,9.8-11.5c2.6-2.7,4.1-4.2,4.1-4.2c-5.9,4-11.8,7.9-16.8,12.7c-5,4.8-9,10.6-12.7,16.8
						c-3.7,6.1-7.3,12.4-12,17.4s-10.9,8.8-17.4,12s-13.4,6.2-18.6,10.9c-5.2,4.7-8.5,11.2-10.9,18.6"/>
				</g>
			</g>
			<g transform="rotate(90,300,300)">
				<g id="wavy-ray_21_">
					<path class="st5" d="M623.7,375.9c-3.1-1.2-9-3.5-15.4-4.8c-6.9-1.3-14.4-1.4-22.8-0.7l0,0c-6.8,0.5-13.9,1.2-19.3,0.1
						c-5-0.8-10.2-3.3-15.9-6.1c-6.3-3.4-14-7-24.6-8.5c-8.5-0.6-15.8,0.7-21.7,2.7v19.5l62.5,9.4l31.2-9.4l15.6-1.4l15.6,1.4
						C629.1,378.1,627.2,377.3,623.7,375.9L623.7,375.9z"/>
					<path class="st6" d="M504.1,397.6c3.1-1,5.8-2.3,8.1-3.6c0,0,0,0,0,0v0l0,0c4.4-1.9,9.1-4.6,11.8-4.6c3.6-0.8,9,0.8,17.1,2.3
						c7.8,1.8,16.7,2.8,25.8,1.6c9.1-1.5,16.4-4.8,22.4-7.5l0,0c7.2-3.2,12.8-5.4,18.8-6.5c5.5-1,11.8-1.1,15.1-1.2
						c3.7-0.1,5.8-0.1,5.8-0.1c-6.9-1.3-13.9-2.8-20.8-2.9c-6.9-0.1-13.9,1.2-20.8,2.9s-13.9,3.6-20.8,3.8
						c-6.9,0.2-13.9-1.5-20.8-3.8c-6.9-2.4-13.9-5.1-20.8-5.4s-13.9,1.9-20.8,5.4"/>
				</g>
			</g>
			<g transform="rotate(135,300,300)">
				<g id="wavy-ray_20_">
					<path class="st5" d="M590.3,461.1c-1.3-3.1-3.8-8.8-7.5-14.3c-3.9-5.8-9.2-11.2-15.7-16.6l0,0c-5.2-4.5-10.7-9-13.7-13.5
						c-3-4.1-4.8-9.5-6.9-15.5c-2.1-6.8-4.9-14.8-11.4-23.4c-5.6-6.4-11.6-10.7-17.3-13.5l-13.8,13.8l37.6,50.9l28.7,15.5l12,10
						l10,12C592.5,466.5,591.7,464.6,590.3,461.1L590.3,461.1z"/>
					<path class="st6" d="M490.3,391.9c2.9,1.4,5.7,2.5,8.3,3.2c0,0,0,0,0,0l0,0l0,0c4.4,1.8,9.6,3.2,11.6,5.1
						c3.1,1.9,5.8,6.9,10.4,13.7c4.2,6.8,9.8,13.8,17.1,19.4c7.5,5.4,15,8.2,21.2,10.5l0,0c7.3,2.8,12.9,5.3,17.9,8.8
						c4.6,3.2,9.1,7.6,11.5,9.8c2.7,2.6,4.2,4.1,4.2,4.1c-4-5.9-7.9-11.8-12.7-16.8c-4.8-5-10.6-9-16.8-12.7
						c-6.1-3.7-12.4-7.3-17.4-12c-5.1-4.8-8.8-10.9-12-17.4s-6.2-13.4-10.9-18.6c-4.7-5.2-11.2-8.5-18.6-10.9"/>
				</g>
			</g>
			<g transform="rotate(180,300,300)">
				<g id="wavy-ray_19_">
					<path class="st5" d="M506.3,497.7c1.2-3.1,3.5-9,4.8-15.4c1.3-6.9,1.4-14.4,0.7-22.8l0,0c-0.5-6.8-1.2-13.9-0.1-19.3
						c0.8-5,3.3-10.2,6.1-15.9c3.4-6.3,7-14,8.5-24.6c0.6-8.5-0.7-15.8-2.7-21.7h-19.5l-9.4,62.5l9.4,31.2l1.4,15.6l-1.4,15.6
						C504.1,503.1,504.9,501.2,506.3,497.7L506.3,497.7z"/>
					<path class="st6" d="M484.6,378.1c1,3.1,2.3,5.8,3.6,8.1c0,0,0,0,0,0h0l0,0c1.9,4.4,4.6,9.1,4.6,11.8c0.8,3.6-0.8,9-2.3,17.1
						c-1.8,7.8-2.8,16.7-1.6,25.8c1.5,9.1,4.8,16.4,7.5,22.4l0,0c3.2,7.2,5.4,12.8,6.5,18.8c1,5.5,1.1,11.8,1.2,15.1
						c0.1,3.7,0.1,5.8,0.1,5.8c1.3-6.9,2.8-13.9,2.9-20.8c0.1-6.9-1.2-13.9-2.9-20.8s-3.6-13.9-3.8-20.8c-0.2-6.9,1.5-13.9,3.8-20.8
						c2.4-6.9,5.1-13.9,5.4-20.8s-1.9-13.9-5.4-20.8"/>
				</g>
			</g>
			<g transform="rotate(225,300,300)">
				<g id="wavy-ray_18_">
					<path class="st5" d="M421.1,464.3c3.1-1.3,8.8-3.8,14.3-7.5c5.8-3.9,11.2-9.2,16.6-15.7l0,0c4.5-5.2,9-10.7,13.5-13.7
						c4.1-3,9.5-4.8,15.5-6.9c6.8-2.1,14.8-4.9,23.4-11.4c6.4-5.6,10.7-11.6,13.5-17.3l-13.8-13.8l-50.9,37.6l-15.5,28.7l-10,12
						l-12,10C415.7,466.5,417.6,465.8,421.1,464.3L421.1,464.3z"/>
					<path class="st6" d="M490.3,364.3c-1.4,2.9-2.5,5.7-3.2,8.3c0,0,0,0,0,0l0,0l0,0c-1.8,4.4-3.2,9.6-5.1,11.6
						c-1.9,3.1-6.9,5.8-13.7,10.4c-6.8,4.2-13.8,9.8-19.4,17.1c-5.4,7.5-8.2,15-10.5,21.2h0c-2.8,7.3-5.3,12.9-8.8,17.9
						c-3.2,4.6-7.6,9.1-9.8,11.5c-2.6,2.7-4.1,4.2-4.1,4.2c5.9-4,11.8-7.9,16.8-12.7c5-4.8,9-10.6,12.7-16.8
						c3.7-6.1,7.3-12.4,12-17.4c4.8-5.1,10.9-8.8,17.4-12c6.6-3.2,13.4-6.2,18.6-10.9c5.2-4.7,8.5-11.2,10.9-18.6"/>
				</g>
			</g>
			<g transform="rotate(270,300,300)">
				<g id="wavy-ray_17_">
					<path class="st5" d="M384.4,380.3c3.1,1.2,9,3.5,15.4,4.8c6.9,1.3,14.4,1.4,22.8,0.7l0,0c6.8-0.5,13.9-1.2,19.3-0.1
						c5,0.8,10.2,3.3,15.9,6.1c6.3,3.4,14,7,24.6,8.5c8.5,0.6,15.8-0.7,21.7-2.7l0-19.5l-62.5-9.4l-31.2,9.4l-15.6,1.4l-15.6-1.4
						C379,378.1,380.9,378.9,384.4,380.3L384.4,380.3z"/>
					<path class="st6" d="M504.1,358.6c-3.1,1-5.8,2.3-8.1,3.6c0,0,0,0,0,0v0l0,0c-4.4,1.9-9.1,4.6-11.8,4.6
						c-3.6,0.8-9-0.8-17.1-2.3c-7.8-1.8-16.7-2.8-25.8-1.6c-9.1,1.5-16.4,4.8-22.4,7.5l0,0c-7.2,3.2-12.8,5.4-18.8,6.5
						c-5.5,1-11.8,1.1-15.1,1.2c-3.7,0.1-5.8,0.1-5.8,0.1c6.9,1.3,13.9,2.8,20.8,2.9c6.9,0.1,13.9-1.2,20.8-2.9
						c6.9-1.7,13.9-3.6,20.8-3.8c6.9-0.2,13.9,1.5,20.8,3.8c6.9,2.4,13.9,5.1,20.8,5.4c6.9,0.4,13.9-1.9,20.8-5.4"/>
				</g>
			</g>
			<g transform="rotate(315,300,300)">
				<g id="wavy-ray_16_">
					<path class="st5" d="M417.9,295.1c1.3,3.1,3.8,8.8,7.5,14.3c3.9,5.8,9.2,11.2,15.7,16.6l0,0c5.2,4.5,10.7,9,13.7,13.5
						c3,4.1,4.8,9.5,6.9,15.5c2.1,6.8,4.9,14.8,11.4,23.4c5.6,6.4,11.6,10.7,17.3,13.5l13.8-13.8l-37.6-50.9l-28.7-15.5l-12-10
						l-10-12C415.7,289.7,416.4,291.6,417.9,295.1L417.9,295.1z"/>
					<path class="st6" d="M517.8,364.3c-2.9-1.4-5.7-2.5-8.3-3.2c0,0,0,0,0,0v0l0,0c-4.4-1.8-9.6-3.2-11.6-5.1
						c-3.1-1.9-5.8-6.9-10.4-13.7c-4.2-6.8-9.8-13.8-17.1-19.4c-7.5-5.4-15-8.2-21.2-10.5l0,0c-7.3-2.8-12.9-5.3-17.9-8.8
						c-4.6-3.2-9.1-7.6-11.5-9.8c-2.7-2.6-4.2-4.1-4.2-4.1c4,5.9,7.9,11.8,12.7,16.8c4.8,5,10.6,9,16.8,12.7
						c6.1,3.7,12.4,7.3,17.4,12c5.1,4.8,8.8,10.9,12,17.4c3.2,6.6,6.2,13.4,10.9,18.6c4.7,5.2,11.2,8.5,18.6,10.9"/>
				</g>
			</g>
		</g>
		<g id="straight-rays_2_">
			<g id="straight-ray_23_">
				<path class="st5" d="M458.7,325.2l-16,86.5l16,38.5l7.8-38.5L458.7,325.2z"/>
				<path class="st6" d="M458.7,450.2v-125l16,86.5L458.7,450.2z"/>
			</g>
			<g transform="rotate(45,300,300)">
				<g id="straight-ray_22_">
					<path class="st5" d="M547.1,361.8l-72.5,49.9l-16,38.5l32.8-21.7L547.1,361.8z"/>
					<path class="st6" d="M458.7,450.2l88.4-88.4l-49.9,72.5L458.7,450.2z"/>
				</g>
			</g>
			<g transform="rotate(90,300,300)">
				<g id="straight-ray_21_">
					<path class="st5" d="M583.7,450.2l-86.5-16l-38.5,16l38.5,7.8L583.7,450.2z"/>
					<path class="st6" d="M458.7,450.2h125l-86.5,16L458.7,450.2z"/>
				</g>
			</g>
			<g transform="rotate(135,300,300)">
				<g id="straight-ray_20_">
					<path class="st5" d="M547.1,538.7l-49.9-72.5l-38.5-16l21.7,32.8L547.1,538.7z"/>
					<path class="st6" d="M458.7,450.2l88.4,88.4l-72.5-49.9L458.7,450.2z"/>
				</g>
			</g>
			<g transform="rotate(180,300,300)">
				<g id="straight-ray_19_">
					<path class="st5" d="M458.7,575.3l16-86.5l-16-38.5l-7.8,38.5L458.7,575.3z"/>
					<path class="st6" d="M458.7,450.2v125l-16-86.5L458.7,450.2z"/>
				</g>
			</g>
			<g transform="rotate(225,300,300)">
				<g id="straight-ray_18_">
					<path class="st5" d="M370.2,538.7l72.5-49.9l16-38.5l-32.8,21.7L370.2,538.7z"/>
					<path class="st6" d="M458.7,450.2l-88.4,88.4l49.9-72.5L458.7,450.2z"/>
				</g>
			</g>
			<g transform="rotate(270,300,300)">
				<g id="straight-ray_17_">
					<path class="st5" d="M333.6,450.2l86.5,16l38.5-16l-38.5-7.8L333.6,450.2z"/>
					<path class="st6" d="M458.7,450.2h-125l86.5-16L458.7,450.2z"/>
				</g>
			</g>
			<g transform="rotate(315,300,300)">
				<g id="straight-ray_16_">
					<path class="st5" d="M370.2,361.8l49.9,72.5l38.5,16L437,417.5L370.2,361.8z"/>
					<path class="st6" d="M458.7,450.2l-88.4-88.4l72.5,49.9L458.7,450.2z"/>
				</g>
			</g>
		</g>
		<circle id="disk_2_" class="st7" cx="458.7" cy="450.2" r="41.7"/>
	</g>
</g>
<g transform="translate(300)">
	<g id="moon_2_">
		<path class="st3" d="M59.6,171.2c16.1,8.3,26.2,24.9,26.2,43c0,26.8-21.7,48.4-48.4,48.4c-7.3,0-14.4-1.7-20.9-4.8l12.6,10.7
			l28.2,7.5l38.4-17.2l13.2-46.2l-25.6-34.5l-15.7-5.9L59.6,171.2z"/>
		<path class="st4" d="M58.9,278.8c29.7,0,53.8-24.1,53.8-53.8c0-29.5-23.7-53.4-53.2-53.8c22.8,4.3,39.7,24.6,39.7,48.4
			c0,28.2-22.9,51.1-51.1,51.1c-11.9,0-23.4-4.7-31.7-12.9C26.6,271,42.3,278.8,58.9,278.8z"/>
	</g>
</g>
<g id="bg_2_">
	<path id="shield_5_" class="st2" d="M448.3,564.6"/>
</g>
<path class="st2" d="M555.9,433.5H433.4V300l162.4,0C593.5,342.8,578.1,387.6,555.9,433.5z"/>
<path class="st2" d="M300,657c48-19.7,92.4-46,133.4-78.9V433.5H300V657z"/>
<g>
	<g id="sun_1_" transform="scale(0.5)">
		<g id="wavy-rays_1_" transform="rotate(22.5,300,300)">
			<g id="wavy-ray_15_">
				<path class="st5" d="M866.1,419.7c-1.2,3.1-3.5,9-4.8,15.4c-1.3,6.9-1.4,14.4-0.7,22.8v0c0.5,6.8,1.2,13.9,0.1,19.3
					c-0.8,5-3.3,10.2-6.1,15.9c-3.4,6.3-7,14-8.5,24.6c-0.6,8.5,0.7,15.8,2.7,21.7h19.5l9.4-62.6l-9.4-31.2l-1.4-15.6l1.4-15.6
					C868.3,414.3,867.5,416.2,866.1,419.7L866.1,419.7z"/>
				<path class="st6" d="M887.8,539.3c-1-3.1-2.3-5.8-3.6-8.1c0,0,0,0,0,0h0l0,0c-1.9-4.4-4.6-9.1-4.6-11.8c-0.8-3.6,0.8-9,2.3-17.1
					c1.8-7.8,2.8-16.7,1.6-25.8c-1.5-9.1-4.8-16.4-7.5-22.4v0c-3.2-7.2-5.4-12.8-6.5-18.8c-1-5.5-1.1-11.8-1.2-15.1
					c-0.1-3.7-0.1-5.8-0.1-5.8c-1.3,6.9-2.8,13.9-2.9,20.8c-0.1,6.9,1.2,13.9,2.9,20.8c1.7,6.9,3.6,13.9,3.8,20.8
					c0.2,6.9-1.5,13.9-3.8,20.8c-2.4,6.9-5.1,13.9-5.4,20.8c-0.4,6.9,1.9,13.9,5.4,20.8"/>
			</g>
			<g transform="rotate(45,300,300)">
				<g id="wavy-ray_14_">
					<path class="st5" d="M951.3,453.2c-3.1,1.3-8.8,3.8-14.3,7.5c-5.8,3.9-11.2,9.2-16.6,15.7v0c-4.5,5.2-9,10.7-13.5,13.7
						c-4.1,3-9.5,4.8-15.5,6.9c-6.8,2.1-14.8,4.9-23.4,11.4c-6.4,5.6-10.7,11.6-13.5,17.3l13.8,13.8l50.9-37.6l15.5-28.7l10-12
						l12-10C956.7,450.9,954.8,451.7,951.3,453.2L951.3,453.2z"/>
					<path class="st6" d="M882.1,553.1c1.4-2.9,2.5-5.7,3.2-8.3c0,0,0,0,0,0l0,0l0,0c1.8-4.4,3.2-9.6,5.1-11.6
						c1.9-3.1,6.9-5.8,13.7-10.4c6.8-4.2,13.8-9.8,19.4-17.1c5.4-7.5,8.2-15,10.5-21.2l0,0c2.8-7.3,5.3-12.9,8.8-17.9
						c3.2-4.6,7.6-9.1,9.8-11.5c2.6-2.7,4.1-4.2,4.1-4.2c-5.9,4-11.8,7.9-16.8,12.7c-5,4.8-9,10.6-12.7,16.8
						c-3.7,6.1-7.3,12.4-12,17.4s-10.9,8.8-17.4,12s-13.4,6.2-18.6,10.9c-5.2,4.7-8.5,11.2-10.9,18.6"/>
				</g>
			</g>
			<g transform="rotate(90,300,300)">
				<g id="wavy-ray_13_">
					<path class="st5" d="M987.9,537.1c-3.1-1.2-9-3.5-15.4-4.8c-6.9-1.3-14.4-1.4-22.8-0.7h0c-6.8,0.5-13.9,1.2-19.3,0.1
						c-5-0.8-10.2-3.3-15.9-6.1c-6.3-3.4-14-7-24.6-8.5c-8.5-0.6-15.8,0.7-21.7,2.7v19.5l62.5,9.4l31.2-9.4l15.6-1.4l15.6,1.4
						C993.3,539.3,991.4,538.5,987.9,537.1L987.9,537.1z"/>
					<path class="st6" d="M868.3,558.8c3.1-1,5.8-2.3,8.1-3.6c0,0,0,0,0,0v0l0,0c4.4-1.9,9.1-4.6,11.8-4.6c3.6-0.8,9,0.8,17.1,2.3
						c7.8,1.8,16.7,2.8,25.8,1.6c9.1-1.5,16.4-4.8,22.4-7.5l0,0c7.2-3.2,12.8-5.4,18.8-6.5c5.5-1,11.8-1.1,15.1-1.2
						c3.7-0.1,5.8-0.1,5.8-0.1c-6.9-1.3-13.9-2.8-20.8-2.9c-6.9-0.1-13.9,1.2-20.8,2.9s-13.9,3.6-20.8,3.8s-13.9-1.5-20.8-3.8
						c-6.9-2.4-13.9-5.1-20.8-5.4c-6.9-0.4-13.9,1.9-20.8,5.4"/>
				</g>
			</g>
			<g transform="rotate(135,300,300)">
				<g id="wavy-ray_12_">
					<path class="st5" d="M954.5,622.4c-1.3-3.1-3.8-8.8-7.5-14.3c-3.9-5.8-9.2-11.2-15.7-16.6l0,0c-5.2-4.5-10.7-9-13.7-13.5
						c-3-4.1-4.8-9.5-6.9-15.5c-2.1-6.8-4.9-14.8-11.4-23.4c-5.6-6.4-11.6-10.7-17.3-13.5l-13.8,13.8l37.6,50.9l28.7,15.5l12,10
						l10,12C956.7,627.8,956,625.8,954.5,622.4L954.5,622.4z"/>
					<path class="st6" d="M854.5,553.1c2.9,1.4,5.7,2.5,8.3,3.2c0,0,0,0,0,0v0l0,0c4.4,1.8,9.6,3.2,11.6,5.1
						c3.1,1.9,5.8,6.9,10.4,13.7c4.2,6.8,9.8,13.8,17.1,19.4c7.5,5.4,15,8.2,21.2,10.5l0,0c7.3,2.8,12.9,5.3,17.9,8.8
						c4.6,3.2,9.1,7.6,11.5,9.8c2.7,2.6,4.2,4.1,4.2,4.1c-4-5.9-7.9-11.8-12.7-16.8c-4.8-5-10.6-9-16.8-12.7
						c-6.1-3.7-12.4-7.3-17.4-12c-5.1-4.8-8.8-10.9-12-17.4c-3.2-6.6-6.2-13.4-10.9-18.6s-11.2-8.5-18.6-10.9"/>
				</g>
			</g>
			<g transform="rotate(180,300,300)">
				<g id="wavy-ray_11_">
					<path class="st5" d="M870.5,659c1.2-3.1,3.5-9,4.8-15.4c1.3-6.9,1.4-14.4,0.7-22.8l0,0c-0.5-6.8-1.2-13.9-0.1-19.3
						c0.8-5,3.3-10.2,6.1-15.9c3.4-6.3,7-14,8.5-24.6c0.6-8.5-0.7-15.8-2.7-21.7h-19.5l-9.4,62.5l9.4,31.2l1.4,15.6l-1.4,15.6
						C868.3,664.4,869.1,662.5,870.5,659L870.5,659z"/>
					<path class="st6" d="M848.8,539.3c1,3.1,2.3,5.8,3.6,8.1c0,0,0,0,0,0l0,0l0,0c1.9,4.4,4.6,9.1,4.6,11.8c0.8,3.6-0.8,9-2.3,17.1
						c-1.8,7.8-2.8,16.7-1.6,25.8c1.5,9.1,4.8,16.4,7.5,22.4l0,0c3.2,7.2,5.4,12.8,6.5,18.8c1,5.5,1.1,11.8,1.2,15.1
						c0.1,3.7,0.1,5.8,0.1,5.8c1.3-6.9,2.8-13.9,2.9-20.8c0.1-6.9-1.2-13.9-2.9-20.8s-3.6-13.9-3.8-20.8c-0.2-6.9,1.5-13.9,3.8-20.8
						c2.4-6.9,5.1-13.9,5.4-20.8c0.4-6.9-1.9-13.9-5.4-20.8"/>
				</g>
			</g>
			<g transform="rotate(225,300,300)">
				<g id="wavy-ray_10_">
					<path class="st5" d="M785.3,625.5c3.1-1.3,8.8-3.8,14.3-7.5c5.8-3.9,11.2-9.2,16.6-15.7l0,0c4.5-5.2,9-10.7,13.5-13.7
						c4.1-3,9.5-4.8,15.5-6.9c6.8-2.1,14.8-4.9,23.4-11.4c6.4-5.6,10.7-11.6,13.5-17.3l-13.8-13.8l-50.9,37.6L802,605.7l-10,12
						l-12,10C779.9,627.8,781.8,627,785.3,625.5L785.3,625.5z"/>
					<path class="st6" d="M854.5,525.6c-1.4,2.9-2.5,5.7-3.2,8.3c0,0,0,0,0,0h0l0,0c-1.8,4.4-3.2,9.6-5.1,11.6
						c-1.9,3.1-6.9,5.8-13.7,10.4c-6.8,4.2-13.8,9.8-19.4,17.1c-5.4,7.5-8.2,15-10.5,21.2l0,0c-2.8,7.3-5.3,12.9-8.8,17.9
						c-3.2,4.6-7.6,9.1-9.8,11.5c-2.6,2.7-4.1,4.2-4.1,4.2c5.9-4,11.8-7.9,16.8-12.7c5-4.8,9-10.6,12.7-16.8
						c3.7-6.1,7.3-12.4,12-17.4c4.8-5.1,10.9-8.8,17.4-12s13.4-6.2,18.6-10.9c5.2-4.7,8.5-11.2,10.9-18.6"/>
				</g>
			</g>
			<g transform="rotate(270,300,300)">
				<g id="wavy-ray_9_">
					<path class="st5" d="M748.7,541.6c3.1,1.2,9,3.5,15.4,4.8c6.9,1.3,14.4,1.4,22.8,0.7h0c6.8-0.5,13.9-1.2,19.3-0.1
						c5,0.8,10.2,3.3,15.9,6.1c6.3,3.4,14,7,24.6,8.5c8.5,0.6,15.8-0.7,21.7-2.7v-19.5l-62.5-9.4l-31.2,9.4l-15.6,1.4l-15.6-1.4
						C743.2,539.3,745.2,540.2,748.7,541.6L748.7,541.6z"/>
					<path class="st6" d="M868.3,519.9c-3.1,1-5.8,2.3-8.1,3.6c0,0,0,0,0,0l0,0l0,0c-4.4,1.9-9.1,4.6-11.8,4.6
						c-3.6,0.8-9-0.8-17.1-2.3c-7.8-1.8-16.7-2.8-25.8-1.6c-9.1,1.5-16.4,4.8-22.4,7.5l0,0c-7.2,3.2-12.8,5.4-18.8,6.5
						c-5.5,1-11.8,1.1-15.1,1.2c-3.7,0.1-5.8,0.1-5.8,0.1c6.9,1.3,13.9,2.8,20.8,2.9c6.9,0.1,13.9-1.2,20.8-2.9s13.9-3.6,20.8-3.8
						c6.9-0.2,13.9,1.5,20.8,3.8c6.9,2.4,13.9,5.1,20.8,5.4c6.9,0.4,13.9-1.9,20.8-5.4"/>
				</g>
			</g>
			<g transform="rotate(315,300,300)">
				<g id="wavy-ray_8_">
					<path class="st5" d="M782.1,456.3c1.3,3.1,3.8,8.8,7.5,14.3c3.9,5.8,9.2,11.2,15.7,16.6v0c5.2,4.5,10.7,9,13.7,13.5
						c3,4.1,4.8,9.5,6.9,15.5c2.1,6.8,4.9,14.8,11.4,23.4c5.6,6.4,11.6,10.7,17.3,13.5l13.8-13.8l-37.6-50.9L802,473l-12-10l-10-12
						C779.9,450.9,780.6,452.9,782.1,456.3L782.1,456.3z"/>
					<path class="st6" d="M882.1,525.6c-2.9-1.4-5.7-2.5-8.3-3.2c0,0,0,0,0,0h0l0,0c-4.4-1.8-9.6-3.2-11.6-5.1
						c-3.1-1.9-5.8-6.9-10.4-13.7c-4.2-6.8-9.8-13.8-17.1-19.4c-7.5-5.4-15-8.2-21.2-10.5l0,0c-7.3-2.8-12.9-5.3-17.9-8.8
						c-4.6-3.2-9.1-7.6-11.5-9.8c-2.7-2.6-4.2-4.1-4.2-4.1c4,5.9,7.9,11.8,12.7,16.8c4.8,5,10.6,9,16.8,12.7
						c6.1,3.7,12.4,7.3,17.4,12c5.1,4.8,8.8,10.9,12,17.4c3.2,6.6,6.2,13.4,10.9,18.6c4.7,5.2,11.2,8.5,18.6,10.9"/>
				</g>
			</g>
		</g>
		<g id="straight-rays_1_">
			<g id="straight-ray_15_">
				<path class="st5" d="M733.4,613.6l-16,86.5l16,38.5l7.8-38.5L733.4,613.6z"/>
				<path class="st6" d="M733.4,738.6v-125l16,86.5L733.4,738.6z"/>
			</g>
			<g transform="rotate(45,300,300)">
				<g id="straight-ray_14_">
					<path class="st5" d="M821.9,650.2l-72.5,49.9l-16,38.5l32.8-21.7L821.9,650.2z"/>
					<path class="st6" d="M733.4,738.6l88.4-88.4L772,722.7L733.4,738.6z"/>
				</g>
			</g>
			<g transform="rotate(90,300,300)">
				<g id="straight-ray_13_">
					<path class="st5" d="M858.5,738.6l-86.5-16l-38.5,16l38.5,7.8L858.5,738.6z"/>
					<path class="st6" d="M733.4,738.6h125l-86.5,16L733.4,738.6z"/>
				</g>
			</g>
			<g transform="rotate(135,300,300)">
				<g id="straight-ray_12_">
					<path class="st5" d="M821.9,827L772,754.6l-38.5-16l21.7,32.8L821.9,827z"/>
					<path class="st6" d="M733.4,738.6l88.4,88.4l-72.5-49.9L733.4,738.6z"/>
				</g>
			</g>
			<g transform="rotate(180,300,300)">
				<g id="straight-ray_11_">
					<path class="st5" d="M733.4,863.7l16-86.5l-16-38.5l-7.8,38.5L733.4,863.7z"/>
					<path class="st6" d="M733.4,738.6v125l-16-86.5L733.4,738.6z"/>
				</g>
			</g>
			<g transform="rotate(225,300,300)">
				<g id="straight-ray_10_">
					<path class="st5" d="M645,827l72.5-49.9l16-38.5l-32.8,21.7L645,827z"/>
					<path class="st6" d="M733.4,738.6L645,827l49.9-72.5L733.4,738.6z"/>
				</g>
			</g>
			<g transform="rotate(270,300,300)">
				<g id="straight-ray_9_">
					<path class="st5" d="M608.4,738.6l86.5,16l38.5-16l-38.5-7.8L608.4,738.6z"/>
					<path class="st6" d="M733.4,738.6h-125l86.5-16L733.4,738.6z"/>
				</g>
			</g>
			<g transform="rotate(315,300,300)">
				<g id="straight-ray_8_">
					<path class="st5" d="M645,650.2l49.9,72.5l38.5,16l-21.7-32.8L645,650.2z"/>
					<path class="st6" d="M733.4,738.6L645,650.2l72.5,49.9L733.4,738.6z"/>
				</g>
			</g>
		</g>
		<circle id="disk_1_" class="st7" cx="733.4" cy="738.6" r="41.7"/>
	</g>
</g>
<g transform="translate(300)">
	<g id="moon_1_">
		<path class="st3" d="M506.4,308c16.1,8.3,26.2,24.9,26.2,43c0,26.8-21.7,48.4-48.4,48.4c-7.3,0-14.4-1.7-20.9-4.8l12.6,10.7
			l28.2,7.5l38.4-17.2l13.2-46.2L530,315l-15.7-5.9L506.4,308z"/>
		<path class="st4" d="M505.7,415.7c29.7,0,53.8-24.1,53.8-53.8c0-29.5-23.7-53.4-53.2-53.8c22.8,4.3,39.7,24.6,39.7,48.4
			c0,28.2-22.9,51.1-51.1,51.1c-11.9,0-23.4-4.7-31.7-12.9C473.4,407.9,489.1,415.6,505.7,415.7z"/>
	</g>
</g>
<g transform="translate(300)">
	<g id="moon_3_">
		<path class="st3" d="M361.6,466.7c16.1,8.3,26.2,24.9,26.2,43c0,26.8-21.7,48.4-48.4,48.4c-7.3,0-14.4-1.7-20.9-4.8l12.6,10.7
			l28.2,7.5l38.4-17.2l13.2-46.2l-25.6-34.5l-15.7-5.9L361.6,466.7z"/>
		<path class="st4" d="M360.9,574.4c29.7,0,53.8-24.1,53.8-53.8c0-29.5-23.7-53.4-53.2-53.8c22.8,4.3,39.7,24.6,39.7,48.4
			c0,28.2-22.9,51.1-51.1,51.1c-11.9,0-23.4-4.7-31.7-12.9C328.6,566.6,344.3,574.3,360.9,574.4z"/>
	</g>
</g>
<g>
	<g id="sun_3_" transform="scale(0.5)">
		<g id="wavy-rays_3_" transform="rotate(22.5,300,300)">
			<g id="wavy-ray_31_">
				<path class="st5" d="M1159.6,584.9c-0.8,1.9-2.2,5.6-3,9.5c-0.8,4.3-0.9,8.9-0.4,14.2l0,0c0.3,4.2,0.8,8.6,0.1,11.9
					c-0.5,3.1-2.1,6.3-3.8,9.8c-2.1,3.9-4.3,8.7-5.3,15.3c-0.4,5.2,0.4,9.8,1.7,13.5h12.1l5.8-38.8l-5.8-19.4l-0.9-9.7l0.9-9.7
					C1161,581.5,1160.5,582.7,1159.6,584.9L1159.6,584.9z"/>
				<path class="st6" d="M1173.1,659.1c-0.6-1.9-1.4-3.6-2.2-5c0,0,0,0,0,0h0l0,0c-1.2-2.7-2.8-5.6-2.9-7.3
					c-0.5-2.2,0.5-5.6,1.5-10.6c1.1-4.8,1.7-10.3,1-16c-0.9-5.6-3-10.2-4.7-13.9l0,0c-2-4.5-3.3-8-4-11.7c-0.6-3.4-0.7-7.3-0.7-9.4
					c0-2.3,0-3.6,0-3.6c-0.8,4.3-1.7,8.6-1.8,12.9c-0.1,4.3,0.7,8.6,1.8,12.9s2.3,8.6,2.4,12.9c0.1,4.3-0.9,8.6-2.4,12.9
					s-3.2,8.6-3.4,12.9c-0.2,4.3,1.2,8.6,3.4,12.9"/>
			</g>
			<g transform="rotate(45,300,300)">
				<g id="wavy-ray_30_">
					<path class="st5" d="M1212.5,605.6c-1.9,0.8-5.5,2.4-8.8,4.6c-3.6,2.4-6.9,5.7-10.3,9.7l0,0c-2.8,3.2-5.6,6.6-8.4,8.5
						c-2.6,1.9-5.9,3-9.6,4.3c-4.2,1.3-9.2,3.1-14.5,7c-4,3.5-6.6,7.2-8.3,10.7l8.5,8.5l31.5-23.3l9.6-17.8l6.2-7.5l7.5-6.2
						C1215.8,604.2,1214.6,604.7,1212.5,605.6L1212.5,605.6z"/>
					<path class="st6" d="M1169.6,667.6c0.9-1.8,1.5-3.5,2-5.1c0,0,0,0,0,0l0,0l0,0c1.1-2.7,2-6,3.2-7.2c1.2-1.9,4.3-3.6,8.5-6.5
						c4.2-2.6,8.5-6.1,12-10.6c3.3-4.6,5.1-9.3,6.5-13.1l0,0c1.8-4.6,3.3-8,5.4-11.1c2-2.9,4.7-5.7,6.1-7.1c1.6-1.7,2.5-2.6,2.5-2.6
						c-3.6,2.5-7.3,4.9-10.4,7.9c-3.1,3-5.6,6.6-7.9,10.4c-2.3,3.8-4.5,7.7-7.5,10.8c-3,3.1-6.7,5.4-10.8,7.5
						c-4.1,2-8.3,3.9-11.5,6.7s-5.3,6.9-6.7,11.5"/>
				</g>
			</g>
			<g transform="rotate(90,300,300)">
				<g id="wavy-ray_29_">
					<path class="st5" d="M1235.2,657.7c-1.9-0.8-5.6-2.2-9.5-3c-4.3-0.8-8.9-0.9-14.2-0.4l0,0c-4.2,0.3-8.6,0.8-11.9,0.1
						c-3.1-0.5-6.3-2.1-9.8-3.8c-3.9-2.1-8.7-4.3-15.3-5.3c-5.2-0.4-9.8,0.4-13.5,1.7v12.1l38.8,5.8l19.4-5.8l9.7-0.9l9.7,0.9
						C1238.6,659.1,1237.4,658.5,1235.2,657.7L1235.2,657.7z"/>
					<path class="st6" d="M1161,671.1c1.9-0.6,3.6-1.4,5-2.2c0,0,0,0,0,0l0,0l0,0c2.7-1.2,5.6-2.8,7.3-2.9c2.2-0.5,5.6,0.5,10.6,1.5
						c4.8,1.1,10.3,1.7,16,1c5.6-0.9,10.2-3,13.9-4.7l0,0c4.5-2,8-3.3,11.7-4c3.4-0.6,7.3-0.7,9.4-0.7c2.3,0,3.6,0,3.6,0
						c-4.3-0.8-8.6-1.7-12.9-1.8c-4.3-0.1-8.6,0.7-12.9,1.8c-4.3,1.1-8.6,2.3-12.9,2.4s-8.6-0.9-12.9-2.4s-8.6-3.2-12.9-3.4
						s-8.6,1.2-12.9,3.4"/>
				</g>
			</g>
			<g transform="rotate(135,300,300)">
				<g id="wavy-ray_28_">
					<path class="st5" d="M1214.5,710.5c-0.8-1.9-2.4-5.5-4.6-8.8c-2.4-3.6-5.7-6.9-9.7-10.3l0,0c-3.2-2.8-6.6-5.6-8.5-8.4
						c-1.9-2.6-3-5.9-4.3-9.6c-1.3-4.2-3.1-9.2-7-14.5c-3.5-4-7.2-6.6-10.7-8.3l-8.5,8.5l23.3,31.5l17.8,9.6l7.5,6.2l6.2,7.5
						C1215.8,713.9,1215.4,712.7,1214.5,710.5L1214.5,710.5z"/>
					<path class="st6" d="M1152.5,667.6c1.8,0.9,3.5,1.5,5.1,2c0,0,0,0,0,0l0,0l0,0c2.7,1.1,6,2,7.2,3.2c1.9,1.2,3.6,4.3,6.5,8.5
						c2.6,4.2,6.1,8.5,10.6,12c4.6,3.3,9.3,5.1,13.1,6.5l0,0c4.6,1.8,8,3.3,11.1,5.4c2.9,2,5.7,4.7,7.1,6.1c1.7,1.6,2.6,2.5,2.6,2.5
						c-2.5-3.6-4.9-7.3-7.9-10.4c-3-3.1-6.6-5.6-10.4-7.9c-3.8-2.3-7.7-4.5-10.8-7.5c-3.1-3-5.4-6.7-7.5-10.8
						c-2-4.1-3.9-8.3-6.7-11.5c-2.9-3.2-6.9-5.3-11.5-6.7"/>
				</g>
			</g>
			<g transform="rotate(180,300,300)">
				<g id="wavy-ray_27_">
					<path class="st5" d="M1162.4,733.2c0.8-1.9,2.2-5.6,3-9.5c0.8-4.3,0.9-8.9,0.4-14.2l0,0c-0.3-4.2-0.8-8.6-0.1-11.9
						c0.5-3.1,2.1-6.3,3.8-9.8c2.1-3.9,4.3-8.7,5.3-15.3c0.4-5.2-0.4-9.8-1.7-13.5H1161l-5.8,38.8l5.8,19.4l0.9,9.7l-0.9,9.7
						C1161,736.6,1161.5,735.4,1162.4,733.2L1162.4,733.2z"/>
					<path class="st6" d="M1149,659.1c0.6,1.9,1.4,3.6,2.2,5c0,0,0,0,0,0h0l0,0c1.2,2.7,2.8,5.6,2.9,7.3c0.5,2.2-0.5,5.6-1.5,10.6
						c-1.1,4.8-1.7,10.3-1,16c0.9,5.6,3,10.2,4.7,13.9l0,0c2,4.5,3.3,8,4,11.7c0.6,3.4,0.7,7.3,0.7,9.4c0,2.3,0,3.6,0,3.6
						c0.8-4.3,1.7-8.6,1.8-12.9c0.1-4.3-0.7-8.6-1.8-12.9s-2.3-8.6-2.4-12.9c-0.1-4.3,0.9-8.6,2.4-12.9c1.5-4.3,3.2-8.6,3.4-12.9
						c0.2-4.3-1.2-8.6-3.4-12.9"/>
				</g>
			</g>
			<g transform="rotate(225,300,300)">
				<g id="wavy-ray_26_">
					<path class="st5" d="M1109.5,712.5c1.9-0.8,5.5-2.4,8.8-4.6c3.6-2.4,6.9-5.7,10.3-9.7l0,0c2.8-3.2,5.6-6.6,8.4-8.5
						c2.6-1.9,5.9-3,9.6-4.3c4.2-1.3,9.2-3.1,14.5-7c4-3.5,6.6-7.2,8.3-10.7l-8.5-8.5l-31.5,23.3l-9.6,17.8l-6.2,7.5l-7.5,6.2
						C1106.2,713.9,1107.4,713.4,1109.5,712.5L1109.5,712.5z"/>
					<path class="st6" d="M1152.5,650.5c-0.9,1.8-1.5,3.5-2,5.1c0,0,0,0,0,0h0l0,0c-1.1,2.7-2,6-3.2,7.2c-1.2,1.9-4.3,3.6-8.5,6.5
						c-4.2,2.6-8.5,6.1-12,10.6c-3.3,4.6-5.1,9.3-6.5,13.1l0,0c-1.8,4.6-3.3,8-5.4,11.1c-2,2.9-4.7,5.7-6.1,7.1
						c-1.6,1.7-2.5,2.6-2.5,2.6c3.6-2.5,7.3-4.9,10.4-7.9c3.1-3,5.6-6.6,7.9-10.4s4.5-7.7,7.5-10.8c3-3.1,6.7-5.4,10.8-7.5
						c4.1-2,8.3-3.9,11.5-6.7s5.3-6.9,6.7-11.5"/>
				</g>
			</g>
			<g transform="rotate(270,300,300)">
				<g id="wavy-ray_25_">
					<path class="st5" d="M1086.8,660.4c1.9,0.8,5.6,2.2,9.5,3c4.3,0.8,8.9,0.9,14.2,0.4l0,0c4.2-0.3,8.6-0.8,11.9-0.1
						c3.1,0.5,6.3,2.1,9.8,3.8c3.9,2.1,8.7,4.3,15.3,5.3c5.2,0.4,9.8-0.4,13.5-1.7v-12.1l-38.8-5.8l-19.4,5.8l-9.7,0.9l-9.7-0.9
						C1083.5,659.1,1084.7,659.6,1086.8,660.4L1086.8,660.4z"/>
					<path class="st6" d="M1161,647c-1.9,0.6-3.6,1.4-5,2.2c0,0,0,0,0,0l0,0l0,0c-2.7,1.2-5.6,2.8-7.3,2.9
						c-2.2,0.5-5.6-0.5-10.6-1.5c-4.8-1.1-10.3-1.7-16-1c-5.6,0.9-10.2,3-13.9,4.7l0,0c-4.5,2-8,3.3-11.7,4
						c-3.4,0.6-7.3,0.7-9.4,0.7c-2.3,0-3.6,0-3.6,0c4.3,0.8,8.6,1.7,12.9,1.8c4.3,0.1,8.6-0.7,12.9-1.8c4.3-1.1,8.6-2.3,12.9-2.4
						s8.6,0.9,12.9,2.4s8.6,3.2,12.9,3.4s8.6-1.2,12.9-3.4"/>
				</g>
			</g>
			<g transform="rotate(315,300,300)">
				<g id="wavy-ray_24_">
					<path class="st5" d="M1107.6,607.6c0.8,1.9,2.4,5.5,4.6,8.8c2.4,3.6,5.7,6.9,9.7,10.3l0,0c3.2,2.8,6.6,5.6,8.5,8.4
						c1.9,2.6,3,5.9,4.3,9.6c1.3,4.2,3.1,9.2,7,14.5c3.5,4,7.2,6.6,10.7,8.3l8.5-8.5l-23.3-31.5l-17.8-9.6l-7.5-6.2l-6.2-7.5
						C1106.2,604.2,1106.7,605.4,1107.6,607.6L1107.6,607.6z"/>
					<path class="st6" d="M1169.6,650.5c-1.8-0.9-3.5-1.5-5.1-2c0,0,0,0,0,0l0,0l0,0c-2.7-1.1-6-2-7.2-3.2c-1.9-1.2-3.6-4.3-6.5-8.5
						c-2.6-4.2-6.1-8.5-10.6-12c-4.6-3.3-9.3-5.1-13.1-6.5l0,0c-4.6-1.8-8-3.3-11.1-5.4c-2.9-2-5.7-4.7-7.1-6.1
						c-1.7-1.6-2.6-2.5-2.6-2.5c2.5,3.6,4.9,7.3,7.9,10.4c3,3.1,6.6,5.6,10.4,7.9c3.8,2.3,7.7,4.5,10.8,7.5c3.1,3,5.4,6.7,7.5,10.8
						c2,4.1,3.9,8.3,6.7,11.5c2.9,3.2,6.9,5.3,11.5,6.7"/>
				</g>
			</g>
		</g>
		<g id="straight-rays_3_">
			<g id="straight-ray_31_">
				<path class="st5" d="M958.1,883.7l-9.9,53.7l9.9,23.9l4.8-23.9L958.1,883.7z"/>
				<path class="st6" d="M958.1,961.2v-77.5l9.9,53.7L958.1,961.2z"/>
			</g>
			<g transform="rotate(45,300,300)">
				<g id="straight-ray_30_">
					<path class="st5" d="M1012.9,906.4L968,937.4l-9.9,23.9l20.3-13.5L1012.9,906.4z"/>
					<path class="st6" d="M958.1,961.2l54.8-54.8L982,951.3L958.1,961.2z"/>
				</g>
			</g>
			<g transform="rotate(90,300,300)">
				<g id="straight-ray_29_">
					<path class="st5" d="M1035.6,961.2l-53.7-9.9l-23.9,9.9l23.9,4.8L1035.6,961.2z"/>
					<path class="st6" d="M958.1,961.2h77.5l-53.7,9.9L958.1,961.2z"/>
				</g>
			</g>
			<g transform="rotate(135,300,300)">
				<g id="straight-ray_28_">
					<path class="st5" d="M1012.9,1016.1L982,971.1l-23.9-9.9l13.5,20.3L1012.9,1016.1z"/>
					<path class="st6" d="M958.1,961.2l54.8,54.8L968,985.1L958.1,961.2z"/>
				</g>
			</g>
			<g transform="rotate(180,300,300)">
				<g id="straight-ray_27_">
					<path class="st5" d="M958.1,1038.8l9.9-53.7l-9.9-23.9l-4.8,23.9L958.1,1038.8z"/>
					<path class="st6" d="M958.1,961.2v77.5l-9.9-53.7L958.1,961.2z"/>
				</g>
			</g>
			<g transform="rotate(225,300,300)">
				<g id="straight-ray_26_">
					<path class="st5" d="M903.3,1016.1l44.9-30.9l9.9-23.9l-20.3,13.5L903.3,1016.1z"/>
					<path class="st6" d="M958.1,961.2l-54.8,54.8l30.9-44.9L958.1,961.2z"/>
				</g>
			</g>
			<g transform="rotate(270,300,300)">
				<g id="straight-ray_25_">
					<path class="st5" d="M880.5,961.2l53.7,9.9l23.9-9.9l-23.9-4.8L880.5,961.2z"/>
					<path class="st6" d="M958.1,961.2h-77.5l53.7-9.9L958.1,961.2z"/>
				</g>
			</g>
			<g transform="rotate(315,300,300)">
				<g id="straight-ray_24_">
					<path class="st5" d="M903.3,906.4l30.9,44.9l23.9,9.9l-13.5-20.3L903.3,906.4z"/>
					<path class="st6" d="M958.1,961.2l-54.8-54.8l44.9,30.9L958.1,961.2z"/>
				</g>
			</g>
		</g>
		<circle id="disk_3_" class="st7" cx="958.1" cy="961.2" r="25.8"/>
	</g>
</g>
<g>
	<path class="st8" d="M418.4,225c0,0-0.1,1.1-0.5,1.7c-0.6,1-1.7,2.3-2.9,2.7c-1.5,0.8-2.9,0.3-4.3,0.1c-1-0.7-2.6-2.4-2.6-2.4
		s-1.7,2.7-3.3,3.4c-1.5,0.7-3.5,0.7-5.2,0.2c-1.9-0.4-3.5-2-4.2-3.6c-0.4-1.2,0-3.1,0-3.1s-2,0.6-2.9,0.5c-1.4,0.1-2.8-0.3-3.6-1.2
		c-1.3-1.6-1.5-3-1.1-5c0.2-0.8,1.7-2.1,1.7-2.1s-0.9-1.3-1.1-1.8c-0.4-1.2,0.3-2.6,0.3-2.6c0-1.1,1.6-2.3,3.1-2.2
		c3.7-0.1,5.4,2.4,9.3,3.4c7.6,1.2,14.9-1.7,20.7-6.5c1.8-1.8,3.3-3.9,4.5-6.4c1-1.8,1.4-5,1.4-7.3c-0.5-3.8-2.7-6.9-3.7-11
		c-0.3-1.8-0.6-6.4-0.6-6.4s-2.5,1.4-2.9,2.5c-0.4,1.1-0.1,3.4-0.5,4.8c-0.5,1.1-1.4,1.8-2.6,2c-1.2,0.7-2.6,0-3.8,0.8
		c-0.9,0.3-2,2.3-2,2.3s-0.3-2,0-2.8c0.8-2,3.2-2.8,3.7-4.5c0.1-1.7-0.9-2.4-1.3-3.9c-0.4-1.1-0.3-2-0.2-2.9c0.5-2,3.7-4.2,3.7-4.2
		s-0.6-0.3-1.1-0.7c-0.5-0.3-2.3,0-2.3,0c4.1-5.6,6-6.7,12.7-5.1c0,0,0.2-2,0.7-3.7c0.4-1.4,0.9-3,2.2-4c0.9-0.4,2.4-1.5,2.4-1.5
		s1.1-1.6,1.5-2.4c0.7-1.9,2-3.2,3.9-3.9c1.9-1.2,3.6-1.3,5.9-1c7.3,1.2,14.3,2.5,21.8,0l3.9,38.5c-5.1-1.2-10.8-1-15.6-2.4
		c-1.7-0.4-4.9-2.8-6.5-4.2c0,0,0.2,3.8-0.7,6.6c-1.2,2.1-3.1,4.8-2.4,7.5c0.5,1.1,1.8,2.2,3.1,3.5c1,1.3,1.7,3.1,1.7,4.8
		c0.1,1.1,0,2.9-0.9,3.3c-3.7,2.1-7.7,3.8-8.8,6.5c-1.1,4.8-0.7,8.6-5.3,10.9c0.5-2.3,0.1-3.8-0.8-5.6c-0.5,4.2-1.5,5.9-4.4,8.4
		c0-2.5,0-4.6-0.6-6.7c-1.1,4.5-2.3,7.2-6.6,8.8c1.1-2.2,1.4-4.2,0.5-6.6C420.5,222.1,420.7,224.7,418.4,225L418.4,225z"/>
	<path class="st1" d="M391.3,215.5c0.8-0.1,1.7,0.1,2.8,0c0.8,0.3,1.6,0.8,2.6,0.5c1.1,0.1,3.2-0.4,3.2-0.4c-0.7,1-2.8,1.1-3.3,1
		c-0.9,0.2-1.7-0.2-2.8-0.3c-0.8-0.3-1.7-0.7-2.5-0.6c-0.3,0-0.9,0.2-1.2,0.1c-0.2,0.3-0.5,0.2-0.5,0.2l-1-1.2c0,0,0.7,0.9,1.4,0.5
		C390.1,215.3,390.7,215.4,391.3,215.5L391.3,215.5z M402.6,219.1c0,0-0.3,0.5-0.6,0.8c-0.6,0.2-0.9,0.5-1.6,0.9
		c-0.5,0.2-1.7,0.1-2.3,0.3c-0.6,0.2-1.2,0.7-1.8,0.9c0,0.2-0.4,0.8-0.5,1.4c-0.3,0.5-0.3,0.8-0.3,0.8l-2.3,0.3c0,0,1.5-0.7,1.8-1.2
		c0-0.3,0.6-0.8,1-1.5c0.5-0.2,1.2-0.8,1.8-1c0.9-0.4,2.1-0.3,2.7-0.5c0.3-0.2,0.9-0.5,1.2-0.7L402.6,219.1z M412.3,220.3
		c-2,0-3.3,1.3-3.9,2.3c-0.8,1.4-1,2.8,0,4.7l-0.6,0.5c-0.9-1.6-0.7-3.9,0.1-5.2C409.9,219.4,412,220.2,412.3,220.3z M417.8,222.8
		c0.5,0.4,0.4,1,0.7,1.2c-0.1,0.6,0.1,0.9,0.1,0.9l-0.5,0.2c0,0,0-0.5-0.2-0.9c0-0.5-0.1-1.2-0.4-1.5c-0.2-0.6-1.8-1.6-1.8-1.6
		C416.5,221.3,417.8,222.5,417.8,222.8z"/>
	<path class="st1" d="M423.2,171.7c0,0-1,0.5-1.6,0.9c-0.6,0.5-1.3,1-1.9,1.3c-0.3,0.7-1.1,1.8-1.1,2.7c-0.3,0.6-0.1,1.4-0.2,2
		c0.2,0.9,0.1,1.5,0,2.3c-0.1,0.8-0.5,1.6-1.4,2.1c-0.3,0.2-0.9,0.4-1.2,0.4c-0.5-0.1-1.2-0.1-1.2,0.1c-0.9,0.4-1.4,0.3-1.8,0.9
		c-0.4,0.2-0.4,0.8-0.8,1.6c0,0.6,0,0.9,0,0.9l-0.7,0.2c0,0,0.1-0.6,0.5-1.1c0.1-0.8,0.4-1.6,0.7-1.9c0.6-0.5,1.2-0.7,1.9-1.1
		c0.3,0,0.9,0,1.1,0.1c0.5,0,0.8,0.1,1.2-0.4c0.6-0.4,1-1,1.4-2.1c0-0.6-0.2-1.2-0.1-2.1c-0.2-0.6-0.1-1.4,0-2
		c0.4-0.8,0.8-1.9,1.5-3c0.7-0.5,1.2-0.7,1.9-1.2L423.2,171.7z"/>
	<path class="st9" d="M416.1,227.1c0.1-0.9-1.6-1.1-2.7-1c-0.9,0.5-2.9,2-2.1,2.9c1.8,2,1.7,4.6,1.5,6.9
		C415.9,233.8,416.9,230.5,416.1,227.1L416.1,227.1z M396.1,225.8c0.4-0.7,2.1-0.5,2.9,0.3c1.1,0.8,1.9,2.8,0.8,3.3
		c-2.5,1.1-3.3,3.6-4.2,5.8C393.7,232.1,394,228.8,396.1,225.8L396.1,225.8z M388.3,218.3c1-0.5,1.7,0.7,1.9,1.9
		c0.4,1.2-0.4,3.4-1.5,3c-2.5-0.6-4.9,0.6-6.9,1.8C382.2,221.3,384.8,219.1,388.3,218.3z M390.2,210.2c0.8-0.2,1.5,1.3,1.4,2.4
		c-0.1,1.1-1.5,3.2-2.3,2.6c-2.2-1.4-4.8-0.8-7.1,0C383.5,211.7,386.6,210.1,390.2,210.2z"/>
	<path class="st8" d="M397,43.3c-2.6-2-7-1-9.3,1.9c-0.5-2.4-2.1-3.7-3.9-4.1c-3.5-0.9-8.1,1.9-6.8,6.4c0.3,1.2,2.8,2.1,2.5,3.4
		c0,0-0.2,1.3-0.2,2c0,0.6,0.2,1.4,0.2,1.4s-2.6-1.3-3.6-1.1c-6.2,1.3-4.9,10.8,1.2,11c1.1,0,2.1,0.1,3.3,0.1
		c1.5-0.3,3.9,0.4,4.1,1.2c0.1,0.2,0.2,0.8,0.3,1.1c3.9,2.3,3.8,6,0.6,7.4c4.5,1.1,5.6,1.1,9.9-0.2l0.1,0.1
		c-0.8,2.5-1.9,4.8-3.9,6.1c3.7,1.5,8.3-1.9,11.4-2.2c0.3,1.7,0.1,3.4,0.8,4.9c0.5,1.3,1.3,2.6,2.7,3.6c0.5-2.5,1.1-3.9,3.7-4.8
		c-1.9,5.6-1.6,9.1,2.1,13.8c-0.3-3.9,1.6-2.8,4.3-7.1c-1,4.9-1.6,9.4,2.9,12.9c0-2.2,0.2-4.3,2-5.8c-0.2,4.8,0.3,8.7,4.6,11.7
		c0-2.6,0.1-4.6,2.4-6.2c-0.1,4.7,1,8.2,5.1,10.8c-1.2-3.7,1.4-3.7,1.6-7.5c0,0,4.5,9.3,7,11.4c3.5,3.1,8.7,8.8,8.7,8.8l9.6-23.9
		c-9.5-7.2-11.9-14.7-21.6-21.6c-15.5-2-31.1-11.9-41.2-24.2c-0.2-1.3-0.5-4.3,0.1-5.7c0.5-1,1.2-2,0.7-3.3
		C398.3,44.8,397.8,43.9,397,43.3L397,43.3z"/>
	<path class="st1" d="M379.6,54.2c0,0,1.8,0.9,2.4,1.2l4.1,1.5c0,0-3.2-0.4-4.5-1c-0.7-0.4-2.4-1.4-2.4-1.4L379.6,54.2z M387.8,45.3
		c0,0,0.8,0.8,1,2.6c0.2,2,0.3,3.6,1.6,5.3c0.5,0.8,2.3,2.3,2.3,2.3c-1.8-0.9-2.9-2.1-3.8-3.5c-0.7-1.3-0.4-3-0.7-4.2
		c-0.3-1.8-0.6-2-0.6-2L387.8,45.3z"/>
	<path class="st9" d="M375.3,54.6c1,0.1,1.1,1.5,0.8,2.7c-0.4,1.1-2.1,2.8-2.9,2c-1.8-1.9-4.5-1.9-6.9-1.6
		C368.4,54.8,371.8,53.7,375.3,54.6z M382.7,41.7c0.9,0.6,0.4,2-0.5,2.8c-0.8,0.8-3,1.5-3.4,0.6c-0.8-2.5-3.1-3.8-5.5-4.5
		C376.6,38.8,380,39.5,382.7,41.7z M397.1,45c0.1,1-1.4,1.5-2.5,1.3c-1.2-0.1-3.1-1.4-2.5-2.3c1.3-2.2,0.9-4.8,0.2-7.1
		C395.5,38.3,397.2,41.5,397.1,45L397.1,45z"/>
	<path id="groin" class="st8" d="M461.4,150.5l5.1,9c0,0-1.7,5.2-4.2,6.6c-0.1-3.7-3-8.2-4.6-11.6
		C457.1,152.8,460.1,151.3,461.4,150.5L461.4,150.5z"/>
	<path class="st8" d="M525.2,214.6c-1.7-0.3-2.8-0.8-4.3-0.6c-2.4-0.7-5-1.3-7-2.9c-4.1-2.6-6.8-6.9-8.9-10.8
		c-3-5.3-4.4-12.3-6.8-17.5c-1.8-3.8-3.8-7-5.4-10.4c-1.3-2.1-4-4.6-4-4.6s1.9,5,2.1,8c0.4,3.6,0.6,6.6,0.5,10.1
		c0,3.8-0.9,8.3-0.4,11.8c0.9,4,2.4,7.8,4.5,11.7c1.6,2.4,3.8,4.6,6,6.5c1.7,1.8,4.4,4.1,4.4,4.1c0.9,1.1,2.4,1.1,3.4,1.9
		c3.6,2.1,4.7,5.1,4.1,7.9c-1.3-2-3.1-1.8-5.3-1.1c4.7,3,6.1,5.7,5.2,11.6c-1.1-4.1-5.2-3.2-7.7-4.8c2.5,5.1,6.3,6.2,6.8,9.6
		c0.8,1.3,1,3.2-0.6,7.1c-0.5-1.5-0.9-2.4-1.5-3.5c-1.6-1.2-3.6-1.1-5.4-3.8c0,0-0.4,2,0.1,3.3c0.9,1.4,1.2,1.4,2.3,2.8
		c0.8,1.3,1.7,3,2,4.5c0.4,3.3-1.4,8.2-1.4,8.2s-1.1-1.9-1.8-2.7c-1-0.8-2.8-0.3-4.2-1.1c-1-0.5-2.3-2.6-2.3-2.6s0,1.5,0.1,2.4
		c-0.1,0.5-1.5,2-1.5,2s3.1,0,4.5,2.1c1.4,1.4,1.6,3.5,0.6,5c-1.3,2.4-3.9,3.3-7,1.7c-1.2,0.1-2.8-0.7-2.8-0.7s0.3,1.4-0.2,2.3
		c-0.1,0.8-0.6,1.6-1.4,2.6c-1.1,1.5-3.2,1.6-4.9,1.6c-1.7-0.4-3.4-0.7-4.2-2.6c-0.5-0.4-1.2-2.3-1.2-2.3s-1.9,2.3-3.1,2.3
		c-2.3,0-4.5-0.9-5.6-2.4c-0.9-1.4-1.2-2.9-1.2-4.3c0-1.2,0.7-2.1,0.9-3c0,0-1-0.4-1.8-0.7c-0.8-0.5-1.2-1.4-1.8-2.7
		c-0.3-1.2-0.3-2.7,0.3-4.3c1.2-1.8,2.5-2.3,4.5-1.9c1.4,0,3.2,1.4,4.1,2.6c1.6,1.2,3.6,1,5.5,0.5c1.7,0.3,3-1.7,4.5-3.1
		c2.7-4.7,3.2-11.3,3-16c0-5.5,0.1-11.9,0.1-11.9s-4.8-3.6-7-5.6c-3.1-3.5-9.4-11-9.4-11c1.4,2.7,2.1,4.3,2,5.8
		c0.2,2.9-1.5,4.6-2.4,7c-0.2,1.1-0.1,1.7,0.1,2.4c-2.1-1-1.9-1.9-2.3-3.1c-0.5-1.9,0.2-3.8-1-5.2c-0.2,2.5-1.3,3.8-3.4,5.4
		c0,0,0.8-2.4-0.4-3.9c-1.1-1.3-3-2.1-3.8-3.7c-1.5-1.5-2.2-3.7-0.5-6.2c0,0-2.3-1.4-2.8-3.2c-0.8-2-0.1-3.9,0.5-5.5c1.3-2,4-5,4-5
		s-5.4-7.8-7-13.2c-0.8-3-1-6.3-0.6-9.4c0.5-2.6,1.3-5,2.4-7.1c1.6-2,4.9-5.2,4.9-5.2s-2.4-6.6-4.3-9c-1.5-2.4-3-4.1-4.9-5.7
		c-2.2-1.7-5-2.5-7.4-3.9c-3.1-1.8-5.2-3.1-7.5-5.9c-1.7-1.6-2.1-2.4-5-6c-2.1-2.8-12.9-19.1-8.8-24.8c1.9-2.7,7-8.4,8.6-11.6
		c2.6-7.2,11-15.4,11-15.4l13.8,0.1c21.1,2.6,24.5,0.6,24.6,11.8c-3,20.9-2,46.2,3.8,60.3c3.8,9.3,10.5,18.4,14,28.1
		c1.1,2.9,2.4,5.5,3.8,8.7c1.2,3.5,2.3,7.9,4,11.1c2,3,3.8,6.9,7,8.4c0,0,3.2,1.5,5.6,1.8c1.9,0.4,4.2,0.2,5.7-1.1
		c2.9-2.3,2.9-4.6,3.5-6.8c0.4-4.8-3.3-9.4-6.5-14.4c-1.3-2-2.9-4.9-4-6.8c-7.5-14.4-15.4-29.1-20.2-44.6c-1.5-4.9-1.9-9.7-1.3-14.4
		c1.4-10.3,7.4-16.6,12.9-24.8c2.8-4.8,2-10.4-3.9-11.6c3-2.7,6.9-3.2,9.8-1.9c2.6,1,4,2.8,4.8,4.9c1.5,4.5-1.2,10.4-4,15.1
		c2-0.2,4-0.9,5.4-1.8c3.3-3,3.2-8.1,4.8-12.6c1.7-5.1,5.7-8.6,11.1-9.3c2.7-0.3,7.2,0.6,9.4,2.8c1.3,1.3,1.7,2.8,1.7,4.8
		c-0.2,2.9-1.9,5.6-2.1,8.5c0.2,1.7,1.1,3.5,1.1,3.5c-0.1,0.1-4.6-0.1-6.7-3.4c-0.9-1.6-1.2-5.1-1.2-5.1c-0.7,0.9-1.2,1.4-1,2.5
		c-1,4.9,0.6,9.1-3.9,14.2c-2.4,2.9-6.8,3.6-12,3.9c-2.6,0-3.3,1.3-3.5,1.8c8.7-0.4,15.1,6.1,14.4,12.3c-0.7,5.6-6.1,9-11.6,8.2
		c5-4.8,3.6-10.5-2.6-12.6c-4.1-1.3-7.8-0.5-10.2,1.2c-2.7,2.3-4.2,6.7-4.2,11.3c0.1,4.1,3,11.7,3,11.7c1.9-4.8,8.1-0.1,7.5-8.7
		c4.8,6.3,1.3,10.4-0.7,15.4c4.9,0.8,7-1.4,8-6c4,7.7-0.6,10.5-2.7,16.5c4.1-0.2,5.6-1.4,7.6-4.9c2.7,5.4-0.9,8.9-4.7,12.9
		c3.2-0.9,7.4,1.4,8.8,5.7c-3-1.5-4.3-1.4-5.4-1c-1.1,1.1-2,1.9-1.6,3.4c0.9,3.7,3,6.1,4.8,8.7c3.3,4.1,6.1,7.7,5.5,15.2
		c-0.3,3.8-0.4,6.9-4.5,10.6c4.7-0.1,6.6,2.3,7.4,4.2c0,1.4-1,3-1.2,4.4c-0.1,0.5,1.1,2.8,1.1,2.8c-1.9-0.4-3.5-1.3-3.6-3.9
		c-0.3,0.2-0.7,0.7-0.8,1c0.8,2.2,1.6,3.8,1.7,5.9c0,1.7-0.3,3.1-2.3,4.5c-1.7,1.1-3.8,0.1-6.5,0.1c-1.2,0.6-2.1,1.6-2.8,2.6
		c-0.4-2.2,0.2-3.1,1.4-4.1c1.2-1.5,2.2-1.3,3.4-2.5c1.1-0.9,1.3-2-0.1-4.7c-1.3,3-4,3.3-5.9,2.6c-1.8-1-2.9-2.7-3-5.3
		c1.2,1.4,2.5,2,3.7,1.7c1-0.7,2.1-1.6,1-3.6C526.7,215.7,525.7,215,525.2,214.6L525.2,214.6z"/>
	<path class="st1" d="M538.6,83.3c1.7,0.5,3.6,1.9,4.2,4.3c0.2,0.2,0.1,0.3,0,0.5c0,0.1-0.1,0.3,0.1,0.4l-0.6,0c0,0,0.1-0.2,0.1-0.3
		c0-0.1-0.1-0.3-0.1-0.3c-0.9-3.1-3.2-4.2-5.9-4.4c-2.7-0.1-5.1,1.1-6.5,3c-0.1,0.4-0.3,0.9-0.6,1.4c-0.3,0,0.1-1.1,0-1.7
		c1.8-1.9,4.1-3.3,7-3.2C537.2,82.9,537.8,83,538.6,83.3L538.6,83.3z M547.1,78.1c1,0.5,1.7,1.3,2.5,3c0.5,1.6,0.7,3.4-0.2,5.1
		c0-1.5,0.9-2.3-0.1-4.4c-0.6-1.5-2.1-3.2-3.1-3.7L547.1,78.1z M542.6,77.8c0,0,0.5,0.1,0.8,0.2c1.7,0.5,2.9,1.2,3.4,3
		c0.5,0.9,0.6,2.4,0.4,3.7c0,1.3-0.6,3.5,0,4.6l0.5,4.1c-0.9-1.6-1.1-3.5-1.3-5.2c0.1-0.9,0.6-2.1,0.5-3.5c0.2-1.2,0.3-2.1-0.3-3
		c-0.7-1.7-1.9-2.7-3.6-3.2c-1.7-0.5-3.5-0.5-5.1-0.3l-0.1-0.4c1.3,0,2.8-0.1,4,0C542,77.7,542.3,77.8,542.6,77.8L542.6,77.8z
		 M539.5,79.6c1.4,0.2,3,0.9,4.1,2c0.4,0.4,0.6,1.4,0.6,2.1l0.2,1.7c-0.2-0.8-0.5-1.6-0.6-2.2c-0.1-0.5-0.3-0.9-0.7-1.3
		c-1-1.2-3.3-1.7-5.1-1.6c-2.2-0.1-4.5,0.9-6.2,2.2l0.4-1c1.8-1.2,3.9-1.9,6-1.9C538.8,79.5,539.1,79.5,539.5,79.6L539.5,79.6z
		 M539.1,83.7l0.5,0.2c0,0-1.3,0.8-2.1,2c-1,1.1-1.7,2.6-2.1,3.7c-0.9,1.4-1,3.2-0.8,5.1c0.2,1.8,0.2,3.8-0.6,5.3
		c-0.4,1.1-1,1.7-1.8,2.1c-0.7,0.4-0.9,0.8-1.7,1.4c-1.8,0.6-5.1,1-7.5,1.7c-2.7,0.5-5.1,1-6.6,1.7c-1.1,0.5-1.8,1.6-2.8,2.2
		c-0.9,0.8-1.2,1.6-1.2,1.6c0.1-1,0.8-1.9,1-2.5c0.3-0.7,1.2-1.3,2.3-1.9c1.5-0.6,4.5-1.1,7.5-1.6c2.3-0.6,5.1-1.1,6.2-1.9
		c1.1-0.4,1.7-1,2.5-1.4c0.4-0.4,0.7-0.8,1.3-1.8c0.9-1.4,1.1-2.7,0.9-4.5c-0.1-1.8-0.4-4.3,0.6-5.9c0.4-1.2,1.5-3.2,2.6-4.3
		C538.2,84,539.1,83.7,539.1,83.7L539.1,83.7z M534.3,83.2l1.2,0c0,0-1.6,0.9-2,1.8c-0.9,0.9-1.6,1.7-1.6,2.6
		c-0.8,1.3-0.8,3.4-0.9,5.3c-0.1,1.8-0.2,3.7-0.9,5.3c-0.8,2.2-2.7,2.9-4.3,4.1c-1.8,0.6-3.8,0.9-5.8,1.2c-2.2,0.2-4.2,0.6-5.7,1.2
		c-1.5,0.7-2.8,2.3-4,3.6c-0.6,0.7-0.5,1.3-0.7,1.8c-0.7,1.8-0.5-0.9,0.5-2c0.9-1.4,2.1-3.5,3.9-4.3c1.5-0.7,3.9-0.6,5.7-1
		c2.2-0.2,4.4-0.2,5.9-0.8c1.6-1.1,2.9-2,4-3.9c0.5-1.4,0.7-3.2,0.5-5.2c0.4-1.8,0.3-4.4,1.2-5.9c0.3-0.9,0.8-1.3,1.6-2.3
		C533.4,83.8,534.3,83.2,534.3,83.2z M541.6,85.7l0.2,0.3c0,0-0.5,0.4-0.9,1.5c-1,0.8-1.8,2-1.8,2.9c-0.9,1.4-0.7,3.1-1,4.7
		c0.2,1.7,0.4,3.5-0.1,5c-0.6,1.5-1.3,3.3-2.9,4.2c-2.6,1.8-6.7,1.9-9.8,2.8c-2.2,0.8-5.3,1.5-7.1,3.1c-2.1,1.4-4.9,4.2-4.9,4.2
		c0.7-1.7,3.6-4.2,4.6-5c1.9-1.6,4.9-2.1,7.3-2.9c3-1.1,6.9-0.8,9.4-2.6c1.3-0.8,1.9-2.5,2.6-4c0.6-1.4,0.4-3.2,0.4-4.9
		c0-1.7,0.2-3.6,0.8-5.3c0.3-0.9,1.4-1.9,2.1-2.9C541.3,85.9,541.6,85.7,541.6,85.7L541.6,85.7z M514.9,82.3c0.6,0,1.1,0.3,1.6,0.5
		c1.3,0.6,2.9,2,3.2,3.5c0.5,2.3,0,5.3-1.1,7.3c-3.1,3.7-6.2,6.1-8.3,9c-1.3,1.8-2.1,3.9-3.3,5.9c0.3-2.4,2.1-5.3,2.9-6.4
		c2.1-2.8,5-4.8,7.8-8.5c1.3-1.9,1.7-4.9,1.3-7.1c-0.6-1.4-1.6-2.7-2.9-3.4c-1.1-0.4-2.8-0.5-4.4-0.5s-2.6,0.3-2.6,0.3l-0.1-0.4
		c0,0,1-0.2,2.8-0.2c0.7-0.1,1.6,0,2.5,0C514.4,82.2,514.6,82.3,514.9,82.3z M519.6,100.4L519,101c-2.2,0.1-4.2,0.4-5.2,1.7
		c-0.4,0.2-1.2,0.6-1.5,1.2c0.4-1.1,0.9-1.3,1.3-1.7C515.1,100.9,517.3,100.7,519.6,100.4z M522.6,110.4l0.2,0.3
		c-3.2,1.1-5.9,2.2-7.9,3.4C517.4,112.6,520,110.7,522.6,110.4z M524,114.1c1.7,0.1,3.9,1,5,1.8c3.5,2.2,5.1,6.6,3.3,10
		c-0.8,2.1-3.4,4-7,5.3l-0.1-0.3c3.7-1.6,5.8-3.1,6.7-5.2c1.6-3.2-0.1-7.4-3.5-9.6c-3.5-2.4-10.1-2.7-16.2,1.1
		c5-3.9,9.7-3.3,10.9-3.4C523.3,114,523.6,114.1,524,114.1z"/>
	<path class="st1" d="M468.1,150.6c0,0,0.1,2.7-0.1,4.1c-0.3,1.1-0.6,2-1.4,3c-0.3,0.4-0.9,1-1.5,1.4c-0.5,0.4-1,0.8-1,0.8l-0.2-0.4
		c0,0,0.4-0.3,0.9-0.7c0.5-0.4,1.1-1,1.4-1.4c0.5-0.6,0.8-1.1,1-1.9c0.1-0.4,0.3-0.9,0.3-1.3C467.9,153.5,468.1,151.9,468.1,150.6
		L468.1,150.6z"/>
	<path class="st1" d="M466.2,201.7c0,0,0.7,0.7,0.3,1.5c-0.1,0.6-0.5,1-0.9,1.6c-0.4,0.2-1.5,1.4-1.9,1.9l-0.6,1.6
		c-0.3,0-0.3,0-0.3-0.3c-0.2-0.1-0.2-0.1-0.2-0.1s0-0.3,0.1-0.6c0.1-0.2,0.7-0.7,1.1-1.2c0.4-0.5,1.5-1.7,1.6-2c0,0,0.3-0.2,0.7-0.4
		c0-0.3,0.1-0.6,0.1-0.9C466.7,202.4,466.2,201.7,466.2,201.7z M464.4,202c0,0-0.3,0.2-0.6,0.1c-0.3,0.1-0.6,0.1-0.6,0.1
		c-0.7,0.7-1.4,1.5-1.5,2c-0.1,0.6-0.2,0.9-0.3,1.4c-0.1,0.3,0.2,1.6,0.2,1.6l-0.7-0.7c0,0,0.1-0.3,0.2-0.9c0.1-0.5-0.1-0.8,0.2-1.1
		c0.2-1.1,0.7-2.2,1.9-2.4L464.4,202z M467.9,207.6c0,0,0,1.4-0.1,2.3c0.1,0.8,0.5,1.5,0.9,2.2c0.2,0.6,1.1,0.8,1.4,1.8
		c0.5,0.6,0.6,1.3,1,1.9c0,0.3-0.1,0.6-0.1,0.9l-0.1,0.2c0,0,0,0.2-0.3,0.2l0.1-0.5l0,0l0,0c0-0.3,0-0.3-0.2-0.6
		c0.1-0.5-0.5-1.6-0.7-2.2c-0.5-0.4-1.5-1.2-1.9-2.1c-0.2-0.4-0.8-1.6-0.7-2.5C467.5,208.1,467.8,208.2,467.9,207.6z M465.9,210.4
		c0,0-0.1,0.5-0.2,0.8c0.2,0.6,0,1.1,0.2,1.5c0.2,0.6,1.3,1.1,1.7,1.7c0.7,0.8,1.5,1.2,1.7,1.6c0.3,1.2-0.1,2,0,2.9
		c-0.1,0.6-0.5,1.1-1,1.8c-0.1,0.5-0.2,1.1-0.2,1.1l-0.5-0.4c0,0,0-0.3,0.4-0.7c0.4-0.8,0.6-1.3,0.9-1.6c0-1.1,0.1-2,0-2.6
		c-0.2-0.3-0.9-1.1-1.6-1.8c-0.5-0.7-1.5-1.2-1.7-1.8C465.4,211.4,465.5,210.9,465.9,210.4z"/>
	<path class="st1" d="M535,218.4c0.3,0.9,0.7,1.9,0.9,2.5c0.4,0.9,0.9,2.5,0.7,3.7c0,1.1-0.1,2-0.8,2.7c-0.9,1.3-1.7,1.1-2.6,1.2
		c-0.6,0.4-1.8,0.2-2.8,0.6c-0.8,0-1.8,0.2-2.5,1.2c-0.4,0.2-0.8,0.7-0.6,1.3c-0.3,0.2-0.4,0.5-0.4,0.5h-0.2c0,0,0-0.3,0.2-0.9
		c0.1-0.6,0.5-1,0.8-1.2c0.6-0.5,1.7-1.4,2.5-1.2c1.1-0.7,1.9-0.5,3.1-0.8c0.9-0.1,1.5,0,1.9-0.7c0.8-1,0.9-1.8,1.1-2.7
		c0-1.1-0.7-2.2-0.8-3.4c-0.1-0.9-0.7-1.9-0.8-2.8c-0.6-1.3-2.2-3.3-2.2-3.3C533.4,215.7,534.6,217.4,535,218.4L535,218.4z"/>
	<path class="st1" d="M480.7,261.4c0,0,0,0.3-0.3,0.2c0,0.3-0.1,0.5-0.1,0.5c-0.6,0.5-1.2,0.6-2.1,1c-1.3,0.3-2.5,0.4-3.3,0.2
		c-0.6,0.2-1.2,0.3-1.6,0.5c-0.1,0.3-0.3,0.2-0.3,0.2l0,0l0,0c0,0,0,0,0-0.3c-0.1,0.6-0.8-0.1-0.1-0.6c0.3,0,1.2-0.3,1.9-0.5
		c0.9-0.1,2,0.1,2.8,0.3c0,0,1.3-0.6,1.6-0.8C479.4,262,480.7,261.4,480.7,261.4z M493.3,264.3c-0.1,0.6-0.6,1.9-0.6,2.8
		c0.7,0.7,0.7,1.6,1.5,2.4l-0.5,1c-0.6-1-1-2.2-1.3-3.2C492.2,266.4,492.7,265.4,493.3,264.3L493.3,264.3z M487.4,264
		c0,0-0.6,1.6-1.4,2.3c-1,0.7-2.9,1.4-3.6,2.2c-0.2,0.5-0.3,1.4-0.4,1.9c-0.1,0.5-0.2,1.1-0.2,1.1l-0.5-0.1c0,0,0.1-0.6,0.2-1.1
		c0.1-0.5,0.2-1.4,0.7-1.9c0.8-1.3,3.3-1.9,4.1-2.7L487.4,264z"/>
	<path class="st9" d="M504.1,266.4c-0.7-0.8-2.1-0.2-2.9,0.7c-0.7,0.9-1.2,3.2-0.2,3.4c2.5,0.7,4,2.9,5,5
		C507.4,272.3,506.5,268.8,504.1,266.4L504.1,266.4z M484.4,273.4c-0.2-1.1,1.2-1.6,2.4-1.5c1.2,0,3.3,1.1,2.7,2
		c-1.1,2.4-0.5,4.9,0.4,7.1C486.6,280,484.6,277,484.4,273.4L484.4,273.4z M473.4,267.5c0.7-0.7,2,0.1,2.6,1.2
		c0.7,1,0.7,3.3-0.3,3.4c-2.5,0.3-4.4,2.1-5.7,4.3C469,272.8,470.5,269.6,473.4,267.5z M470.1,254.4c1-0.1,1.5,1.3,1.3,2.5
		c-0.1,1.2-1.4,3.2-2.3,2.5c-2.2-1.2-4.8-0.8-7.1,0C463.3,256,466.5,254.3,470.1,254.4z"/>
	<path class="st8" d="M431.2,106.1c-4.2,11.6-15,16.2-17.9,17.9c-3.6,2.3-17.2,5.6-19.3-0.1c-0.3-1.1,0-2.5-0.2-4
		c-0.2-1.3-0.5-2.4-1.5-3.1c-4.6-2.9-9.1,1.7-9.1,6.4c-2-1.5-4-1.6-5.6-0.8c-3.3,1.5-5.1,6.6-1.3,9.4c1,0.7,3.4-0.1,4,1
		c0,0,0.7,1.1,1.1,1.6c0.3,0.4,1.1,1.2,1.1,1.2s-2.9,0.5-3.6,1.2c-4,4.9,3.4,11.6,8.4,8.3c0.8-0.9,1.2-1.6,2.2-2.4
		c1.1-1.1,5.1-2.1,5.1-2.1c-1.9,3.6-0.4,4.5-0.7,5.7c0,0.6-0.5,1.6-1.3,2.3c4.7-0.6,6.8-2.2,8.8-6.7c0.4,2.6,0.8,4.6-0.3,7.1
		c0,0,3.7-0.9,5.2-2.8c1.7-1.1,4-5.7,4-5.7c1,2.1,0.8,3.8-0.2,6.4c4-2.2,6.3-3.9,6.8-8.4c0.2-0.8,1.2-1.3,1.2-1.3
		c-0.1,3.5,2.9,2.9,1.3,6.7c4.5-2.6,4.9-3.2,7.4-9.9c1.6,2.1,1.9,3.7,0.9,6c1.9-0.7,5.9-3,4.7-7.4c2.4,0.9,2.9,2.1,3.1,3.7
		c1.2-1,2.5-3.6,0.9-8.4"/>
	<path class="st1" d="M452.7,113.2c0,0,0.1,1.4,0.2,2.3c0.1,0.5,0.4,1.6,0.7,2c0.2,0.2,0.4,0.4,0.7,0.8c0.2,0.2,0.5,0.5,0.4,0.9l0,0
		c0.2,1.1-0.3,1.9-1,2.4c-0.9,0.6-2.2,0.9-3.4,1.2c-1.2,0.2-2.4,0.3-3,0.6c-1.9,0.6-4.4,1.9-5.6,3.7l0,0c0,0-0.7,1-1,1.9
		c-0.3,0.5-0.3,1.2-0.5,1.8c0,0.6,0,1.1,0,1.1v0.3l-0.3,0c-0.7-0.3-1.3-0.8-1.8-1.5c-0.4-0.4-0.7-0.9-1-1.2l-0.3-0.8l0-0.7l0.4,0.6
		c0.3,0.6,0.7,1.3,1.3,1.9c0.4,0.5,0.8,0.9,1.4,1.1c0-0.1,0-0.3,0-0.8c0-0.6,0.1-1.4,0.4-1.9c0.5-0.9,1.1-1.9,1.1-1.9l0,0l0,0
		c1.3-1.9,3.9-3.3,5.8-3.9c0.7-0.2,1.9-0.4,3.1-0.6c1.3-0.2,2.5-0.6,3.2-1c0.7-0.5,1-1.1,0.9-2l0,0c0-0.3-0.1-0.5-0.3-0.8
		c-0.3-0.2-0.5-0.5-0.7-0.8c-0.4-0.5-0.7-2-0.7-2.6L452.7,113.2z"/>
	<path class="st1" d="M382.8,135.4c0,0,2.4,0.1,3.3,0l5.4-0.4c0,0-3.9,0.8-5.6,1c-1-0.1-3.3-0.2-3.3-0.2L382.8,135.4z M383.4,122.9
		c0,0,1.2,0.4,2.5,2.1c1.6,2,2.8,3.6,5,4.7c1.1,0.5,3.4,0.8,3.4,0.8c-2,0.3-3.7-0.2-5.4-1.2c-1.4-0.9-2.4-2.8-3.5-4
		c-1.5-1.7-2-1.8-2-1.8L383.4,122.9z"/>
	<path class="st9" d="M378.9,138.6c0.9-0.6,2,0.4,2.5,1.5c0.5,1.1,0.4,3.4-0.7,3.4c-2.5,0-4.6,1.6-6.1,3.5
		C374,143.4,375.9,140.4,378.9,138.6z M377.2,123.2c1,0.1,1.1,1.7,0.7,2.8c-0.3,1.1-2.1,2.7-2.8,1.9c-1.8-1.8-4.4-2-6.9-1.8
		C370.3,123.1,373.7,122.2,377.2,123.2z M389.9,116.8c0.8,0.7,0.1,2.1-0.9,2.8c-0.9,0.7-3.2,1.2-3.4,0.1c-0.6-2.5-2.8-4.1-5-5.1
		C384,113.3,387.4,114.4,389.9,116.8L389.9,116.8z"/>
	<g id="head">
		<path class="st9" d="M444.4,31.1c5.8-1.8,1.4-9.2,18.7-11.7c-2.9,2.7-2.7,3.4-3,5.1c4.2-3.6,9.7-5.3,15.8-3.4
			c-5.9,1.7-7.8,2.4-9,4.7c4.5-2.3,9.1-2.2,16.3-0.3c-2.2,1-3.4,2-4.2,3.3c16.3,1.8,4.3,20.5,22.1,30.2c-3.5,1.4-8.1,0.3-11.9-2.7
			c3.8,3.2,6.9,9.6,5.8,14.2c-1.7,6.7,0.8,8.8-0.7,14.6c-4.5,17.2-9,22.6-3.7,33.1c-13-5.5-11-11.4-12.1-19.3
			c-4.7,8.8-1.2,15.2,4.9,22.2c-9.5-0.7-14-7.3-17.9-13.5c-3.4,10,2.3,11.8-3.3,21.7c1.2-12.7-6.9-9.9-11.6-21.5
			c3.6,12.2-1.4,13.3,1,20.2c-5.9-3.2-4.3-12.6-9.9-16.6c-0.6,4.9,0,9.3,1.2,13.3c-6.8-4.6-8.8-4.8-10.7-16.1
			c-3.4,5.5-3.4,10.9-2.3,16.2c-5.3-4.7-7.5-12.3-4.8-16.9c-2.6-0.2-4.6,5.2-4.6,8.7c-11.5-27.7,20.7-32.7,22.4-51.1l6.1-2.1
			l2.5-20.2L444.4,31.1z"/>
		<path id="mouth" class="st10" d="M443.2,50.7c2.3,1.9,1.6,10.2,0.1,17.1c0,0,5.7-5.4,7.1-6.6c1.1-0.9,1.9-2.5,2.2-4.1
			c0.3-1.6,0.1-3.5-0.7-4.9c-0.8-1.4-2.3-2.5-3.8-2.8C446.4,49.1,443.2,50.7,443.2,50.7z"/>
		<path id="tongue" class="st11" d="M423.6,57.1c0,0-0.3,2.6,0.6,4c1,1.7,2.7,3.1,4.9,3.2c3.3,0.2,7.8-3.2,11.2-3.7
			c5-0.8,13.7,2,13.7,2l-2.1-6.9c0,0-7.8-1.4-12.1-0.8c-3.7,0.7-7.3,4.8-11,5.8c-1.1,0.1-1.7-0.2-2.7-0.7
			C424.9,59.4,423.6,57.1,423.6,57.1L423.6,57.1z"/>
		<path id="teeth" class="st12" d="M440.7,50.8c-0.2,2-1,3.1-0.4,5.6c-2.4-0.8-3.3-2.4-3.4-5.4L440.7,50.8z M436,50
			c-0.4,2-1.3,3-0.9,5.6c-2.4-0.9-3.2-2.7-3.1-5.6H436z M445,66c-0.6-1.8-1.7-2.6-1.8-5.3c-2.2,1.5-2.7,3.4-2,6.1L445,66z"/>
		<path id="face" class="st8" d="M476.2,51.2c3.5-1.8,7.1-7.4,5.2-13.3c-1.3-4-6.4-4.6-11.4-1.4c-2.3-5.3-17.1-7.7-25.6-5.4
			c-2,0.6-3.6,1.6-3.8,3.5c-3.2,1.2-9.8,1.6-11.9,3.8c-1.2,1.3-0.1,3.7,0.8,4.3c-1.9,2.2-0.4,8.5,2.4,7.6c3.3,3.6,11.3,1.8,12.9,1.2
			c0,0,2.7-0.7,3.9,0c1.2,0.5,2.1,1.9,2.4,3.4c0.3,1.6-1.7,5.8-2.8,7.2c-1,1.2-1.9,3.6-3.5,3.7c-1.9,0-1.8-0.1-4.7-1
			c-1.5-0.4-4.4-0.7-5.6,0.2c-0.4,0.5-0.4,1.5-0.5,2c-0.6,1.6-1.5,1.8-1.9,3.1c-1,3.6,0.7,4.6-1.8,5.7c3.4,1,6.9-1.2,7.8-3.4
			c0.1,0.5,0.5,1.2,0.1,2.5c2.5,0.2,2.5-2.2,3.6-3.5c0,0.8,0.1,1.5,0.9,2.5c1-1.2,1.7-2.9,3.2-3.6c6.7,0.9,5.8-6.7,6.1-9
			c1.7,2.4,4.6,3.6,7.9,3.7c3.4,0.1,4-1.9,7.8-0.6c0.6-0.9,0.7-1.9,0.1-3.2c1.2,0.4,2.4,0.6,3.7,0.1c0.4-1.1,0.1-2.1-0.2-3.2
			c1.1,0.1,2,0.5,3.1-0.1c-0.2-1,0.2-1.5-0.6-3.1c1.1,0.4,2,0,3.2-0.4C476.8,53.4,477.7,52.9,476.2,51.2L476.2,51.2z"/>
		<path class="st13" d="M432.7,51.3l2.4,0.5c-4.1-2.1-4.1-7.8-3.1-8.8l-0.5,0.2C430.6,43.9,430.9,49.4,432.7,51.3L432.7,51.3z"/>
		<path class="st1" d="M479.7,38.4c-0.5-1.2-1.6-1.5-2.5-1.6c-0.9-0.2-1.8-0.1-2.7,0.3c-2.1,0.7-4.2,2.1-6.2,6l-0.4,0.8l0.7-0.3
			c0.9-0.3,1.8-0.7,2.5-0.8c-0.4,0.9-0.7,1.7-0.7,2.7l0,0.4l0.4-0.1c0.6-0.3,1.1-0.5,1.9-0.6c-0.4,0.8-0.9,1.6-0.9,2.6v0.3l0.3-0.1
			c0.6,0,1-0.2,1.8-0.2c-0.2,0.8-0.3,1.3,0.1,1.5c0-0.5,0.2-1.1,0.5-1.7l0.1-0.5l-0.4,0c-1.2,0-1.3,0.2-1.8,0.3
			c0.2-0.8,0.6-1.7,1-2.6l0.2-0.4h-0.4c-1,0-1.6,0.2-2.2,0.6c0-0.8,0.3-1.6,0.7-2.4L472,42l-0.3-0.1c-0.8-0.1-1.6,0.2-2.4,0.6
			c1.8-3.1,3.6-4.4,5.4-5C475.7,37.2,478.1,37,479.7,38.4z M470.1,36.8l-0.2-0.5c-0.9,0.6-1.7,1.2-2.5,1.8c-0.8,0.8-1.2,1.7-1.5,2.7
			C466.7,39.5,468,38.1,470.1,36.8z M446.8,46.1c-0.1-2.1-1.3-4-3.2-4.7c1.4,1.1,2.5,2.8,2.6,4.7c0,1.4-0.6,3.2-1.8,4.3
			C446.1,49.7,446.8,47.8,446.8,46.1z"/>
		<path class="st13" d="M438.8,47.8c-0.4,0-0.7,0.2-0.7,0.6c0,0.3,0.3,0.6,0.7,0.6c0.3,0,0.7-0.3,0.7-0.6
			C439.5,48,439.1,47.8,438.8,47.8z M441.4,47.6c-0.3,0-0.7,0.2-0.7,0.6c0,0.3,0.3,0.7,0.7,0.7s0.6-0.3,0.6-0.7
			C442,47.8,441.7,47.6,441.4,47.6z M443.2,46.8c-0.3,0-0.7,0.3-0.7,0.7c0,0.3,0.4,0.6,0.7,0.6c0.4,0,0.7-0.3,0.7-0.6
			C443.9,47.1,443.6,46.8,443.2,46.8z M438.7,45.5c-0.4,0-0.6,0.3-0.6,0.6c0,0.4,0.2,0.7,0.6,0.7c0.3,0,0.6-0.3,0.6-0.7
			C439.4,45.8,439.1,45.5,438.7,45.5z M441.3,45.2c-0.4,0-0.7,0.2-0.7,0.6c0,0.3,0.2,0.6,0.7,0.6c0.4,0,0.7-0.3,0.7-0.6
			C441.9,45.5,441.6,45.2,441.3,45.2z M443.4,44c-0.4,0-0.7,0.3-0.7,0.6c0,0.4,0.3,0.7,0.7,0.7c0.3,0,0.7-0.3,0.7-0.7
			C444.1,44.3,443.7,44,443.4,44z M428.7,38.5c-0.7,1.3-0.3,2.8,0.6,4c0.4,0.3,0.6,0.5,1.1,0.4c0,0,0.2,1,0.4,1.3
			c0.3,0.7,0.7,1.2,0.7,1.2s0.3-1.1,0.5-1.6c0.2-0.5,0.5-0.9,1.2-1.1c0.7-0.4,1.7,0,2.3-0.5c0.4-0.3,0.9-1.7,0.9-1.7s-1.2,0-2.5-0.3
			c-0.9-0.2-3,0.9-3,0.9C429.9,40.5,428.9,39.9,428.7,38.5L428.7,38.5z"/>
		<g id="eye">
			<path class="st1" d="M443.4,37.4c-0.7-0.2-0.6-0.5-0.6-0.5l-0.1-0.5l0.5,0.1l0,0l0,0c0,0,1.7,0.5,4.5,0.3c1.1-0.1,2.6-0.9,4-1.1
				c0.6-0.1,1.4-0.2,1.9,0.3c0.6,0.4,1,1.1,1.2,2.1c-0.6-0.1-0.7-1-1.5-1.6c-0.3-0.3-0.8-0.3-1.4-0.1c-1.2,0.2-2.7,1-4.1,1.1
				C445.1,37.8,444,37.6,443.4,37.4z"/>
			<path class="st12" d="M445.3,39c0.2,1,2.2,2.4,3.9,2.1c1.7-0.3,2.6-2.4,2.4-3.4c-0.3-1-1.6-0.5-3.4-0.1
				C446.5,37.9,445,38,445.3,39z"/>
			<path class="st13" d="M446.2,39.5c0.1,0.8,0.8,1.4,1.6,1.3c0,0,0,0,0,0c0.8,0,1.3-0.7,1.2-1.6c0,0,0-0.1,0-0.1
				c-0.1-0.8-0.9-1.4-1.6-1.3c0,0,0,0,0,0C446.6,38,446.1,38.7,446.2,39.5L446.2,39.5z"/>
			<path d="M447.4,38.7c0.3,0,0.8,0.2,0.8,0.6c0.1,0.4-0.1,0.7-0.6,0.8c-0.4,0.1-0.7-0.2-0.8-0.6C446.7,39.1,447,38.8,447.4,38.7z"
				/>
			<path class="st3" d="M447,38.6c0.2,0,0.5,0.1,0.6,0.4c0,0.3-0.2,0.5-0.4,0.5c-0.2,0-0.5-0.2-0.5-0.4
				C446.6,38.8,446.8,38.6,447,38.6z"/>
		</g>
		<path class="st14" d="M472.3,31.7l-2.3,4.9c-4.5,8.2-3.8,11.8,6.3,14.7c6.3,0.8,5.4,11.7,4.7,13.1c-7.5,13.7-27.7,5.7-29.1-3.8
			c11.5-6.4,1.8-12-2.4-12.7c7.3,0.1,21.8-14,12.6-14.2c-11.8-0.3-4.9-3.6-16.8-2.4c2.3-2.5,3.2-2.2,4.5-2.7l4.5-1.4"/>
	</g>
</g>
<g>
	<path class="st8" d="M153.7,516.6c0,0-0.1,1.1-0.5,1.7c-0.6,1-1.7,2.3-2.9,2.7c-1.5,0.8-2.9,0.3-4.3,0.1c-1-0.7-2.6-2.4-2.6-2.4
		s-1.7,2.7-3.3,3.4c-1.5,0.7-3.5,0.7-5.2,0.2c-1.9-0.4-3.5-2-4.2-3.6c-0.4-1.2,0-3.1,0-3.1s-2,0.6-2.9,0.5c-1.4,0.1-2.8-0.3-3.6-1.2
		c-1.3-1.6-1.5-3-1.1-5c0.2-0.8,1.7-2.1,1.7-2.1s-0.9-1.3-1.1-1.8c-0.4-1.2,0.3-2.6,0.3-2.6c0-1.1,1.6-2.3,3.1-2.2
		c3.7-0.1,5.4,2.4,9.3,3.4c7.6,1.2,14.9-1.7,20.7-6.5c1.8-1.8,3.3-3.9,4.5-6.4c1-1.8,1.4-5,1.4-7.3c-0.5-3.8-2.7-6.9-3.7-11
		c-0.3-1.8-0.6-6.4-0.6-6.4s-2.5,1.4-2.9,2.5c-0.4,1.1-0.1,3.4-0.5,4.8c-0.5,1.1-1.4,1.8-2.6,2c-1.2,0.7-2.6,0-3.8,0.8
		c-0.9,0.3-2,2.3-2,2.3s-0.3-2,0-2.8c0.8-2,3.2-2.8,3.7-4.5c0.1-1.7-0.9-2.4-1.3-3.9c-0.4-1.1-0.3-2-0.2-2.9c0.5-2,3.7-4.2,3.7-4.2
		s-0.6-0.3-1.1-0.7c-0.5-0.3-2.3,0-2.3,0c4.1-5.6,6-6.7,12.7-5.1c0,0,0.2-2,0.7-3.7c0.4-1.4,0.9-3,2.2-4c0.9-0.4,2.4-1.5,2.4-1.5
		s1.1-1.6,1.5-2.4c0.7-1.9,2-3.2,3.9-3.9c1.9-1.2,3.6-1.3,5.9-1c7.3,1.2,14.3,2.5,21.8,0l3.9,38.5c-5.1-1.2-10.8-1-15.6-2.4
		c-1.7-0.4-4.9-2.8-6.5-4.2c0,0,0.2,3.8-0.7,6.6c-1.2,2.1-3.1,4.8-2.4,7.5c0.5,1.1,1.8,2.2,3.1,3.5c1,1.3,1.7,3.1,1.7,4.8
		c0.1,1.1,0,2.9-0.9,3.3c-3.7,2.1-7.7,3.8-8.8,6.5c-1.1,4.8-0.7,8.6-5.3,10.9c0.5-2.3,0.1-3.8-0.8-5.6c-0.5,4.2-1.5,5.9-4.4,8.4
		c0-2.5,0-4.6-0.6-6.7c-1.1,4.5-2.3,7.2-6.6,8.8c1.1-2.2,1.4-4.2,0.5-6.6C155.8,513.7,156.1,516.3,153.7,516.6L153.7,516.6z"/>
	<path class="st1" d="M126.6,507.1c0.8-0.1,1.7,0.1,2.8,0c0.8,0.3,1.6,0.8,2.6,0.5c1.1,0.1,3.2-0.4,3.2-0.4c-0.7,1-2.8,1.1-3.3,1
		c-0.9,0.2-1.7-0.2-2.8-0.3c-0.8-0.3-1.7-0.7-2.5-0.6c-0.3,0-0.9,0.2-1.2,0.1c-0.2,0.3-0.5,0.2-0.5,0.2l-1-1.2c0,0,0.7,0.9,1.4,0.5
		C125.5,507,126.1,507.1,126.6,507.1L126.6,507.1z M138,510.7c0,0-0.3,0.5-0.6,0.8c-0.6,0.2-0.9,0.5-1.6,0.9
		c-0.5,0.2-1.7,0.1-2.3,0.3c-0.6,0.2-1.2,0.7-1.8,0.9c0,0.2-0.4,0.8-0.5,1.4c-0.3,0.5-0.3,0.8-0.3,0.8l-2.3,0.3c0,0,1.5-0.7,1.8-1.2
		c0-0.3,0.6-0.8,1-1.5c0.5-0.2,1.2-0.8,1.8-1c0.9-0.4,2.1-0.3,2.7-0.5c0.3-0.2,0.9-0.5,1.2-0.7L138,510.7z M147.6,511.9
		c-2,0-3.3,1.3-3.9,2.3c-0.8,1.4-1,2.8,0,4.7l-0.6,0.5c-0.9-1.6-0.7-3.9,0.1-5.2C145.2,511,147.3,511.8,147.6,511.9z M153.1,514.5
		c0.5,0.4,0.4,1,0.7,1.2c-0.1,0.6,0.1,0.9,0.1,0.9l-0.5,0.2c0,0,0-0.5-0.2-0.9c0-0.5-0.1-1.2-0.4-1.5c-0.2-0.6-1.8-1.6-1.8-1.6
		C151.8,512.9,153.2,514.2,153.1,514.5z"/>
	<path class="st1" d="M158.5,463.3c0,0-1,0.5-1.6,0.9c-0.6,0.5-1.3,1-1.9,1.3c-0.3,0.7-1.1,1.8-1.1,2.7c-0.3,0.6-0.1,1.4-0.2,2
		c0.2,0.9,0.1,1.5,0,2.3c-0.1,0.8-0.5,1.6-1.4,2.1c-0.3,0.2-0.9,0.4-1.2,0.4c-0.5-0.1-1.2-0.1-1.2,0.1c-0.9,0.4-1.4,0.3-1.8,0.9
		c-0.4,0.2-0.4,0.8-0.8,1.6c0,0.6,0,0.9,0,0.9l-0.7,0.2c0,0,0.1-0.6,0.5-1.1c0.1-0.8,0.4-1.6,0.7-1.9c0.6-0.5,1.2-0.7,1.9-1.1
		c0.3,0,0.9,0,1.1,0.1c0.5,0,0.8,0.1,1.2-0.4c0.6-0.4,1-1,1.4-2.1c0-0.6-0.2-1.2-0.1-2.1c-0.2-0.6-0.1-1.4,0-2
		c0.4-0.8,0.8-1.9,1.5-3c0.7-0.5,1.2-0.7,1.9-1.2L158.5,463.3z"/>
	<path class="st9" d="M151.5,518.7c0.1-0.9-1.6-1.1-2.7-1c-0.9,0.5-2.9,2-2.1,2.9c1.8,2,1.7,4.6,1.5,6.9
		C151.3,525.5,152.3,522.1,151.5,518.7L151.5,518.7z M131.4,517.4c0.4-0.7,2.1-0.5,2.9,0.3c1.1,0.8,1.9,2.8,0.8,3.3
		c-2.5,1.1-3.3,3.6-4.2,5.8C129,523.8,129.4,520.4,131.4,517.4L131.4,517.4z M123.7,509.9c1-0.5,1.7,0.7,1.9,1.9
		c0.4,1.2-0.4,3.4-1.5,3c-2.5-0.6-4.9,0.6-6.9,1.8C117.6,513,120.2,510.7,123.7,509.9z M125.5,501.8c0.8-0.2,1.5,1.3,1.4,2.4
		c-0.1,1.1-1.5,3.2-2.3,2.6c-2.2-1.4-4.8-0.8-7.1,0C118.9,503.3,122,501.7,125.5,501.8z"/>
	<path class="st8" d="M132.3,334.9c-2.6-2-7-1-9.3,1.9c-0.5-2.4-2.1-3.7-3.9-4.1c-3.5-0.9-8.1,1.9-6.8,6.4c0.3,1.2,2.8,2.1,2.5,3.4
		c0,0-0.2,1.3-0.2,2c0,0.6,0.2,1.4,0.2,1.4s-2.6-1.3-3.6-1.1c-6.2,1.3-4.9,10.8,1.2,11c1.1,0,2.1,0.1,3.3,0.1
		c1.5-0.3,3.9,0.4,4.1,1.2c0.1,0.2,0.2,0.8,0.3,1.1c3.9,2.3,3.8,6,0.6,7.4c4.5,1.1,5.6,1.1,9.9-0.2l0.1,0.1
		c-0.8,2.5-1.9,4.8-3.9,6.1c3.7,1.5,8.3-1.9,11.4-2.2c0.3,1.7,0.1,3.4,0.8,4.9c0.5,1.3,1.3,2.6,2.7,3.6c0.5-2.5,1.1-3.9,3.7-4.8
		c-1.9,5.6-1.6,9.1,2.1,13.8c-0.3-3.9,1.6-2.8,4.3-7.1c-1,4.9-1.6,9.4,2.9,12.9c0-2.2,0.2-4.3,2-5.8c-0.2,4.8,0.3,8.7,4.6,11.7
		c0-2.6,0.1-4.6,2.4-6.2c-0.1,4.7,1,8.2,5.1,10.8c-1.2-3.7,1.4-3.7,1.6-7.5c0,0,4.5,9.3,7,11.4c3.5,3.1,8.7,8.8,8.7,8.8l9.6-23.9
		c-9.5-7.2-11.9-14.7-21.6-21.6c-15.5-2-31.1-11.9-41.2-24.2c-0.2-1.3-0.5-4.3,0.1-5.7c0.5-1,1.2-2,0.7-3.3
		C133.7,336.4,133.2,335.5,132.3,334.9L132.3,334.9z"/>
	<path class="st1" d="M114.9,345.8c0,0,1.8,0.9,2.4,1.2l4.1,1.5c0,0-3.2-0.4-4.5-1c-0.7-0.4-2.4-1.4-2.4-1.4L114.9,345.8z
		 M123.2,336.9c0,0,0.8,0.8,1,2.6c0.2,2,0.3,3.6,1.6,5.3c0.5,0.8,2.3,2.3,2.3,2.3c-1.8-0.9-2.9-2.1-3.8-3.5c-0.7-1.3-0.4-3-0.7-4.2
		c-0.3-1.8-0.6-2-0.6-2L123.2,336.9z"/>
	<path class="st9" d="M110.7,346.3c1,0.1,1.1,1.5,0.8,2.7c-0.4,1.1-2.1,2.8-2.9,2c-1.8-1.9-4.5-1.9-6.9-1.6
		C103.8,346.4,107.2,345.3,110.7,346.3z M118,333.4c0.9,0.6,0.4,2-0.5,2.8c-0.8,0.8-3,1.5-3.4,0.6c-0.8-2.5-3.1-3.8-5.5-4.5
		C111.9,330.5,115.3,331.1,118,333.4z M132.4,336.7c0.1,1-1.4,1.5-2.5,1.3c-1.2-0.1-3.1-1.4-2.5-2.3c1.3-2.2,0.9-4.8,0.2-7.1
		C130.9,330,132.5,333.2,132.4,336.7L132.4,336.7z"/>
	<path id="groin_1_" class="st8" d="M196.8,442.1l5.1,9c0,0-1.7,5.2-4.2,6.6c-0.1-3.7-3-8.2-4.6-11.6
		C192.5,444.4,195.4,443,196.8,442.1L196.8,442.1z"/>
	<path class="st8" d="M260.5,506.2c-1.7-0.3-2.8-0.8-4.3-0.6c-2.4-0.7-5-1.3-7-2.9c-4.1-2.6-6.8-6.9-8.9-10.8
		c-3-5.3-4.4-12.3-6.8-17.5c-1.8-3.8-3.8-7-5.4-10.4c-1.3-2.1-4-4.6-4-4.6s1.9,5,2.1,8c0.4,3.6,0.6,6.6,0.5,10.1
		c0,3.8-0.9,8.3-0.4,11.8c0.9,4,2.4,7.8,4.5,11.7c1.6,2.4,3.8,4.6,6,6.5c1.7,1.8,4.4,4.1,4.4,4.1c0.9,1.1,2.4,1.1,3.4,1.9
		c3.6,2.1,4.7,5.1,4.1,7.9c-1.3-2-3.1-1.8-5.3-1.1c4.7,3,6.1,5.7,5.2,11.6c-1.1-4.1-5.2-3.2-7.7-4.8c2.5,5.1,6.3,6.2,6.8,9.6
		c0.8,1.3,1,3.2-0.6,7.1c-0.5-1.5-0.9-2.4-1.5-3.5c-1.6-1.2-3.6-1.1-5.4-3.8c0,0-0.4,2,0.1,3.3c0.9,1.4,1.2,1.4,2.3,2.8
		c0.8,1.3,1.7,3,2,4.5c0.4,3.3-1.4,8.2-1.4,8.2s-1.1-1.9-1.8-2.7c-1-0.8-2.8-0.3-4.2-1.1c-1-0.5-2.3-2.6-2.3-2.6s0,1.5,0.1,2.4
		c-0.1,0.5-1.5,2-1.5,2s3.1,0,4.5,2.1c1.4,1.4,1.6,3.5,0.6,5c-1.3,2.4-3.9,3.3-7,1.7c-1.2,0.1-2.8-0.7-2.8-0.7s0.3,1.4-0.2,2.3
		c-0.1,0.8-0.6,1.6-1.4,2.6c-1.1,1.5-3.2,1.6-4.9,1.6c-1.7-0.4-3.4-0.7-4.2-2.6c-0.5-0.4-1.2-2.3-1.2-2.3s-1.9,2.3-3.1,2.3
		c-2.3,0-4.5-0.9-5.6-2.4c-0.9-1.4-1.2-2.9-1.2-4.3c0-1.2,0.7-2.1,0.9-3c0,0-1-0.4-1.8-0.7c-0.8-0.5-1.2-1.4-1.8-2.7
		c-0.3-1.2-0.3-2.7,0.3-4.3c1.2-1.8,2.5-2.3,4.5-1.9c1.4,0,3.2,1.4,4.1,2.6c1.6,1.2,3.6,1,5.5,0.5c1.7,0.3,3-1.7,4.5-3.1
		c2.7-4.7,3.2-11.3,3-16c0-5.5,0.1-11.9,0.1-11.9s-4.8-3.6-7-5.6c-3.1-3.5-9.4-11-9.4-11c1.4,2.7,2.1,4.3,2,5.8
		c0.2,2.9-1.5,4.6-2.4,7c-0.2,1.1-0.1,1.7,0.1,2.4c-2.1-1-1.9-1.9-2.3-3.1c-0.5-1.9,0.2-3.8-1-5.2c-0.2,2.5-1.3,3.8-3.4,5.4
		c0,0,0.8-2.4-0.4-3.9c-1.1-1.3-3-2.1-3.8-3.7c-1.5-1.5-2.2-3.7-0.5-6.2c0,0-2.3-1.4-2.8-3.2c-0.8-2-0.1-3.9,0.5-5.5c1.3-2,4-5,4-5
		s-5.4-7.8-7-13.2c-0.8-3-1-6.3-0.6-9.4c0.5-2.6,1.3-5,2.4-7.1c1.6-2,4.9-5.2,4.9-5.2s-2.4-6.6-4.3-9c-1.5-2.4-3-4.1-4.9-5.7
		c-2.2-1.7-5-2.5-7.4-3.9c-3.1-1.8-5.2-3.1-7.5-5.9c-1.7-1.6-2.1-2.4-5-6c-2.1-2.8-12.9-19.1-8.8-24.8c1.9-2.7,7-8.4,8.6-11.6
		c2.6-7.2,11-15.4,11-15.4l13.8,0.1c21.1,2.6,24.5,0.6,24.6,11.8c-3,20.9-2,46.2,3.8,60.3c3.8,9.3,10.5,18.4,14,28.1
		c1.1,2.9,2.4,5.5,3.8,8.7c1.2,3.5,2.3,7.9,4,11.1c2,3,3.8,6.9,7,8.4c0,0,3.2,1.5,5.6,1.8c1.9,0.4,4.2,0.2,5.7-1.1
		c2.9-2.3,2.9-4.6,3.5-6.8c0.4-4.8-3.3-9.4-6.5-14.4c-1.3-2-2.9-4.9-4-6.8c-7.5-14.4-15.4-29.1-20.2-44.6c-1.5-4.9-1.9-9.7-1.3-14.4
		c1.4-10.3,7.4-16.6,12.9-24.8c2.8-4.8,2-10.4-3.9-11.6c3-2.7,6.9-3.2,9.8-1.9c2.6,1,4,2.8,4.8,4.9c1.5,4.5-1.2,10.4-4,15.1
		c2-0.2,4-0.9,5.4-1.8c3.3-3,3.2-8.1,4.8-12.6c1.7-5.1,5.7-8.6,11.1-9.3c2.7-0.3,7.2,0.6,9.4,2.8c1.3,1.3,1.7,2.8,1.7,4.8
		c-0.2,2.9-1.9,5.6-2.1,8.5c0.2,1.7,1.1,3.5,1.1,3.5c-0.1,0.1-4.6-0.1-6.7-3.4c-0.9-1.6-1.2-5.1-1.2-5.1c-0.7,0.9-1.2,1.4-1,2.5
		c-1,4.9,0.6,9.1-3.9,14.2c-2.4,2.9-6.8,3.6-12,3.9c-2.6,0-3.3,1.3-3.5,1.8c8.7-0.4,15.1,6.1,14.4,12.3c-0.7,5.6-6.1,9-11.6,8.2
		c5-4.8,3.6-10.5-2.6-12.6c-4.1-1.3-7.8-0.5-10.2,1.2c-2.7,2.3-4.2,6.7-4.2,11.3c0.1,4.1,3,11.7,3,11.7c1.9-4.8,8.1-0.1,7.5-8.7
		c4.8,6.3,1.3,10.4-0.7,15.4c4.9,0.8,7-1.4,8-6c4,7.7-0.6,10.5-2.7,16.5c4.1-0.2,5.6-1.4,7.6-4.9c2.7,5.4-0.9,8.9-4.7,12.9
		c3.2-0.9,7.4,1.4,8.8,5.7c-3-1.5-4.3-1.4-5.4-1c-1.1,1.1-2,1.9-1.6,3.4c0.9,3.7,3,6.1,4.8,8.7c3.3,4.1,6.1,7.7,5.5,15.2
		c-0.3,3.8-0.4,6.9-4.5,10.6c4.7-0.1,6.6,2.3,7.4,4.2c0,1.4-1,3-1.2,4.4c-0.1,0.5,1.1,2.8,1.1,2.8c-1.9-0.4-3.5-1.3-3.6-3.9
		c-0.3,0.2-0.7,0.7-0.8,1c0.8,2.2,1.6,3.8,1.7,5.9c0,1.7-0.3,3.1-2.3,4.5c-1.7,1.1-3.8,0.1-6.5,0.1c-1.2,0.6-2.1,1.6-2.8,2.6
		c-0.4-2.2,0.2-3.1,1.4-4.1c1.2-1.5,2.2-1.3,3.4-2.5c1.1-0.9,1.3-2-0.1-4.7c-1.3,3-4,3.3-5.9,2.6c-1.8-1-2.9-2.7-3-5.3
		c1.2,1.4,2.5,2,3.7,1.7c1-0.7,2.1-1.6,1-3.6C262,507.4,261,506.6,260.5,506.2L260.5,506.2z"/>
	<path class="st1" d="M273.9,374.9c1.7,0.5,3.6,1.9,4.2,4.3c0.2,0.2,0.1,0.3,0,0.5c0,0.1-0.1,0.3,0.1,0.4l-0.6,0
		c0,0,0.1-0.2,0.1-0.3c0-0.1-0.1-0.3-0.1-0.3c-0.9-3.1-3.2-4.2-5.9-4.4c-2.7-0.1-5.1,1.1-6.5,3c-0.1,0.4-0.3,0.9-0.6,1.4
		c-0.3,0,0.1-1.1,0-1.7c1.8-1.9,4.1-3.3,7-3.2C272.5,374.5,273.1,374.6,273.9,374.9L273.9,374.9z M282.5,369.7c1,0.5,1.7,1.3,2.5,3
		c0.5,1.6,0.7,3.4-0.2,5.1c0-1.5,0.9-2.3-0.1-4.4c-0.6-1.5-2.1-3.2-3.1-3.7L282.5,369.7z M278,369.5c0,0,0.5,0.1,0.8,0.2
		c1.7,0.5,2.9,1.2,3.4,3c0.5,0.9,0.6,2.4,0.4,3.7c0,1.3-0.6,3.5,0,4.6l0.5,4.1c-0.9-1.6-1.1-3.5-1.3-5.2c0.1-0.9,0.6-2.1,0.5-3.5
		c0.2-1.2,0.3-2.1-0.3-3c-0.7-1.7-1.9-2.7-3.6-3.2c-1.7-0.5-3.5-0.5-5.1-0.3l-0.1-0.4c1.3,0,2.8-0.1,4,0
		C277.4,369.4,277.7,369.5,278,369.5L278,369.5z M274.8,371.2c1.4,0.2,3,0.9,4.1,2c0.4,0.4,0.6,1.4,0.6,2.1l0.2,1.7
		c-0.2-0.8-0.5-1.6-0.6-2.2c-0.1-0.5-0.3-0.9-0.7-1.3c-1-1.2-3.3-1.7-5.1-1.6c-2.2-0.1-4.5,0.9-6.2,2.2l0.4-1c1.8-1.2,3.9-1.9,6-1.9
		C274.2,371.2,274.5,371.2,274.8,371.2L274.8,371.2z M274.4,375.3l0.5,0.2c0,0-1.3,0.8-2.1,2c-1,1.1-1.7,2.6-2.1,3.7
		c-0.9,1.4-1,3.2-0.8,5.1c0.2,1.8,0.2,3.8-0.6,5.3c-0.4,1.1-1,1.7-1.8,2.1c-0.7,0.4-0.9,0.8-1.7,1.4c-1.8,0.6-5.1,1-7.5,1.7
		c-2.7,0.5-5.1,1-6.6,1.7c-1.1,0.5-1.8,1.6-2.8,2.2c-0.9,0.8-1.2,1.6-1.2,1.6c0.1-1,0.8-1.9,1-2.5c0.3-0.7,1.2-1.3,2.3-1.9
		c1.5-0.6,4.5-1.1,7.5-1.6c2.3-0.6,5.1-1.1,6.2-1.9c1.1-0.4,1.7-1,2.5-1.4c0.4-0.4,0.7-0.8,1.3-1.8c0.9-1.4,1.1-2.7,0.9-4.5
		c-0.1-1.8-0.4-4.3,0.6-5.9c0.4-1.2,1.5-3.2,2.6-4.3C273.6,375.6,274.4,375.3,274.4,375.3L274.4,375.3z M269.7,374.8l1.2,0
		c0,0-1.6,0.9-2,1.8c-0.9,0.9-1.6,1.7-1.6,2.6c-0.8,1.3-0.8,3.4-0.9,5.3c-0.1,1.8-0.2,3.7-0.9,5.3c-0.8,2.2-2.7,2.9-4.3,4.1
		c-1.8,0.6-3.8,0.9-5.8,1.2c-2.2,0.2-4.2,0.6-5.7,1.2c-1.5,0.7-2.8,2.3-4,3.6c-0.6,0.7-0.5,1.3-0.7,1.8c-0.7,1.8-0.5-0.9,0.5-2
		c0.9-1.4,2.1-3.5,3.9-4.3c1.5-0.7,3.9-0.6,5.7-1c2.2-0.2,4.4-0.2,5.9-0.8c1.6-1.1,2.9-2,4-3.9c0.5-1.4,0.7-3.2,0.5-5.2
		c0.4-1.8,0.3-4.4,1.2-5.9c0.3-0.9,0.8-1.3,1.6-2.3C268.8,375.4,269.7,374.8,269.7,374.8z M276.9,377.3l0.2,0.3c0,0-0.5,0.4-0.9,1.5
		c-1,0.8-1.8,2-1.8,2.9c-0.9,1.4-0.7,3.1-1,4.7c0.2,1.7,0.4,3.5-0.1,5c-0.6,1.5-1.3,3.3-2.9,4.2c-2.6,1.8-6.7,1.9-9.8,2.8
		c-2.2,0.8-5.3,1.5-7.1,3.1c-2.1,1.4-4.9,4.2-4.9,4.2c0.7-1.7,3.6-4.2,4.6-5c1.9-1.6,4.9-2.1,7.3-2.9c3-1.1,6.9-0.8,9.4-2.6
		c1.3-0.8,1.9-2.5,2.6-4c0.6-1.4,0.4-3.2,0.4-4.9c0-1.7,0.2-3.6,0.8-5.3c0.3-0.9,1.4-1.9,2.1-2.9
		C276.6,377.5,276.9,377.3,276.9,377.3L276.9,377.3z M250.2,374c0.6,0,1.1,0.3,1.6,0.5c1.3,0.6,2.9,2,3.2,3.5c0.5,2.3,0,5.3-1.1,7.3
		c-3.1,3.7-6.2,6.1-8.3,9c-1.3,1.8-2.1,3.9-3.3,5.9c0.3-2.4,2.1-5.3,2.9-6.4c2.1-2.8,5-4.8,7.8-8.5c1.3-1.9,1.7-4.9,1.3-7.1
		c-0.6-1.4-1.6-2.7-2.9-3.4c-1.1-0.4-2.8-0.5-4.4-0.5c-1.5,0-2.6,0.3-2.6,0.3l-0.1-0.4c0,0,1-0.2,2.8-0.2c0.7-0.1,1.6,0,2.5,0
		C249.8,373.9,250,374,250.2,374z M254.9,392.1l-0.5,0.5c-2.2,0.1-4.2,0.4-5.2,1.7c-0.4,0.2-1.2,0.6-1.5,1.2
		c0.4-1.1,0.9-1.3,1.3-1.7C250.4,392.5,252.7,392.3,254.9,392.1z M258,402.1l0.2,0.3c-3.2,1.1-5.9,2.2-7.9,3.4
		C252.8,404.3,255.4,402.4,258,402.1z M259.3,405.7c1.7,0.1,3.9,1,5,1.8c3.5,2.2,5.1,6.6,3.3,10c-0.8,2.1-3.4,4-7,5.3l-0.1-0.3
		c3.7-1.6,5.8-3.1,6.7-5.2c1.6-3.2-0.1-7.4-3.5-9.6c-3.5-2.4-10.1-2.7-16.2,1.1c5-3.9,9.7-3.3,10.9-3.4
		C258.7,405.6,259,405.7,259.3,405.7z"/>
	<path class="st1" d="M203.5,442.2c0,0,0.1,2.7-0.1,4.1c-0.3,1.1-0.6,2-1.4,3c-0.3,0.4-0.9,1-1.5,1.4c-0.5,0.4-1,0.8-1,0.8l-0.2-0.4
		c0,0,0.4-0.3,0.9-0.7c0.5-0.4,1.1-1,1.4-1.4c0.5-0.6,0.8-1.1,1-1.9c0.1-0.4,0.3-0.9,0.3-1.3C203.3,445.2,203.4,443.6,203.5,442.2
		L203.5,442.2z"/>
	<path class="st1" d="M201.6,493.4c0,0,0.7,0.7,0.3,1.5c-0.1,0.6-0.5,1-0.9,1.6c-0.4,0.2-1.5,1.4-1.9,1.9l-0.6,1.6
		c-0.3,0-0.3,0-0.3-0.3c-0.2-0.1-0.2-0.1-0.2-0.1s0-0.3,0.1-0.6c0.1-0.2,0.7-0.7,1.1-1.2c0.4-0.5,1.5-1.7,1.6-2c0,0,0.3-0.2,0.7-0.4
		c0-0.3,0.1-0.6,0.1-0.9C202.1,494,201.6,493.4,201.6,493.4z M199.8,493.6c0,0-0.3,0.2-0.6,0.1c-0.3,0.1-0.6,0.1-0.6,0.1
		c-0.7,0.7-1.4,1.5-1.5,2c-0.1,0.6-0.2,0.9-0.3,1.4c-0.1,0.3,0.2,1.6,0.2,1.6l-0.7-0.7c0,0,0.1-0.3,0.2-0.9c0.1-0.5-0.1-0.8,0.2-1.1
		c0.2-1.1,0.7-2.2,1.9-2.4L199.8,493.6z M203.3,499.3c0,0,0,1.4-0.1,2.3c0.1,0.8,0.5,1.5,0.9,2.2c0.2,0.6,1.1,0.8,1.4,1.8
		c0.5,0.6,0.6,1.3,1,1.9c0,0.3-0.1,0.6-0.1,0.9l-0.1,0.2c0,0,0,0.2-0.3,0.2l0.1-0.5l0,0l0,0c0-0.3,0-0.3-0.2-0.6
		c0.1-0.5-0.5-1.6-0.7-2.2c-0.5-0.4-1.5-1.2-1.9-2.1c-0.2-0.4-0.8-1.6-0.7-2.5C202.9,499.7,203.2,499.8,203.3,499.3z M201.2,502
		c0,0-0.1,0.5-0.2,0.8c0.2,0.6,0,1.1,0.2,1.5c0.2,0.6,1.3,1.1,1.7,1.7c0.7,0.8,1.5,1.2,1.7,1.6c0.3,1.2-0.1,2,0,2.9
		c-0.1,0.6-0.5,1.1-1,1.8c-0.1,0.5-0.2,1.1-0.2,1.1l-0.5-0.4c0,0,0-0.3,0.4-0.7c0.4-0.8,0.6-1.3,0.9-1.6c0-1.1,0.1-2,0-2.6
		c-0.2-0.3-0.9-1.1-1.6-1.8c-0.5-0.7-1.5-1.2-1.7-1.8C200.7,503.1,200.8,502.5,201.2,502z"/>
	<path class="st1" d="M270.3,510c0.3,0.9,0.7,1.9,0.9,2.5c0.4,0.9,0.9,2.5,0.7,3.7c0,1.1-0.1,2-0.8,2.7c-0.9,1.3-1.7,1.1-2.6,1.2
		c-0.6,0.4-1.8,0.2-2.8,0.6c-0.8,0-1.8,0.2-2.5,1.2c-0.4,0.2-0.8,0.7-0.6,1.3c-0.3,0.2-0.4,0.5-0.4,0.5h-0.2c0,0,0-0.3,0.2-0.9
		c0.1-0.6,0.5-1,0.8-1.2c0.6-0.5,1.7-1.4,2.5-1.2c1.1-0.7,1.9-0.5,3.1-0.8c0.9-0.1,1.5,0,1.9-0.7c0.8-1,0.9-1.8,1.1-2.7
		c0-1.1-0.7-2.2-0.8-3.4c-0.1-0.9-0.7-1.9-0.8-2.8c-0.6-1.3-2.2-3.3-2.2-3.3C268.8,507.4,269.9,509,270.3,510L270.3,510z"/>
	<path class="st1" d="M216,553c0,0,0,0.3-0.3,0.2c0,0.3-0.1,0.5-0.1,0.5c-0.6,0.5-1.2,0.6-2.1,1c-1.3,0.3-2.5,0.4-3.3,0.2
		c-0.6,0.2-1.2,0.3-1.6,0.5c-0.1,0.3-0.3,0.2-0.3,0.2l0,0l0,0c0,0,0,0,0-0.3c-0.1,0.6-0.8-0.1-0.1-0.6c0.3,0,1.2-0.3,1.9-0.5
		c0.9-0.1,2,0.1,2.8,0.3c0,0,1.3-0.6,1.6-0.8C214.8,553.6,216,553,216,553z M228.6,555.9c-0.1,0.6-0.6,1.9-0.6,2.8
		c0.7,0.7,0.7,1.6,1.5,2.4l-0.5,1c-0.6-1-1-2.2-1.3-3.2C227.6,558.1,228.1,557,228.6,555.9L228.6,555.9z M222.8,555.6
		c0,0-0.6,1.6-1.4,2.3c-1,0.7-2.9,1.4-3.6,2.2c-0.2,0.5-0.3,1.4-0.4,1.9c-0.1,0.5-0.2,1.1-0.2,1.1l-0.5-0.1c0,0,0.1-0.6,0.2-1.1
		c0.1-0.5,0.2-1.4,0.7-1.9c0.8-1.3,3.3-1.9,4.1-2.7L222.8,555.6z"/>
	<path class="st9" d="M239.4,558c-0.7-0.8-2.1-0.2-2.9,0.7c-0.7,0.9-1.2,3.2-0.2,3.4c2.5,0.7,4,2.9,5,5
		C242.8,563.9,241.9,560.5,239.4,558L239.4,558z M219.8,565.1c-0.2-1.1,1.2-1.6,2.4-1.5c1.2,0,3.3,1.1,2.7,2
		c-1.1,2.4-0.5,4.9,0.4,7.1C221.9,571.6,220,568.6,219.8,565.1L219.8,565.1z M208.7,559.1c0.7-0.7,2,0.1,2.6,1.2
		c0.7,1,0.7,3.3-0.3,3.4c-2.5,0.3-4.4,2.1-5.7,4.3C204.4,564.4,205.8,561.2,208.7,559.1z M205.4,546c1-0.1,1.5,1.3,1.3,2.5
		c-0.1,1.2-1.4,3.2-2.3,2.5c-2.2-1.2-4.8-0.8-7.1,0C198.7,547.7,201.8,545.9,205.4,546z"/>
	<path class="st8" d="M166.6,397.7c-4.2,11.6-15,16.2-17.9,17.9c-3.6,2.3-17.2,5.6-19.3-0.1c-0.3-1.1,0-2.5-0.2-4
		c-0.2-1.3-0.5-2.4-1.5-3.1c-4.6-2.9-9.1,1.7-9.1,6.4c-2-1.5-4-1.6-5.6-0.8c-3.3,1.5-5.1,6.6-1.3,9.4c1,0.7,3.4-0.1,4,1
		c0,0,0.7,1.1,1.1,1.6c0.3,0.4,1.1,1.2,1.1,1.2s-2.9,0.5-3.6,1.2c-4,4.9,3.4,11.6,8.4,8.3c0.8-0.9,1.2-1.6,2.2-2.4
		c1.1-1.1,5.1-2.1,5.1-2.1c-1.9,3.6-0.4,4.5-0.7,5.7c0,0.6-0.5,1.6-1.3,2.3c4.7-0.6,6.8-2.2,8.8-6.7c0.4,2.6,0.8,4.6-0.3,7.1
		c0,0,3.7-0.9,5.2-2.8c1.7-1.1,4-5.7,4-5.7c1,2.1,0.8,3.8-0.2,6.4c4-2.2,6.3-3.9,6.8-8.4c0.2-0.8,1.2-1.3,1.2-1.3
		c-0.1,3.5,2.9,2.9,1.3,6.7c4.5-2.6,4.9-3.2,7.4-9.9c1.6,2.1,1.9,3.7,0.9,6c1.9-0.7,5.9-3,4.7-7.4c2.4,0.9,2.9,2.1,3.1,3.7
		c1.2-1,2.5-3.6,0.9-8.4"/>
	<path class="st1" d="M188.1,404.8c0,0,0.1,1.4,0.2,2.3c0.1,0.5,0.4,1.6,0.7,2c0.2,0.2,0.4,0.4,0.7,0.8c0.2,0.2,0.5,0.5,0.4,0.9l0,0
		c0.2,1.1-0.3,1.9-1,2.4c-0.9,0.6-2.2,0.9-3.4,1.2c-1.2,0.2-2.4,0.3-3,0.6c-1.9,0.6-4.4,1.9-5.6,3.7l0,0c0,0-0.7,1-1,1.9
		c-0.3,0.5-0.3,1.2-0.5,1.8c0,0.6,0,1.1,0,1.1v0.3l-0.3,0c-0.7-0.3-1.3-0.8-1.8-1.5c-0.4-0.4-0.7-0.9-1-1.2l-0.3-0.8l0-0.7l0.4,0.6
		c0.3,0.6,0.7,1.3,1.3,1.9c0.4,0.5,0.8,0.9,1.4,1.1c0-0.1,0-0.3,0-0.8c0-0.6,0.1-1.4,0.4-1.9c0.5-0.9,1.1-1.9,1.1-1.9l0,0l0,0
		c1.3-1.9,3.9-3.3,5.8-3.9c0.7-0.2,1.9-0.4,3.1-0.6c1.3-0.2,2.5-0.6,3.2-1c0.7-0.5,1-1.1,0.9-2l0,0c0-0.3-0.1-0.5-0.3-0.8
		c-0.3-0.2-0.5-0.5-0.7-0.8c-0.4-0.5-0.7-2-0.7-2.6L188.1,404.8z"/>
	<path class="st1" d="M118.2,427c0,0,2.4,0.1,3.3,0l5.4-0.4c0,0-3.9,0.8-5.6,1c-1-0.1-3.3-0.2-3.3-0.2L118.2,427z M118.7,414.5
		c0,0,1.2,0.4,2.5,2.1c1.6,2,2.8,3.6,5,4.7c1.1,0.5,3.4,0.8,3.4,0.8c-2,0.3-3.7-0.2-5.4-1.2c-1.4-0.9-2.4-2.8-3.5-4
		c-1.5-1.7-2-1.8-2-1.8L118.7,414.5z"/>
	<path class="st9" d="M114.3,430.2c0.9-0.6,2,0.4,2.5,1.5c0.5,1.1,0.4,3.4-0.7,3.4c-2.5,0-4.6,1.6-6.1,3.5
		C109.4,435.1,111.3,432,114.3,430.2z M112.5,414.8c1,0.1,1.1,1.7,0.7,2.8c-0.3,1.1-2.1,2.7-2.8,1.9c-1.8-1.8-4.4-2-6.9-1.8
		C105.6,414.8,109.1,413.9,112.5,414.8z M125.2,408.5c0.8,0.7,0.1,2.1-0.9,2.8c-0.9,0.7-3.2,1.2-3.4,0.1c-0.6-2.5-2.8-4.1-5-5.1
		C119.4,405,122.8,406,125.2,408.5L125.2,408.5z"/>
	<g id="head_1_">
		<path class="st9" d="M179.7,322.8c5.8-1.8,1.4-9.2,18.7-11.7c-2.9,2.7-2.7,3.4-3,5.1c4.2-3.6,9.7-5.3,15.8-3.4
			c-5.9,1.7-7.8,2.4-9,4.7c4.5-2.3,9.1-2.2,16.3-0.3c-2.2,1-3.4,2-4.2,3.3c16.3,1.8,4.3,20.5,22.1,30.2c-3.5,1.4-8.1,0.3-11.9-2.7
			c3.8,3.2,6.9,9.6,5.8,14.2c-1.7,6.7,0.8,8.8-0.7,14.6c-4.5,17.2-9,22.6-3.7,33.1c-13-5.5-11-11.4-12.1-19.3
			c-4.7,8.8-1.2,15.2,4.9,22.2c-9.5-0.7-14-7.3-17.9-13.5c-3.4,10,2.3,11.8-3.3,21.7c1.2-12.7-6.9-9.9-11.6-21.5
			c3.6,12.2-1.4,13.3,1,20.2c-5.9-3.2-4.3-12.6-9.9-16.6c-0.6,4.9,0,9.3,1.2,13.3c-6.8-4.6-8.8-4.8-10.7-16.1
			c-3.4,5.5-3.4,10.9-2.3,16.2c-5.3-4.7-7.5-12.3-4.8-16.9c-2.6-0.2-4.6,5.2-4.6,8.7c-11.5-27.7,20.7-32.7,22.4-51.1l6.1-2.1
			l2.5-20.2L179.7,322.8z"/>
		<path id="mouth_1_" class="st10" d="M178.6,342.4c2.3,1.9,1.6,10.2,0.1,17.1c0,0,5.7-5.4,7.1-6.6c1.1-0.9,1.9-2.5,2.2-4.1
			s0.1-3.5-0.7-4.9c-0.8-1.4-2.3-2.5-3.8-2.8C181.8,340.7,178.6,342.4,178.6,342.4z"/>
		<path id="tongue_1_" class="st11" d="M159,348.7c0,0-0.3,2.6,0.6,4c1,1.7,2.7,3.1,4.9,3.2c3.3,0.2,7.8-3.2,11.2-3.7
			c5-0.8,13.7,2,13.7,2l-2.1-6.9c0,0-7.8-1.4-12.1-0.8c-3.7,0.7-7.3,4.8-11,5.8c-1.1,0.1-1.7-0.2-2.7-0.7
			C160.2,351.1,159,348.7,159,348.7L159,348.7z"/>
		<path id="teeth_1_" class="st12" d="M176.1,342.4c-0.2,2-1,3.1-0.4,5.6c-2.4-0.8-3.3-2.4-3.4-5.4L176.1,342.4z M171.4,341.7
			c-0.4,2-1.3,3-0.9,5.6c-2.4-0.9-3.2-2.7-3.1-5.6H171.4z M180.3,357.6c-0.6-1.8-1.7-2.6-1.8-5.3c-2.2,1.5-2.7,3.4-2,6.1
			L180.3,357.6z"/>
		<path id="face_1_" class="st8" d="M211.6,342.8c3.5-1.8,7.1-7.4,5.2-13.3c-1.3-4-6.4-4.6-11.4-1.4c-2.3-5.3-17.1-7.7-25.6-5.4
			c-2,0.6-3.6,1.6-3.8,3.5c-3.2,1.2-9.8,1.6-11.9,3.8c-1.2,1.3-0.1,3.7,0.8,4.3c-1.9,2.2-0.4,8.5,2.4,7.6c3.3,3.6,11.3,1.8,12.9,1.2
			c0,0,2.7-0.7,3.9,0c1.2,0.5,2.1,1.9,2.4,3.4c0.3,1.6-1.7,5.8-2.8,7.2c-1,1.2-1.9,3.6-3.5,3.7c-1.9,0-1.8-0.1-4.7-1
			c-1.5-0.4-4.4-0.7-5.6,0.2c-0.4,0.5-0.4,1.5-0.5,2c-0.6,1.6-1.5,1.8-1.9,3.1c-1,3.6,0.7,4.6-1.8,5.7c3.4,1,6.9-1.2,7.8-3.4
			c0.1,0.5,0.5,1.2,0.1,2.5c2.5,0.2,2.5-2.2,3.6-3.5c0,0.8,0.1,1.5,0.9,2.5c1-1.2,1.7-2.9,3.2-3.6c6.7,0.9,5.8-6.7,6.1-9
			c1.7,2.4,4.6,3.6,7.9,3.7c3.4,0.1,4-1.9,7.8-0.6c0.6-0.9,0.7-1.9,0.1-3.2c1.2,0.4,2.4,0.6,3.7,0.1c0.4-1.1,0.1-2.1-0.2-3.2
			c1.1,0.1,2,0.5,3.1-0.1c-0.2-1,0.2-1.5-0.6-3.1c1.1,0.4,2,0,3.2-0.4C212.2,345,213,344.5,211.6,342.8L211.6,342.8z"/>
		<path class="st13" d="M168.1,342.9l2.4,0.5c-4.1-2.1-4.1-7.8-3.1-8.8l-0.5,0.2C166,335.5,166.2,341,168.1,342.9L168.1,342.9z"/>
		<path class="st1" d="M215,330c-0.5-1.2-1.6-1.5-2.5-1.6c-0.9-0.2-1.8-0.1-2.7,0.3c-2.1,0.7-4.2,2.1-6.2,6l-0.4,0.8l0.7-0.3
			c0.9-0.3,1.8-0.7,2.5-0.8c-0.4,0.9-0.7,1.7-0.7,2.7l0,0.4l0.4-0.1c0.6-0.3,1.1-0.5,1.9-0.6c-0.4,0.8-0.9,1.6-0.9,2.6v0.3l0.3-0.1
			c0.6,0,1-0.2,1.8-0.2c-0.2,0.8-0.3,1.3,0.1,1.5c0-0.5,0.2-1.1,0.5-1.7l0.1-0.5l-0.4,0c-1.2,0-1.3,0.2-1.8,0.3
			c0.2-0.8,0.6-1.7,1-2.6l0.2-0.4h-0.4c-1,0-1.6,0.2-2.2,0.6c0-0.8,0.3-1.6,0.7-2.4l0.1-0.4l-0.3-0.1c-0.8-0.1-1.6,0.2-2.4,0.6
			c1.8-3.1,3.6-4.4,5.4-5C211.1,328.9,213.4,328.6,215,330z M205.4,328.4l-0.2-0.5c-0.9,0.6-1.7,1.2-2.5,1.8
			c-0.8,0.8-1.2,1.7-1.5,2.7C202.1,331.1,203.3,329.7,205.4,328.4z M182.1,337.8c-0.1-2.1-1.3-4-3.2-4.7c1.4,1.1,2.5,2.8,2.6,4.7
			c0,1.4-0.6,3.2-1.8,4.3C181.5,341.4,182.1,339.4,182.1,337.8z"/>
		<path class="st13" d="M174.1,339.4c-0.4,0-0.7,0.2-0.7,0.6c0,0.3,0.3,0.6,0.7,0.6c0.3,0,0.7-0.3,0.7-0.6
			C174.9,339.7,174.4,339.4,174.1,339.4z M176.8,339.2c-0.3,0-0.7,0.2-0.7,0.6c0,0.3,0.3,0.7,0.7,0.7c0.3,0,0.6-0.3,0.6-0.7
			C177.4,339.5,177.1,339.2,176.8,339.2z M178.5,338.4c-0.3,0-0.7,0.3-0.7,0.7c0,0.3,0.4,0.6,0.7,0.6c0.4,0,0.7-0.3,0.7-0.6
			C179.2,338.7,179,338.4,178.5,338.4z M174.1,337.1c-0.4,0-0.6,0.3-0.6,0.6c0,0.4,0.2,0.7,0.6,0.7c0.3,0,0.6-0.3,0.6-0.7
			C174.7,337.4,174.4,337.1,174.1,337.1z M176.6,336.9c-0.4,0-0.7,0.2-0.7,0.6c0,0.3,0.2,0.6,0.7,0.6c0.4,0,0.7-0.3,0.7-0.6
			C177.3,337.1,177,336.9,176.6,336.9z M178.7,335.7c-0.4,0-0.7,0.3-0.7,0.6c0,0.4,0.3,0.7,0.7,0.7c0.3,0,0.7-0.3,0.7-0.7
			C179.4,336,179,335.7,178.7,335.7z M164,330.2c-0.7,1.3-0.3,2.8,0.6,4c0.4,0.3,0.6,0.5,1.1,0.4c0,0,0.2,1,0.4,1.3
			c0.3,0.7,0.7,1.2,0.7,1.2s0.3-1.1,0.5-1.6c0.2-0.5,0.5-0.9,1.2-1.1c0.7-0.4,1.7,0,2.3-0.5c0.4-0.3,0.9-1.7,0.9-1.7s-1.2,0-2.5-0.3
			c-0.9-0.2-3,0.9-3,0.9C165.2,332.2,164.2,331.5,164,330.2L164,330.2z"/>
		<g id="eye_1_">
			<path class="st1" d="M178.7,329c-0.7-0.2-0.6-0.5-0.6-0.5l-0.1-0.5l0.5,0.1l0,0l0,0c0,0,1.7,0.5,4.5,0.3c1.1-0.1,2.6-0.9,4-1.1
				c0.6-0.1,1.4-0.2,1.9,0.3c0.6,0.4,1,1.1,1.2,2.1c-0.6-0.1-0.7-1-1.5-1.6c-0.3-0.3-0.8-0.3-1.4-0.1c-1.2,0.2-2.7,1-4.1,1.1
				C180.4,329.5,179.4,329.3,178.7,329z"/>
			<path class="st12" d="M180.6,330.7c0.2,1,2.2,2.4,3.9,2.1c1.7-0.3,2.6-2.4,2.4-3.4c-0.3-1-1.6-0.5-3.4-0.1
				C181.8,329.5,180.4,329.6,180.6,330.7z"/>
			<path class="st13" d="M181.6,331.1c0.1,0.8,0.8,1.4,1.6,1.3c0,0,0,0,0,0c0.8,0,1.3-0.7,1.2-1.6c0,0,0-0.1,0-0.1
				c-0.1-0.8-0.9-1.4-1.6-1.3c0,0,0,0,0,0C182,329.6,181.5,330.3,181.6,331.1L181.6,331.1z"/>
			<path d="M182.7,330.4c0.3,0,0.8,0.2,0.8,0.6c0.1,0.4-0.1,0.7-0.6,0.8c-0.4,0.1-0.7-0.2-0.8-0.6
				C182.1,330.8,182.4,330.4,182.7,330.4z"/>
			<path class="st3" d="M182.3,330.2c0.2,0,0.5,0.1,0.6,0.4c0,0.3-0.2,0.5-0.4,0.5c-0.2,0-0.5-0.2-0.5-0.4
				C181.9,330.5,182.1,330.2,182.3,330.2z"/>
		</g>
		<path class="st14" d="M207.7,323.3l-2.3,4.9c-4.5,8.2-3.8,11.8,6.3,14.7c6.3,0.8,5.4,11.7,4.7,13.1c-7.5,13.7-27.7,5.7-29.1-3.8
			c11.5-6.4,1.8-12-2.4-12.7c7.3,0.1,21.8-14,12.6-14.2c-11.8-0.3-4.9-3.6-16.8-2.4c2.3-2.5,3.2-2.2,4.5-2.7l4.5-1.4"/>
	</g>
</g>
<g id="shine">
	
		<radialGradient id="shield_3_" cx="220" cy="442" r="405" gradientTransform="matrix(1 0 0 -1 0 662)" gradientUnits="userSpaceOnUse">
		<stop  offset="0" style="stop-color:#FFFFFF;stop-opacity:0.3"/>
		<stop  offset="0.2" style="stop-color:#FFFFFF;stop-opacity:0.2"/>
		<stop  offset="0.6" style="stop-color:#666666;stop-opacity:0.1"/>
		<stop  offset="1" style="stop-color:#000000;stop-opacity:0.13"/>
	</radialGradient>
	<path id="shield_1_" class="st15" d="M2,2v257c0,286,298,398,298,398s298-112,298-398V2H2z"/>
</g>
</svg>
