<?xml version="1.0" encoding="utf-8"?>
<!-- Generator: Adobe Illustrator 25.3.0, SVG Export Plug-In . SVG Version: 6.00 Build 0)  -->
<svg version="1.1" id="Layer_1" xmlns="http://www.w3.org/2000/svg" xmlns:xlink="http://www.w3.org/1999/xlink" x="0px" y="0px"
	 viewBox="0 0 600 660" style="enable-background:new 0 0 600 660;" xml:space="preserve">
<style type="text/css">
	.st0{fill:#CC0000;}
	.st1{fill:#FFCC00;stroke:#CC0000;}
	.st2{fill:#FF9900;stroke:#CC0000;}
	.st3{fill:#552200;stroke:#CC0000;}
	.st4{fill:#FF5555;stroke:#CC0000;}
	.st5{fill:#FFFFFF;stroke:#CC0000;}
	.st6{fill:#552200;}
	.st7{fill:#FFFFFF;}
	.st8{fill:#FF9900;}
	.st9{display:none;}
	.st10{display:inline;fill:url(#shield_2_);stroke:#000000;stroke-width:3;}
</style>
<g>
	<path id="shield" class="st0" d="M2,2v257c0,286,298,398,298,398s298-112,298-398V2H2z"/>
</g>
<g>
	<path class="st1" d="M208.4,467.3c0,0-0.2,2.3-1,3.4c-1.3,2.1-3.4,4.7-5.8,5.5c-3,1.6-5.9,0.6-8.7,0.3c-2.1-1.5-5.2-4.8-5.2-4.8
		s-3.5,5.5-6.6,6.8c-3,1.4-7.1,1.5-10.5,0.5c-3.8-0.9-7-4.1-8.4-7.3c-0.8-2.4,0.1-6.3,0.1-6.3s-4,1.3-5.9,1
		c-2.9,0.3-5.7-0.6-7.2-2.5c-2.6-3.2-3.1-6.1-2.2-10.1c0.4-1.7,3.4-4.3,3.4-4.3s-1.9-2.6-2.3-3.7c-0.8-2.4,0.6-5.2,0.6-5.2
		c0-2.3,3.2-4.7,6.2-4.5c7.4-0.3,10.9,4.9,18.7,6.8c15.3,2.4,30-3.4,41.6-13c3.7-3.6,6.7-7.9,9-12.9c2.1-3.7,2.8-10,2.9-14.7
		c-1-7.6-5.4-13.9-7.4-22.2c-0.7-3.6-1.3-12.9-1.3-12.9s-5,2.9-5.9,5.1c-0.8,2.3-0.3,6.9-1,9.7c-1,2.3-2.8,3.6-5.2,4
		c-2.4,1.5-5.3,0-7.6,1.6c-1.9,0.7-4.1,4.6-4.1,4.6s-0.7-4.1,0.1-5.7c1.6-4,6.5-5.7,7.4-9.1c0.3-3.4-1.8-4.8-2.6-7.8
		c-0.8-2.3-0.6-4.1-0.5-5.8c1.1-4,7.5-8.4,7.5-8.4s-1.2-0.7-2.2-1.4c-1.1-0.7-4.7,0-4.7,0c8.3-11.3,12.1-13.5,25.6-10.3
		c0,0,0.4-4,1.4-7.4c0.9-2.8,1.9-6.1,4.4-8.1c1.8-0.9,4.9-3,4.9-3s2.2-3.2,3-4.8c1.5-3.8,4.1-6.4,7.8-7.8c3.8-2.4,7.2-2.6,11.9-2.1
		c14.6,2.4,28.8,5.1,43.8,0l7.9,77.3c-10.3-2.4-21.8-2.1-31.3-4.9c-3.4-0.9-9.8-5.6-13-8.5c0,0,0.4,7.6-1.4,13.3
		c-2.4,4.3-6.3,9.7-4.8,15c1,2.3,3.6,4.5,6.2,7.1c2.1,2.6,3.4,6.2,3.5,9.6c0.3,2.3-0.1,5.8-1.9,6.7c-7.5,4.3-15.4,7.6-17.7,13
		c-2.3,9.6-1.4,17.2-10.6,22c1.1-4.6,0.2-7.6-1.7-11.2c-1,8.4-3.1,11.8-8.8,16.8c0-5.1-0.1-9.2-1.3-13.4c-2.2,9-4.7,14.5-13.2,17.6
		c2.3-4.4,2.8-8.4,1-13.2C212.6,461.5,213.1,466.7,208.4,467.3L208.4,467.3z"/>
	<path class="st0" d="M154,448.2c1.7-0.3,3.4,0.3,5.7,0.1c1.7,0.7,3.2,1.6,5.2,1.1c2.2,0.3,6.4-0.9,6.4-0.9
		c-1.4,2.1-5.6,2.3-6.6,2.1c-1.8,0.4-3.4-0.4-5.7-0.7c-1.7-0.7-3.4-1.5-5.1-1.2c-0.6,0-1.8,0.5-2.4,0.3c-0.5,0.6-1.1,0.5-1.1,0.5
		l-2.1-2.5c0,0,1.4,1.9,2.8,1C151.7,447.9,152.9,448.1,154,448.2L154,448.2z M176.8,455.5c0,0-0.7,1.1-1.3,1.6
		c-1.2,0.4-1.8,1.1-3.2,1.9c-1.1,0.5-3.5,0.2-4.6,0.6c-1.2,0.5-2.4,1.5-3.7,1.9c0,0.5-0.9,1.7-1,2.8c-0.7,1.1-0.7,1.6-0.7,1.6
		l-4.6,0.7c0,0,3-1.5,3.7-2.5c0.1-0.6,1.3-1.6,2.1-3.1c1.1-0.5,2.4-1.6,3.6-2c1.9-0.9,4.3-0.7,5.4-1.1c0.6-0.5,1.9-1,2.5-1.5
		L176.8,455.5z M196.2,457.9c-4.1,0-6.7,2.6-7.9,4.6c-1.7,2.8-2,5.6-0.1,9.4l-1.3,1c-1.8-3.2-1.4-7.8,0.2-10.4
		C191.3,456,195.6,457.7,196.2,457.9z M207.2,463c1.1,0.8,0.9,2,1.5,2.5c-0.2,1.2,0.2,1.9,0.2,1.9l-1,0.4c0,0,0.1-1.1-0.5-1.8
		c0.1-1.1-0.3-2.4-0.8-3c-0.4-1.2-3.7-3.3-3.7-3.3C204.6,459.9,207.3,462.4,207.2,463z"/>
	<path class="st0" d="M218.1,360.2c0,0-2,1.1-3.2,1.9c-1.3,1.1-2.6,2.1-3.8,2.6c-0.7,1.5-2.2,3.7-2.3,5.4c-0.7,1.2-0.3,2.8-0.5,4
		c0.4,1.8,0.3,3,0.1,4.7c-0.2,1.6-1,3.3-2.9,4.3c-0.6,0.5-1.8,0.9-2.4,0.9c-1.1-0.2-2.4-0.3-2.4,0.3c-1.9,0.9-2.9,0.7-3.6,1.9
		c-0.8,0.5-0.9,1.7-1.6,3.2c-0.1,1.2-0.1,1.8-0.1,1.8l-1.4,0.4c0,0,0.2-1.2,1-2.3c0.2-1.6,0.9-3.3,1.5-3.9c1.3-1,2.5-1.4,3.8-2.3
		c0.6,0,1.8,0.1,2.3,0.2c1.1,0.1,1.7,0.2,2.4-0.9c1.2-0.9,2-2.1,2.9-4.2c0.1-1.3-0.4-2.5-0.2-4.2c-0.4-1.2-0.2-2.8-0.1-4
		c0.8-1.6,1.6-3.9,3-6c1.4-1,2.4-1.5,3.8-2.4L218.1,360.2z"/>
	<path class="st2" d="M203.9,471.5c0.2-1.8-3.2-2.3-5.5-2c-1.9,1.1-5.8,4-4.2,5.8c3.6,4,3.5,9.3,3,13.8
		C203.5,485.1,205.5,478.4,203.9,471.5L203.9,471.5z M163.6,468.9c0.9-1.5,4.3-1.1,5.8,0.7c2.2,1.6,3.9,5.7,1.6,6.7
		c-5,2.3-6.7,7.3-8.4,11.7C158.8,481.7,159.5,474.9,163.6,468.9L163.6,468.9z M148,453.9c2-1,3.5,1.5,3.8,3.9c0.8,2.4-0.9,6.9-3.1,6
		c-5-1.2-9.9,1.2-13.8,3.7C135.8,460,141,455.4,148,453.9z M151.8,437.6c1.7-0.4,3.1,2.7,2.8,4.9c-0.2,2.3-3.1,6.5-4.7,5.3
		c-4.5-2.8-9.7-1.7-14.3,0.1C138.4,440.6,144.6,437.3,151.8,437.6z"/>
	<path class="st1" d="M165.4,102.2c-5.2-4.1-14-2-18.6,3.9c-1-4.9-4.3-7.5-7.9-8.2c-7-1.9-16.2,3.9-13.7,12.9
		c0.7,2.5,5.6,4.3,5.1,6.8c0,0-0.4,2.7-0.5,4c0.1,1.2,0.4,2.9,0.4,2.9s-5.2-2.7-7.2-2.3c-12.4,2.6-9.8,21.7,2.4,22.2
		c2.2,0.1,4.3,0.3,6.7,0.2c3.1-0.6,7.9,0.8,8.3,2.5c0.3,0.5,0.4,1.6,0.7,2.3c7.8,4.7,7.7,12,1.2,14.9c9.1,2.3,11.3,2.3,19.8-0.4
		l0.2,0.3c-1.7,5-3.8,9.6-7.8,12.2c7.5,3,16.6-3.8,22.9-4.5c0.6,3.4,0.3,6.9,1.6,9.9c1.1,2.7,2.7,5.2,5.5,7.3c1-5,2.3-7.8,7.5-9.6
		c-3.8,11.2-3.2,18.2,4.2,27.7c-0.7-7.8,3.3-5.6,8.6-14.3c-2,9.9-3.3,18.8,5.9,25.9c0.1-4.5,0.5-8.6,4.1-11.6
		c-0.4,9.6,0.7,17.5,9.2,23.5c-0.1-5.2,0.3-9.2,4.9-12.5c-0.2,9.4,2,16.4,10.3,21.7c-2.4-7.4,2.8-7.5,3.3-15.1c0,0,9,18.6,14,22.9
		c7.1,6.3,17.5,17.7,17.5,17.7l19.2-48c-19-14.4-24-29.6-43.4-43.4c-31.2-4.1-62.5-23.9-82.7-48.6c-0.4-2.7-1-8.6,0.3-11.4
		c1-2.1,2.5-4.1,1.5-6.6C168.1,105.2,167.1,103.4,165.4,102.2L165.4,102.2z"/>
	<path class="st0" d="M130.5,124.1c0,0,3.6,1.8,4.9,2.5l8.3,3c0,0-6.4-0.9-9-2c-1.5-0.8-4.9-2.8-4.9-2.8L130.5,124.1z M147,106.2
		c0,0,1.6,1.7,2.1,5.3c0.4,4.1,0.7,7.3,3.2,10.7c1.1,1.7,4.6,4.6,4.6,4.6c-3.6-1.8-5.8-4.2-7.6-7c-1.5-2.7-0.9-6-1.5-8.5
		c-0.7-3.7-1.3-4.1-1.3-4.1L147,106.2z"/>
	<path class="st2" d="M121.9,125c2,0.3,2.3,3.1,1.6,5.5c-0.8,2.2-4.3,5.6-5.8,4c-3.7-3.8-9-3.8-13.8-3.2
		C108,125.3,114.9,123.1,121.9,125z M136.7,99c1.8,1.2,0.8,4-1,5.7c-1.6,1.6-6.1,3.1-6.8,1.2c-1.7-5-6.3-7.7-11.1-9
		C124.4,93.2,131.3,94.5,136.7,99z M165.6,105.7c0.2,2.1-2.8,3.1-5.1,2.7c-2.5-0.2-6.3-2.9-5-4.7c2.7-4.4,1.8-9.7,0.4-14.2
		C162.5,92.2,165.8,98.6,165.6,105.7L165.6,105.7z"/>
	<path id="groin" class="st1" d="M294.9,317.6l10.3,18c0,0-3.4,10.5-8.5,13.3c-0.2-7.5-6-16.4-9.2-23.4
		C286.3,322.2,292.2,319.3,294.9,317.6L294.9,317.6z"/>
	<path class="st1" d="M423.1,446.4c-3.4-0.7-5.6-1.7-8.6-1.2c-4.9-1.5-10-2.7-14-5.9c-8.3-5.2-13.6-13.9-17.8-21.8
		c-6-10.6-8.9-24.8-13.7-35.2c-3.6-7.7-7.7-14-10.9-21c-2.7-4.2-8.1-9.3-8.1-9.3s3.8,10.1,4.3,16.1c0.9,7.3,1.3,13.3,1.1,20.2
		c0.1,7.6-1.8,16.7-0.9,23.8c1.8,8,4.9,15.7,9.1,23.6c3.3,4.9,7.6,9.3,12,13.1c3.4,3.7,8.9,8.3,8.9,8.3c1.8,2.2,4.8,2.2,6.9,3.9
		c7.2,4.3,9.5,10.2,8.3,15.8c-2.7-4.1-6.3-3.7-10.7-2.2c9.4,6,12.3,11.4,10.4,23.3c-2.3-8.2-10.4-6.4-15.5-9.7
		c5,10.3,12.7,12.5,13.6,19.2c1.7,2.7,2.1,6.4-1.3,14.3c-1.1-3.1-1.8-4.9-3.1-7c-3.2-2.4-7.2-2.2-10.8-7.6c0,0-0.9,4.1,0.3,6.6
		c1.9,2.8,2.5,2.8,4.7,5.7c1.7,2.7,3.5,6,4.1,9c0.9,6.7-2.8,16.5-2.8,16.5s-2.3-3.9-3.7-5.4c-2.1-1.7-5.7-0.7-8.4-2.3
		c-2-1.1-4.7-5.3-4.7-5.3s0,3.1,0.2,4.9c-0.2,1.1-3.1,4-3.1,4s6.3,0.1,9,4.3c2.9,2.8,3.2,7,1.3,10.1c-2.7,4.8-7.8,6.6-14.1,3.4
		c-2.4,0.2-5.6-1.5-5.6-1.5s0.6,2.9-0.4,4.6c-0.2,1.7-1.2,3.2-2.9,5.2c-2.3,3.1-6.5,3.3-9.9,3.2c-3.5-0.8-6.8-1.5-8.4-5.2
		c-1-0.8-2.5-4.7-2.5-4.7s-3.8,4.6-6.3,4.7c-4.7,0.1-9-1.9-11.2-4.8c-1.9-2.8-2.4-5.8-2.4-8.7c-0.1-2.5,1.4-4.3,1.8-6.1
		c0,0-2-0.9-3.7-1.4c-1.6-1-2.4-2.9-3.6-5.4c-0.7-2.5-0.6-5.4,0.7-8.7c2.4-3.6,5-4.7,9-3.9c2.8-0.1,6.4,2.9,8.2,5.2
		c3.2,2.4,7.3,2.1,11,1c3.4,0.7,6-3.4,9-6.3c5.4-9.4,6.4-22.7,6.1-32.2c-0.1-11.1,0.3-24,0.3-24s-9.6-7.3-14.1-11.2
		c-6.2-7-18.9-22.1-18.9-22.1c2.9,5.4,4.2,8.6,4.1,11.6c0.5,5.9-3.1,9.2-4.8,14.1c-0.5,2.3-0.2,3.5,0.2,4.8
		c-4.3-2.1-3.9-3.8-4.6-6.2c-1-3.8,0.4-7.6-2-10.4c-0.4,5.1-2.6,7.7-6.9,10.8c0,0,1.6-4.9-0.8-7.8c-2.2-2.7-6.1-4.2-7.6-7.5
		c-3.1-3-4.4-7.4-1.1-12.4c0,0-4.7-2.8-5.6-6.4c-1.6-4-0.2-7.8,1-11.1c2.6-4.1,8.1-10,8.1-10s-10.8-15.7-14-26.5
		c-1.6-6.1-2-12.6-1.3-18.9c1.1-5.2,2.7-10.1,4.8-14.3c3.2-4.1,9.8-10.4,9.8-10.4s-4.9-13.2-8.6-18.1c-3.1-4.8-6-8.3-9.9-11.5
		c-4.5-3.4-10.1-5-14.9-7.8c-6.3-3.6-10.4-6.3-15-11.9c-3.5-3.2-4.3-4.9-10-12.1c-4.2-5.7-25.9-38.3-17.6-49.9
		c3.8-5.4,14.1-16.9,17.2-23.3c5.3-14.5,22.2-31,22.2-31l27.7,0.2c42.5,5.2,49.3,1.3,49.4,23.7c-6,42.1-4.1,92.9,7.7,121.1
		c7.7,18.7,21.2,36.9,28.2,56.5c2.3,5.9,4.8,11,7.7,17.4c2.5,7.1,4.7,15.8,8.1,22.4c4,6.1,7.6,13.8,14,16.9c0,0,6.5,3.1,11.2,3.6
		c3.9,0.8,8.5,0.5,11.5-2.3c5.8-4.7,5.9-9.3,7.1-13.7c0.8-9.6-6.7-18.9-13.1-28.9c-2.7-4.1-5.9-9.9-8-13.7
		c-15-29-30.9-58.4-40.5-89.7c-3-9.8-3.9-19.5-2.7-28.9c2.9-20.7,14.8-33.4,25.9-49.9c5.7-9.7,4.1-20.9-7.9-23.4
		c6-5.5,13.8-6.4,19.6-3.8c5.3,2.1,8.1,5.7,9.6,9.9c3,9.1-2.5,21-8,30.4c4-0.5,8.1-1.8,10.8-3.6c6.7-6.1,6.5-16.2,9.6-25.3
		c3.4-10.2,11.4-17.3,22.3-18.6c5.4-0.7,14.5,1.2,18.8,5.6c2.7,2.6,3.4,5.6,3.5,9.6c-0.4,5.8-3.9,11.2-4.3,17
		c0.4,3.4,2.2,7.1,2.2,7.1c-0.2,0.3-9.2-0.2-13.4-6.9c-1.8-3.2-2.5-10.3-2.5-10.3c-1.5,1.9-2.5,2.8-2.1,5
		c-2.1,9.8,1.2,18.2-7.9,28.6c-4.9,5.8-13.7,7.3-24.2,7.8c-5.2,0-6.7,2.7-7.1,3.7c17.5-0.8,30.3,12.3,28.9,24.7
		c-1.4,11.2-12.2,18-23.3,16.5c10-9.6,7.3-21.2-5.2-25.3c-8.3-2.6-15.7-1.1-20.5,2.4c-5.4,4.7-8.4,13.5-8.4,22.7
		c0.3,8.2,6,23.6,6,23.6c3.8-9.7,16.2-0.3,15.1-17.4c9.7,12.7,2.6,20.8-1.4,31c9.9,1.6,14.1-2.9,16-12.1c8,15.5-1.2,21.2-5.4,33.1
		c8.2-0.4,11.2-2.9,15.3-9.8c5.4,10.8-1.8,17.9-9.4,25.9c6.4-1.8,14.9,2.9,17.6,11.5c-6.1-3.1-8.6-2.9-10.9-2
		c-2.2,2.3-4.1,3.9-3.3,6.8c1.8,7.5,6.1,12.3,9.6,17.5c6.6,8.3,12.2,15.5,11.1,30.6c-0.6,7.7-0.9,13.8-9.1,21.4
		c9.5-0.3,13.2,4.6,14.8,8.4c-0.1,2.9-2,6.1-2.5,8.9c-0.2,1.1,2.3,5.7,2.3,5.7c-3.9-0.8-7-2.6-7.2-7.9c-0.6,0.5-1.5,1.4-1.6,2
		c1.6,4.4,3.3,7.7,3.4,11.9c-0.1,3.5-0.7,6.3-4.7,9c-3.4,2.2-7.7,0.2-13,0.2c-2.5,1.2-4.2,3.2-5.7,5.3c-0.9-4.4,0.5-6.3,2.9-8.2
		c2.4-3.1,4.5-2.6,6.8-5.1c2.2-1.9,2.6-4.1-0.2-9.5c-2.6,6-8.1,6.6-11.8,5.3c-3.7-2-5.9-5.4-6-10.7c2.4,2.9,5,4,7.5,3.4
		c2-1.5,4.2-3.2,2.1-7.3C426.1,448.7,424.1,447.2,423.1,446.4L423.1,446.4z"/>
	<path class="st0" d="M450,182.5c3.4,1,7.2,3.9,8.5,8.6c0.4,0.4,0.2,0.6,0.1,1c-0.1,0.3-0.2,0.6,0.2,0.8l-1.2-0.1
		c0.1-0.1,0.3-0.4,0.3-0.7c0.1-0.2-0.3-0.7-0.3-0.7c-1.9-6.2-6.5-8.5-11.9-8.8c-5.5-0.3-10.3,2.2-13.1,6.1c-0.3,0.9-0.7,1.9-1.2,2.8
		c-0.6-0.1,0.3-2.3,0.1-3.4c3.6-3.9,8.3-6.6,14-6.5C447.2,181.7,448.4,182,450,182.5L450,182.5z M467.2,172.1c2.1,1,3.4,2.7,5.1,6
		c1.1,3.2,1.5,6.9-0.4,10.2c-0.1-3.1,1.9-4.6-0.2-8.9c-1.2-3.1-4.3-6.5-6.2-7.4L467.2,172.1z M458.1,171.6c0,0,1.1,0.3,1.7,0.4
		c3.4,1,5.9,2.5,6.9,6c1.1,1.9,1.2,4.9,0.8,7.4c0.1,2.7-1.2,7-0.1,9.3l1.1,8.2c-1.9-3.2-2.3-7.1-2.7-10.5c0.2-1.8,1.2-4.3,1-7.1
		c0.5-2.4,0.6-4.2-0.7-6c-1.5-3.5-3.8-5.5-7.2-6.5c-3.4-1-7.1-1.1-10.2-0.7l-0.3-0.8c2.6-0.1,5.7-0.2,8,0.1
		C456.9,171.4,457.5,171.6,458.1,171.6L458.1,171.6z M451.8,175.1c2.9,0.4,6,1.8,8.3,4.1c0.8,0.9,1.3,2.9,1.3,4.2l0.5,3.5
		c-0.5-1.7-1.1-3.3-1.3-4.5c-0.2-1-0.6-1.8-1.5-2.6c-2.1-2.5-6.6-3.5-10.2-3.3c-4.5-0.2-9,1.9-12.5,4.4l0.8-2
		c3.6-2.5,7.8-3.9,12.1-3.9C450.5,175,451.1,175,451.8,175.1L451.8,175.1z M451,183.3l1,0.5c0,0-2.6,1.6-4.2,4.1
		c-2.1,2.2-3.4,5.2-4.3,7.4c-1.8,2.9-2,6.4-1.6,10.3c0.4,3.7,0.5,7.6-1.2,10.7c-0.9,2.3-2,3.4-3.7,4.3c-1.4,0.9-1.8,1.7-3.5,2.8
		c-3.7,1.3-10.3,2.1-15,3.4c-5.4,1-10.3,2.1-13.3,3.5c-2.3,1-3.7,3.2-5.6,4.5c-1.9,1.6-2.5,3.2-2.5,3.2c0.2-2,1.6-3.9,2-5
		c0.6-1.5,2.4-2.6,4.6-3.8c3.1-1.3,9.1-2.3,15.1-3.2c4.7-1.2,10.2-2.3,12.5-3.8c2.2-0.8,3.5-2,5-2.8c0.9-0.9,1.4-1.7,2.7-3.6
		c1.8-2.9,2.2-5.4,1.8-9.1c-0.3-3.7-0.9-8.6,1.2-11.8c0.8-2.4,3.1-6.5,5.3-8.7C449.3,184,451,183.3,451,183.3L451,183.3z
		 M441.4,182.4l2.4,0.1c0,0-3.3,1.8-4.1,3.7c-1.9,1.8-3.2,3.4-3.3,5.3c-1.6,2.7-1.6,6.9-1.8,10.6c-0.2,3.7-0.5,7.5-1.9,10.6
		c-1.6,4.4-5.4,5.9-8.7,8.2c-3.6,1.2-7.7,1.8-11.7,2.5c-4.5,0.5-8.4,1.2-11.4,2.4c-3.1,1.5-5.6,4.7-8,7.2c-1.2,1.4-1.1,2.7-1.5,3.7
		c-1.4,3.6-1.1-1.9,1-4.1c1.8-2.8,4.3-7.1,7.9-8.6c3-1.4,7.9-1.3,11.4-2.1c4.4-0.4,8.9-0.5,11.9-1.7c3.3-2.2,5.8-4.1,8.1-7.9
		c1.1-2.8,1.4-6.5,1.1-10.4c0.8-3.6,0.6-8.9,2.5-11.9c0.7-1.9,1.7-2.6,3.2-4.6C439.6,183.5,441.4,182.4,441.4,182.4z M456,187.4
		l0.5,0.6c0,0-1,0.8-1.8,3c-2,1.6-3.6,4-3.6,5.8c-1.9,2.8-1.4,6.3-2.1,9.5c0.4,3.5,0.9,7-0.3,10.1c-1.3,3-2.7,6.7-5.9,8.4
		c-5.3,3.7-13.4,3.8-19.7,5.6c-4.4,1.7-10.6,3.1-14.2,6.2c-4.3,2.8-9.8,8.5-9.8,8.5c1.4-3.4,7.3-8.5,9.2-10.1
		c3.8-3.3,9.9-4.3,14.6-5.8c6-2.2,13.8-1.7,18.9-5.2c2.6-1.7,3.9-5.1,5.2-8.1c1.2-2.9,0.8-6.5,0.9-9.9s0.5-7.3,1.7-10.6
		c0.7-1.8,2.9-3.9,4.3-5.8C455.4,187.8,456,187.4,456,187.4L456,187.4z M402.4,180.6c1.2,0.1,2.3,0.6,3.3,1c2.7,1.3,5.9,4,6.5,7
		c1.1,4.7,0.1,10.6-2.2,14.7c-6.2,7.4-12.5,12.3-16.7,18c-2.7,3.7-4.3,7.9-6.6,11.9c0.7-4.8,4.3-10.6,5.8-12.8
		c4.2-5.7,10.1-9.6,15.7-17.1c2.6-3.8,3.4-9.9,2.6-14.3c-1.3-2.9-3.3-5.4-5.9-6.9c-2.3-0.9-5.7-1.1-8.8-1.1c-3.1,0-5.3,0.6-5.3,0.6
		l-0.2-0.9c0,0,2.1-0.5,5.7-0.4c1.4-0.2,3.2-0.1,5.1,0.1C401.4,180.4,401.9,180.6,402.4,180.6z M411.8,217l-1.1,1.1
		c-4.5,0.3-8.4,0.8-10.5,3.4c-0.9,0.5-2.5,1.3-3,2.5c0.9-2.2,1.8-2.7,2.7-3.4C402.8,217.9,407.3,217.5,411.8,217z M417.9,237.1
		l0.4,0.7c-6.5,2.2-11.8,4.5-15.9,6.8C407.5,241.5,412.7,237.7,417.9,237.1z M420.6,244.5c3.4,0.3,7.8,2.1,10.1,3.7
		c7,4.5,10.2,13.3,6.7,20.1c-1.7,4.3-6.9,8-14.1,10.7l-0.3-0.7c7.5-3.3,11.7-6.2,13.4-10.4c3.2-6.4-0.2-14.8-7.1-19.2
		c-7.1-4.9-20.2-5.4-32.5,2.3c10-7.9,19.4-6.7,22-6.8C419.3,244.3,419.9,244.4,420.6,244.5z"/>
	<path class="st0" d="M308.4,317.8c0,0,0.3,5.4-0.3,8.3c-0.6,2.2-1.3,4-2.8,6c-0.7,0.9-1.9,2.1-3,2.8c-1.1,0.9-2,1.7-2,1.7l-0.5-0.8
		c0,0,0.8-0.6,1.9-1.4c1-0.9,2.3-2.1,2.9-2.8c1-1.2,1.6-2.3,2.1-3.8c0.3-0.9,0.6-1.9,0.7-2.7C308,323.7,308.3,320.5,308.4,317.8
		L308.4,317.8z"/>
	<path class="st0" d="M304.6,420.6c0,0,1.4,1.4,0.7,3c-0.3,1.2-1.1,2.1-1.9,3.2c-0.8,0.4-3,2.8-3.8,3.9l-1.2,3.2
		c-0.6,0-0.6,0-0.6-0.6c-0.5-0.2-0.5-0.2-0.5-0.2s0.1-0.6,0.2-1.2c0.2-0.5,1.5-1.4,2.3-2.4s3-3.5,3.2-4c0,0,0.7-0.5,1.4-0.9
		c0.1-0.6,0.3-1.2,0.3-1.8C305.6,421.9,304.6,420.6,304.6,420.6z M301,421.1c0,0-0.7,0.4-1.3,0.3c-0.7,0.2-1.2,0.2-1.2,0.2
		c-1.4,1.4-2.9,3-3.1,4c-0.3,1.2-0.4,1.8-0.6,2.8c-0.2,0.6,0.5,3.2,0.5,3.2l-1.5-1.5c0,0,0.2-0.6,0.4-1.8c0.2-1-0.3-1.7,0.5-2.2
		c0.5-2.2,1.4-4.5,3.9-4.9L301,421.1z M308,432.4c0,0,0.1,2.9-0.3,4.7c0.2,1.7,1.1,3.1,1.8,4.4c0.4,1.3,2.2,1.7,2.9,3.6
		c1,1.3,1.2,2.6,2.1,3.9c-0.1,0.6-0.3,1.2-0.3,1.8l-0.2,0.5c0,0-0.1,0.5-0.6,0.4l0.3-1.1l0,0l0,0c0.1-0.6,0.1-0.6-0.4-1.2
		c0.3-1.1-1-3.3-1.4-4.4c-1.1-0.8-3.1-2.4-3.8-4.3c-0.5-0.8-1.7-3.3-1.4-5C307.2,433.4,307.8,433.6,308,432.4z M303.9,438
		c0,0-0.2,1.1-0.4,1.7c0.4,1.3,0.1,2.3,0.5,3.1c0.4,1.2,2.6,2.2,3.5,3.5c1.4,1.6,3,2.4,3.4,3.2c0.7,2.5-0.2,4,0,5.8
		c-0.2,1.2-1.1,2.2-2,3.7c-0.2,1.1-0.4,2.2-0.4,2.2l-1-0.8c0,0,0.1-0.6,0.8-1.5c0.9-1.6,1.2-2.7,1.9-3.2c-0.1-2.3,0.2-4-0.1-5.2
		c-0.5-0.7-1.9-2.2-3.3-3.6c-1-1.5-3.1-2.4-3.4-3.7C302.9,440.1,303.1,439,303.9,438z"/>
	<path class="st0" d="M442.7,454c0.7,1.9,1.4,3.9,1.8,5.1c0.9,1.9,1.9,5.1,1.4,7.4c0.1,2.2-0.2,4-1.7,5.4c-1.8,2.6-3.4,2.2-5.2,2.5
		c-1.3,0.9-3.6,0.5-5.6,1.2c-1.7,0.1-3.6,0.4-5.1,2.4c-0.8,0.4-1.6,1.4-1.2,2.7c-0.7,0.4-0.9,1-0.9,1h-0.5c0,0,0.1-0.6,0.4-1.8
		c0.2-1.2,1-2.1,1.7-2.5c1.3-1,3.5-2.8,5.1-2.5c2.2-1.4,3.8-1,6.3-1.7c1.8-0.3,3,0,3.9-1.5c1.6-2,1.9-3.7,2.3-5.4
		c-0.1-2.3-1.5-4.5-1.6-6.8c-0.3-1.8-1.4-3.8-1.6-5.6c-1.3-2.6-4.5-6.7-4.5-6.7C439.6,448.7,441.9,452,442.7,454L442.7,454z"/>
	<path class="st0" d="M333.6,540.5c0,0-0.1,0.6-0.7,0.4c-0.1,0.6-0.3,1.1-0.3,1.1c-1.3,1-2.4,1.3-4.3,2c-2.6,0.7-5,0.8-6.6,0.4
		c-1.3,0.4-2.5,0.7-3.2,1.1c-0.2,0.6-0.7,0.5-0.7,0.5l0,0l0,0c0,0,0,0,0.1-0.6c-0.2,1.2-1.7-0.3-0.3-1.2c0.6,0.1,2.5-0.7,3.8-1
		c1.8-0.2,4,0.3,5.7,0.6c0,0,2.6-1.2,3.3-1.6C331.1,541.7,333.6,540.5,333.6,540.5z M358.9,546.3c-0.2,1.2-1.3,3.8-1.2,5.6
		c1.4,1.5,1.5,3.3,3.1,4.8l-1.1,2.1c-1.3-2-2-4.5-2.7-6.5C356.8,550.6,357.8,548.5,358.9,546.3L358.9,546.3z M347.2,545.7
		c0,0-1.3,3.2-2.8,4.7c-2,1.4-5.8,2.8-7.2,4.4c-0.4,1-0.7,2.8-0.9,3.9c-0.3,1.1-0.5,2.2-0.5,2.2l-1.1-0.3c0,0,0.3-1.2,0.5-2.2
		s0.4-2.8,1.4-3.8c1.7-2.6,6.7-3.8,8.2-5.4L347.2,545.7z"/>
	<path class="st2" d="M380.6,550.5c-1.4-1.7-4.2-0.4-5.8,1.5c-1.5,1.8-2.5,6.4-0.4,6.8c5,1.5,8,5.9,10.1,10.1
		C387.4,562.3,385.6,555.4,380.6,550.5L380.6,550.5z M341.2,564.7c-0.4-2.2,2.4-3.2,4.8-3.1c2.4-0.1,6.6,2.3,5.5,4
		c-2.3,4.8-1.1,9.9,0.9,14.3C345.5,577.8,341.6,571.8,341.2,564.7L341.2,564.7z M319,552.7c1.5-1.5,4,0.2,5.2,2.4
		c1.4,2,1.5,6.7-0.6,6.8c-5.1,0.6-8.8,4.3-11.4,8.6C310.2,563.4,313.1,556.9,319,552.7z M312.3,526.4c2.1-0.2,3,2.6,2.7,5.1
		c-0.2,2.4-2.8,6.4-4.7,5c-4.4-2.5-9.6-1.7-14.2-0.1C298.8,529.7,305.1,526.2,312.3,526.4z"/>
	<path class="st1" d="M234.3,228.4c-8.5,23.3-30.1,32.6-35.9,35.9c-7.3,4.6-34.6,11.3-38.7-0.3c-0.7-2.3,0-5.1-0.4-8
		c-0.5-2.6-1-4.9-3.1-6.3c-9.3-5.9-18.2,3.4-18.2,12.9c-4-3-8-3.3-11.2-1.7c-6.7,3-10.2,13.2-2.6,18.9c2,1.4,6.9-0.3,8,2.1
		c0,0,1.4,2.3,2.3,3.2c0.7,0.9,2.2,2.5,2.2,2.5s-5.9,1.1-7.2,2.5c-8,9.8,6.9,23.3,16.9,16.6c1.7-1.9,2.5-3.2,4.4-4.9
		c2.2-2.2,10.3-4.3,10.3-4.3c-3.8,7.2-0.9,9.1-1.4,11.4c0.1,1.2-1,3.2-2.6,4.6c9.5-1.2,13.7-4.4,17.6-13.4c0.9,5.2,1.6,9.2-0.7,14.3
		c0,0,7.4-1.9,10.5-5.6c3.4-2.3,8.1-11.4,8.1-11.4c2.1,4.3,1.6,7.7-0.5,12.9c8-4.5,12.6-7.8,13.7-16.8c0.4-1.7,2.4-2.7,2.4-2.7
		c-0.3,7.1,5.8,5.9,2.6,13.4c9-5.2,9.9-6.4,14.9-19.8c3.3,4.2,3.9,7.5,1.8,12.1c3.8-1.4,11.9-6,9.5-14.8c4.9,1.9,5.8,4.3,6.3,7.4
		c2.5-2,5.1-7.2,1.9-16.8"/>
	<path class="st0" d="M277.5,242.6c0,0,0.3,2.9,0.5,4.7c0.3,1.1,0.9,3.2,1.5,4.1c0.5,0.4,0.8,0.9,1.4,1.6c0.4,0.5,1,1,0.9,1.9l0,0
		c0.4,2.2-0.6,3.8-2.1,4.9c-1.8,1.2-4.4,1.8-6.9,2.4c-2.5,0.5-4.8,0.7-6.1,1.2c-3.8,1.2-8.8,3.8-11.3,7.4l0,0
		c-0.1,0.1-1.4,2.1-2.1,3.8c-0.6,1.1-0.7,2.4-1,3.6c0,1.3,0,2.2,0,2.2v0.6l-0.6-0.1c-1.5-0.6-2.7-1.7-3.7-3.1
		c-0.8-0.8-1.4-1.8-2-2.5l-0.7-1.6l-0.1-1.5l0.9,1.3c0.6,1.2,1.5,2.6,2.6,3.9c0.8,1,1.7,1.9,2.8,2.3c-0.1-0.3,0-0.6,0.1-1.6
		c0-1.3,0.3-2.8,0.8-3.8c1-1.8,2.3-3.9,2.3-3.9l0,0l0,0c2.6-3.8,7.8-6.6,11.7-7.8c1.4-0.5,3.8-0.8,6.2-1.3c2.6-0.5,5-1.2,6.5-2.1
		c1.5-1.1,2.1-2.3,1.9-4.1l0,0c-0.1-0.7-0.3-1.1-0.7-1.6c-0.6-0.5-1.1-1-1.4-1.7c-0.9-1.1-1.5-4.1-1.5-5.3L277.5,242.6z"/>
	<path class="st0" d="M137,287.3c0,0,4.8,0.3,6.6,0l10.8-0.9c0,0-7.8,1.6-11.2,2.1c-2-0.2-6.7-0.4-6.7-0.4L137,287.3z M138.1,262.1
		c0,0,2.5,0.9,5.1,4.3c3.2,4,5.6,7.2,10.1,9.4c2.3,1,6.9,1.7,6.9,1.7c-4.1,0.7-7.5-0.5-10.9-2.5c-2.9-1.8-4.9-5.7-7-8
		c-3.1-3.4-4.1-3.6-4.1-3.6L138.1,262.1z"/>
	<path class="st2" d="M129.2,293.7c1.8-1.2,4.1,0.8,5.1,3c1.1,2.2,0.8,6.9-1.5,6.8c-5.1,0-9.2,3.2-12.3,7.1
		C119.3,303.4,123.1,297.3,129.2,293.7z M125.6,262.7c2.1,0.3,2.2,3.4,1.4,5.7c-0.7,2.2-4.2,5.5-5.7,3.8c-3.6-3.7-8.9-4-13.8-3.6
		C111.8,262.6,118.7,260.8,125.6,262.7z M151.2,250c1.6,1.5,0.2,4.2-1.8,5.7c-1.8,1.5-6.4,2.5-6.8,0.3c-1.3-5-5.6-8.2-10-10.2
		C139.4,242.9,146.2,245.1,151.2,250L151.2,250z"/>
	<g id="head">
		<path class="st2" d="M260.7,77.7c11.6-3.6,2.8-18.6,37.6-23.5c-5.9,5.3-5.4,6.8-6,10.3c8.4-7.3,19.4-10.8,31.7-6.9
			c-11.9,3.5-15.6,4.9-18,9.5c9.1-4.7,18.2-4.4,32.7-0.5c-4.4,1.9-6.9,3.9-8.4,6.7c32.8,3.7,8.6,41.1,44.5,60.7
			c-7.1,2.8-16.3,0.6-24-5.4c7.7,6.4,13.9,19.3,11.7,28.5c-3.4,13.4,1.6,17.6-1.5,29.3c-9.1,34.5-18,45.5-7.5,66.6
			c-26.2-11.1-22.2-23-24.4-38.8c-9.5,17.6-2.4,30.6,9.8,44.6c-19-1.4-28.2-14.7-35.9-27.1c-6.9,20.1,4.7,23.8-6.6,43.7
			c2.4-25.5-13.9-19.9-23.3-43.2c7.3,24.6-2.9,26.8,2,40.5c-11.9-6.5-8.6-25.3-19.9-33.3c-1.2,9.9,0,18.6,2.5,26.7
			c-13.7-9.2-17.7-9.6-21.5-32.3c-6.9,11-6.9,21.9-4.6,32.6c-10.7-9.4-15.1-24.7-9.7-34c-5.3-0.5-9.2,10.4-9.2,17.5
			c-23.2-55.7,41.5-65.8,45-102.6l12.2-4.3l5.1-40.6L260.7,77.7z"/>
		<path id="mouth" class="st3" d="M258.4,117.1c4.6,3.9,3.2,20.4,0.2,34.4c0,0,11.5-10.8,14.2-13.3c2.2-1.9,3.8-5,4.4-8.2
			s0.2-7-1.5-9.8c-1.7-2.9-4.6-5-7.7-5.6C264.8,113.8,258.4,117.1,258.4,117.1z"/>
		<path id="tongue" class="st4" d="M219,129.9c0,0-0.6,5.3,1.3,8.1c2.1,3.5,5.5,6.3,9.8,6.4c6.7,0.4,15.7-6.5,22.5-7.4
			c10-1.7,27.5,4,27.5,4l-4.3-13.8c0,0-15.7-2.9-24.4-1.6c-7.4,1.4-14.7,9.7-22.1,11.6c-2.2,0.3-3.5-0.5-5.4-1.5
			C221.5,134.6,219,129.9,219,129.9L219,129.9z"/>
		<path id="teeth" class="st5" d="M253.3,117.2c-0.4,4-2,6.3-0.9,11.3c-4.9-1.6-6.7-4.9-6.9-10.9L253.3,117.2z M243.9,115.7
			c-0.8,4-2.6,6-1.8,11.3c-4.8-1.9-6.4-5.5-6.3-11.3H243.9z M261.9,147.8c-1.3-3.6-3.5-5.3-3.7-10.6c-4.5,3-5.4,6.8-4,12.3
			L261.9,147.8z"/>
		<path id="face" class="st1" d="M324.7,118.1c7-3.7,14.2-14.9,10.4-26.7c-2.6-8.1-12.9-9.2-23-2.8c-4.7-10.7-34.4-15.4-51.4-10.9
			c-4.1,1.3-7.2,3.1-7.6,7.1c-6.4,2.3-19.6,3.2-23.9,7.7c-2.5,2.7-0.2,7.5,1.6,8.6c-3.8,4.4-0.8,17,4.8,15.2
			c6.7,7.3,22.7,3.7,25.9,2.4c0,0,5.4-1.4,7.8-0.1c2.5,1.1,4.2,3.9,4.9,6.8c0.6,3.3-3.5,11.7-5.6,14.4c-2.1,2.5-3.8,7.3-7,7.4
			c-3.8,0-3.7-0.2-9.4-2c-3-0.9-8.9-1.5-11.2,0.5c-0.8,1-0.8,3.1-1.1,4c-1.2,3.3-3,3.7-3.8,6.3c-2,7.2,1.4,9.3-3.6,11.5
			c6.9,2,13.9-2.4,15.6-6.8c0.3,1.1,1,2.5,0.3,5.1c5,0.5,5-4.5,7.3-7.1c-0.1,1.6,0.3,3.1,1.8,5.1c2-2.4,3.5-5.8,6.5-7.2
			c13.5,1.8,11.6-13.4,12.3-18c3.5,4.9,9.3,7.3,15.8,7.5c6.8,0.2,8.1-3.8,15.6-1.2c1.2-1.9,1.4-3.9,0.3-6.5c2.5,0.9,4.9,1.3,7.5,0.2
			c0.8-2.3,0.2-4.3-0.5-6.5c2.2,0.2,4.1,1.1,6.3-0.3c-0.4-2,0.4-3.1-1.3-6.2c2.2,0.8,4.1-0.1,6.4-0.9
			C325.9,122.5,327.6,121.5,324.7,118.1L324.7,118.1z"/>
		<path class="st6" d="M237.3,118.2l4.9,1.1c-8.2-4.2-8.2-15.7-6.3-17.7l-1,0.4C233,103.4,233.5,114.4,237.3,118.2L237.3,118.2z"/>
		<path class="st0" d="M331.6,92.3c-1.1-2.3-3.3-2.9-5-3.2c-1.8-0.3-3.6-0.1-5.4,0.6c-4.2,1.4-8.4,4.3-12.5,12l-0.8,1.6l1.4-0.7
			c1.8-0.7,3.6-1.5,5.1-1.7c-0.8,1.8-1.5,3.5-1.4,5.5l0.1,0.8l0.8-0.3c1.2-0.6,2.3-1.1,3.8-1.3c-0.9,1.6-1.8,3.2-1.9,5.2v0.7
			l0.6-0.2c1.3-0.1,2-0.4,3.6-0.5c-0.5,1.7-0.7,2.7,0.3,3c0-1.1,0.4-2.3,1-3.5l0.3-1l-0.8,0.1c-2.4,0.1-2.7,0.4-3.6,0.7
			c0.4-1.6,1.2-3.4,2-5.2l0.4-0.8h-0.8c-2,0-3.2,0.5-4.4,1.3c0.1-1.7,0.7-3.2,1.4-4.9l0.3-0.8l-0.6-0.1c-1.6-0.2-3.2,0.3-4.9,1.2
			c3.7-6.3,7.3-8.8,10.9-10C323.7,90,328.4,89.5,331.6,92.3z M312.3,89.1l-0.5-0.9c-1.9,1.2-3.5,2.4-5,3.6c-1.7,1.6-2.5,3.4-3,5.3
			C305.6,94.6,308.1,91.8,312.3,89.1z M265.5,107.9c-0.2-4.3-2.7-8-6.4-9.4c2.9,2.2,5.1,5.6,5.2,9.4c0,2.9-1.2,6.5-3.7,8.6
			C264.2,115.1,265.5,111.2,265.5,107.9z"/>
		<path class="st6" d="M249.4,111.2c-0.8,0-1.4,0.5-1.4,1.3c0,0.7,0.6,1.3,1.4,1.3c0.6,0,1.5-0.6,1.5-1.3
			C250.9,111.7,250,111.2,249.4,111.2z M254.7,110.8c-0.7,0-1.4,0.5-1.4,1.3c0,0.7,0.7,1.4,1.4,1.4s1.3-0.7,1.3-1.4
			C256,111.3,255.4,110.8,254.7,110.8z M258.3,109.2c-0.6,0-1.4,0.6-1.4,1.5c0,0.6,0.8,1.3,1.4,1.3c0.9,0,1.4-0.7,1.4-1.3
			C259.7,109.8,259.2,109.2,258.3,109.2z M249.3,106.6c-0.8,0-1.3,0.6-1.3,1.3c0,0.8,0.5,1.4,1.3,1.4c0.7,0,1.3-0.6,1.3-1.4
			C250.6,107.2,250,106.6,249.3,106.6z M254.4,106.1c-0.9,0-1.4,0.5-1.4,1.3c0,0.7,0.5,1.3,1.4,1.3c0.8,0,1.4-0.6,1.4-1.3
			C255.8,106.6,255.2,106.1,254.4,106.1z M258.7,103.7c-0.8,0-1.4,0.6-1.4,1.3c0,0.9,0.6,1.5,1.4,1.5c0.6,0,1.4-0.6,1.4-1.5
			C260.1,104.3,259.3,103.7,258.7,103.7z M229.1,92.6c-1.5,2.7-0.6,5.7,1.2,8c0.9,0.7,1.3,1,2.2,0.8c0,0,0.5,2,0.8,2.7
			c0.6,1.5,1.5,2.4,1.5,2.4s0.6-2.2,1-3.2c0.5-1.1,1.1-1.8,2.4-2.2c1.4-0.9,3.5,0.1,4.7-1c0.8-0.6,1.8-3.3,1.8-3.3s-2.4,0-5-0.6
			c-1.9-0.3-6,1.9-6,1.9C231.5,96.6,229.5,95.4,229.1,92.6L229.1,92.6z"/>
		<g id="eye">
			<path class="st0" d="M258.7,90.3c-1.4-0.4-1.3-0.9-1.3-0.9l-0.3-0.9l1,0.3l0,0l0,0c0,0,3.5,1.1,9,0.6c2.3-0.2,5.3-1.8,8-2.3
				c1.3-0.2,2.8-0.3,3.8,0.5c1.2,0.8,2,2.2,2.4,4.3c-1.2-0.1-1.5-1.9-3-3.2c-0.7-0.5-1.6-0.5-2.8-0.3c-2.4,0.5-5.4,2-8.2,2.3
				C262.1,91.2,260,90.8,258.7,90.3z"/>
			<path class="st5" d="M262.5,93.6c0.5,2,4.4,4.9,7.8,4.2c3.5-0.7,5.3-4.8,4.8-6.9c-0.6-2.1-3.3-1.1-6.8-0.3
				C264.9,91.3,262,91.5,262.5,93.6z"/>
			<path class="st6" d="M264.4,94.5c0.2,1.6,1.7,2.8,3.2,2.7c0,0,0,0,0,0c1.5-0.1,2.6-1.5,2.4-3.1c0-0.1,0-0.1,0-0.2
				c-0.3-1.6-1.7-2.8-3.3-2.6c0,0,0,0,0,0C265.2,91.5,264.2,92.9,264.4,94.5L264.4,94.5z"/>
			<path d="M266.7,93.1c0.7,0,1.6,0.4,1.6,1.3c0.2,0.9-0.3,1.5-1.2,1.6c-0.8,0.1-1.5-0.5-1.6-1.2C265.4,93.8,266,93.1,266.7,93.1z"
				/>
			<path class="st7" d="M265.9,92.7c0.5-0.1,1.1,0.3,1.2,0.9c0.1,0.6-0.4,1.1-0.9,1.1c-0.5,0.1-1-0.3-1.1-0.9
				C265.1,93.2,265.5,92.8,265.9,92.7z"/>
		</g>
		<path class="st8" d="M316.8,78.8l-4.7,9.8c-9,16.5-7.7,23.8,12.6,29.5c12.7,1.6,10.9,23.6,9.5,26.4c-15,27.6-55.7,11.5-58.5-7.7
			c23.1-12.9,3.6-24.1-4.8-25.5c14.6,0.2,43.8-28.1,25.4-28.5c-23.8-0.5-9.8-7.3-33.8-4.8c4.7-5.1,6.5-4.3,9.1-5.3l9-2.8"/>
	</g>
</g>
<g id="shine" class="st9">
	
		<radialGradient id="shield_2_" cx="220" cy="442" r="405" gradientTransform="matrix(1 0 0 -1 0 662)" gradientUnits="userSpaceOnUse">
		<stop  offset="0" style="stop-color:#FFFFFF;stop-opacity:0.3"/>
		<stop  offset="0.2" style="stop-color:#FFFFFF;stop-opacity:0.2"/>
		<stop  offset="0.6" style="stop-color:#666666;stop-opacity:0.1"/>
		<stop  offset="1" style="stop-color:#000000;stop-opacity:0.13"/>
	</radialGradient>
	<path id="shield_1_" class="st10" d="M2,2v257c0,286,298,398,298,398s298-112,298-398V2H2z"/>
</g>
</svg>
